<?xml version="1.0" encoding="utf-8"?>
<!-- Generator: Adobe Illustrator 25.0.1, SVG Export Plug-In . SVG Version: 6.00 Build 0)  -->
<svg version="1.1" id="Calque_1" xmlns="http://www.w3.org/2000/svg" xmlns:xlink="http://www.w3.org/1999/xlink" x="0px" y="0px"
	 viewBox="0 0 159.1 159.1" style="enable-background:new 0 0 159.1 159.1;" xml:space="preserve">
<style type="text/css">
	.st0{fill:#FFFFFF;}
	.st1{fill:#333D85;}
</style>
<rect class="st0" width="159.1" height="159.1"/>
<rect y="0" class="st1" width="159.1" height="159.1"/>
<polygon class="st0" points="99.7,94.2 108.9,94.2 108.9,92.3 99.7,92.3 99.7,85.7 109.1,85.7 109.1,83.8 97.7,83.8 97.7,103.1 
	109.1,103.1 109.1,101.1 99.7,101.1 "/>
<polygon class="st0" points="48.8,83.8 48.8,85.7 48.8,101.1 48.8,103.1 50.7,103.1 50.7,101.1 50.7,85.7 50.7,83.8 "/>
<path class="st0" d="M62.7,92.5c-3.3-0.3-4.9-0.7-5.1-3c-0.1-0.9,0.1-1.6,0.6-2.2c0.9-1.2,2.7-1.7,4-1.7l0.1,0
	c1.5,0,2.9,0.5,3.7,1.4c0.4,0.4,0.6,0.9,0.8,1.5l0.1,0.5h2l-0.1-0.8c-0.6-3.1-3.6-4.5-6.4-4.5c-2.4,0-4.5,0.9-5.7,2.5
	c-0.8,1-1.1,2.2-1,3.5c0.3,4.2,3.9,4.5,6.7,4.8c3,0.3,4.5,0.6,4.9,2.4c0.2,1.1,0,2-0.6,2.8c-0.9,1.1-2.6,1.8-4.3,1.8
	c-1.9,0-4.6-1-4.9-3.3l-0.1-0.6h-2l0.1,0.9c0.3,3.3,3.8,5,6.8,5c2.4,0,4.6-1,5.9-2.6c1-1.2,1.3-2.7,1-4.4
	C68.5,93,65.4,92.7,62.7,92.5"/>
<polygon class="st0" points="133.6,94.1 142.8,94.1 142.8,92.1 133.6,92.1 133.6,85.5 143,85.5 143,83.6 131.6,83.6 131.6,102.9 
	143,102.9 143,101 133.6,101 "/>
<path class="st0" d="M119.7,95.7h0.9c1.9,0,3.5-0.6,4.6-1.9c1-1.1,1.5-2.5,1.5-4.1c0-3.9-3.1-6-6.1-6h-6.9v19.3h1.9V85.7h5
	c2.9,0,4.2,2.1,4.2,4c0,1.1-0.4,2.1-1,2.8c-0.8,0.8-1.8,1.2-3.1,1.2h-4v1.7l7.8,7.6h2.9L119.7,95.7z"/>
<polygon class="st0" points="48.8,45.4 48.8,76.5 68.1,76.5 68.1,71.4 53.8,71.4 53.8,45.4 "/>
<polygon class="st0" points="97.7,45.4 97.7,76.5 117,76.5 117,71.4 102.8,71.4 102.8,63.4 116.6,63.4 116.6,58.4 102.8,58.4 
	102.8,50.4 116.9,50.4 116.9,45.4 "/>
<path class="st0" d="M77.6,50.4H84c3.6,0,5.2,2.8,5.2,5.5c0,2.6-1.6,5.4-5.2,5.4h-2.9v-0.1h-3.5V50.4z M72.5,45.4v31.1h5.1V66.3h0.1
	v0h2v0H84c4.9,0,10.2-3.3,10.2-10.5c0-7.2-5.3-10.5-10.2-10.5H72.5z"/>
<path class="st0" d="M128.4,45.4C128.4,45.4,128.4,45.4,128.4,45.4c-3.3,0.9-5,2.7-5.4,3.2c-0.2,0.2-0.3,0.3-0.4,0.5
	c-1.3,1.7-1.9,3.8-1.7,6h0c0.6,7.1,7.4,7.8,11.1,8.1c3.3,0.3,6,0.8,6.4,2.8c0.1,0.4,0.1,0.7,0.1,1c0,2.9-3.4,4.7-6.5,4.7
	c-2.9,0-6-1.5-6.3-4l0,0l0-0.5h-5.1l0.1,1c0.6,5.5,6.2,8.5,11.3,8.5c5.4,0,11-3.2,11.6-8.6v-1.9c0-0.4-0.1-0.8-0.2-1.1
	c-1.2-4.9-6.1-6.1-10.8-6.7c-3.4-0.3-6.1-0.8-6.6-3c0-0.1,0-0.2,0-0.3c0,0,0,0,0,0c0-0.1,0-0.2,0-0.3c0-2.8,3.3-4.5,6.4-4.5
	c0.7,0,1.4,0.1,2.1,0.3c1.6,0.5,2.9,1.5,3.3,3.2h5l0-0.2c-0.4-2.6-1.6-4.5-3.2-5.8c0,0,0,0-0.1,0c-2-1.7-4.7-2.4-7.4-2.4
	C130.8,44.9,129.6,45,128.4,45.4"/>
<polygon class="st0" points="27.9,45.4 15.6,76.5 21,76.5 30.1,53.5 30.1,53.5 30.1,53.5 30.1,53.5 30.1,53.5 39.1,76.5 44.5,76.5 
	32.3,45.4 "/>
<path class="st0" d="M30.1,83.8L30.1,83.8H16.4c-0.4,0.1-0.7,0.4-0.8,0.8v0.6c0.1,0.5,0.6,0.9,1.2,0.9h9.1c0.5,0.1,0.9,0.6,0.9,1.1
	c0,0.6-0.5,1.2-1.2,1.2H19c-0.1,0-0.1,0.1-0.1,0.1c-0.1,0.2,0,0.4,0.1,0.5c4.5,4.1,10.5,6.5,10.9,6.6c0.1,0,0.1,0,0.2,0h0h0
	c0.1,0,0.1,0,0.2,0c0.4-0.2,6.4-2.5,10.9-6.6c0,0,0.2-0.3,0.1-0.5c0-0.1-0.1-0.1-0.1-0.1h-6.5c-0.7,0-1.2-0.5-1.2-1.2
	c0-0.5,0.4-1,0.9-1.1h9.1c0.6,0,1.1-0.4,1.2-0.9v-0.5c-0.1-0.4-0.4-0.8-0.8-0.9H30.1z"/>
<path class="st0" d="M93.8,86.3v-2.4h-6.4v2.4h1.7V92h-8.4v-5.8h2v-2.4h-6.4v2.4h1.8v14.4h-1.8v2.5h6.4v-2.5h-2v-6.1h8.4v6.1h-1.7
	v2.5h6.4v-2.5h-2V86.3H93.8z M93.2,101.3v1.3H88v-1.3h1.7V94h-9.6v7.2h2v1.3h-5.2v-1.3h1.8V85.7h-1.8v-1.3h5.2v1.3h-2v7h9.6v-7H88
	v-1.3h5.2v1.3h-2v15.6H93.2z"/>
<path class="st0" d="M16.7,129.5c0.6,0.8,1.4,1.2,2.4,1.2c0.6,0,1-0.2,1.4-0.5c0.3-0.3,0.5-0.8,0.5-1.3c0-0.3-0.1-0.5-0.2-0.7
	c-0.1-0.2-0.3-0.3-0.4-0.5c-0.2-0.1-0.4-0.2-0.6-0.3c-0.2-0.1-0.5-0.2-0.8-0.3c-0.3-0.1-0.5-0.2-0.8-0.3c-0.1,0-0.3-0.1-0.4-0.2
	c-0.1-0.1-0.2-0.1-0.4-0.2c-0.2-0.1-0.4-0.3-0.6-0.5c-0.2-0.2-0.3-0.4-0.4-0.7c-0.1-0.3-0.2-0.6-0.2-1c0-0.8,0.3-1.5,0.8-2
	c0.5-0.5,1.2-0.7,2-0.7c0.1,0,0.2,0,0.3,0c0.1,0,0.2,0,0.3,0.1c0.1,0,0.2,0,0.4,0.1c0.1,0,0.2,0.1,0.4,0.1c0.2,0.1,0.5,0.3,0.7,0.5
	c0.2,0.2,0.4,0.4,0.6,0.7l-0.8,0.6c-0.2-0.3-0.4-0.5-0.7-0.7c-0.3-0.2-0.5-0.3-0.7-0.3c-0.2,0-0.4-0.1-0.6-0.1
	c-0.5,0-0.9,0.2-1.2,0.5c-0.3,0.3-0.5,0.7-0.5,1.3c0,0.2,0,0.4,0.1,0.6c0.1,0.2,0.2,0.3,0.4,0.4c0.1,0.1,0.2,0.1,0.3,0.2
	c0.1,0,0.2,0.1,0.3,0.1c0.2,0.1,0.4,0.2,0.6,0.2c0.1,0,0.2,0.1,0.3,0.1c0.1,0,0.2,0.1,0.4,0.1c0.1,0,0.2,0.1,0.4,0.1
	c0.1,0,0.2,0.1,0.3,0.1c0.2,0.1,0.4,0.2,0.6,0.3c0.1,0.1,0.2,0.1,0.3,0.2c0.1,0.1,0.2,0.2,0.3,0.2c0.2,0.2,0.3,0.4,0.4,0.7
	c0.1,0.3,0.1,0.6,0.1,0.9c0,0.9-0.3,1.6-0.8,2.1c-0.6,0.5-1.3,0.7-2.2,0.7c-0.6,0-1.2-0.1-1.8-0.4c-0.6-0.3-1-0.7-1.4-1.2
	L16.7,129.5z"/>
<path class="st0" d="M23.2,126.6c0-0.5,0-1,0.1-1.5c0.1-0.5,0.2-0.9,0.4-1.3c0.2-0.4,0.4-0.8,0.7-1.1c0.3-0.3,0.6-0.6,1.1-0.8
	c0.4-0.2,0.9-0.3,1.4-0.3c0.6,0,1.1,0.1,1.6,0.4c0.5,0.3,0.9,0.6,1.2,1.1c0.3,0.5,0.5,1,0.7,1.6c0.2,0.6,0.2,1.2,0.2,1.9
	c0,0.4,0,0.7-0.1,1.1c0,0.2-0.1,0.4-0.1,0.6c0,0.2-0.1,0.4-0.1,0.6c-0.1,0.4-0.3,0.7-0.5,1.1c-0.2,0.3-0.4,0.6-0.7,0.9
	c-0.3,0.3-0.6,0.5-1,0.6c-0.4,0.1-0.8,0.2-1.3,0.2c-0.5,0-0.9-0.1-1.3-0.2c-0.4-0.1-0.7-0.3-1-0.6c-0.3-0.2-0.5-0.5-0.7-0.9
	c-0.2-0.3-0.4-0.7-0.5-1.1c-0.1-0.2-0.1-0.4-0.2-0.6c0-0.2-0.1-0.4-0.1-0.6c0-0.2-0.1-0.4-0.1-0.6C23.2,127,23.2,126.8,23.2,126.6
	L23.2,126.6z M24.4,126.6c0,0.1,0,0.3,0,0.4c0,0.1,0,0.3,0,0.4c0,0.3,0.1,0.6,0.2,0.9c0.1,0.3,0.2,0.6,0.3,0.9
	c0.1,0.3,0.3,0.5,0.5,0.7c0.2,0.2,0.4,0.4,0.7,0.5c0.3,0.1,0.6,0.2,0.9,0.2c0.3,0,0.6-0.1,0.8-0.2c0.3-0.1,0.5-0.2,0.7-0.4
	c0.2-0.2,0.3-0.4,0.5-0.6c0.1-0.1,0.1-0.2,0.2-0.4c0.1-0.1,0.1-0.2,0.1-0.4c0.1-0.2,0.1-0.5,0.2-0.8c0-0.1,0-0.3,0.1-0.4
	c0-0.1,0-0.2,0-0.3c0-0.1,0-0.2,0-0.3c0-0.1,0-0.2,0-0.3c0-0.2,0-0.5-0.1-0.8c0-0.3-0.1-0.6-0.2-0.9c-0.1-0.3-0.2-0.6-0.3-0.9
	c-0.1-0.3-0.3-0.5-0.5-0.7c-0.2-0.2-0.4-0.4-0.7-0.5c-0.3-0.1-0.6-0.2-0.9-0.2c-0.4,0-0.8,0.1-1.1,0.3c-0.3,0.2-0.6,0.4-0.8,0.7
	c-0.2,0.3-0.3,0.6-0.5,1c-0.1,0.4-0.2,0.7-0.2,1c0,0.2,0,0.3,0,0.5C24.4,126.3,24.4,126.5,24.4,126.6L24.4,126.6z"/>
<path class="st0" d="M32.3,121.8h1.1v6.2c0,0.3,0,0.5,0.1,0.8c0,0.2,0.1,0.5,0.2,0.7c0.1,0.2,0.2,0.4,0.4,0.6
	c0.2,0.2,0.4,0.3,0.6,0.4s0.6,0.2,0.9,0.2c0.4,0,0.7-0.1,1-0.2c0.3-0.1,0.5-0.2,0.7-0.4c0.2-0.2,0.3-0.4,0.4-0.6
	c0.1-0.2,0.2-0.5,0.2-0.7c0-0.1,0-0.2,0-0.4c0-0.1,0-0.3,0-0.4l0-6.2H39v6.2c0,0.4,0,0.7-0.1,1.1c-0.1,0.3-0.2,0.7-0.3,1
	c-0.2,0.3-0.4,0.6-0.6,0.8c-0.2,0.2-0.6,0.4-1,0.6c-0.4,0.1-0.8,0.2-1.4,0.2c-0.5,0-1-0.1-1.4-0.2c-0.4-0.1-0.7-0.3-0.9-0.6
	c-0.2-0.2-0.4-0.5-0.6-0.8c-0.2-0.3-0.3-0.7-0.3-1c0-0.2-0.1-0.3-0.1-0.5c0-0.2,0-0.4,0-0.6L32.3,121.8z"/>
<path class="st0" d="M40.9,121.8h2.8c2.2,0,3.3,1,3.3,2.9c0,0.7-0.2,1.2-0.5,1.7c-0.3,0.5-0.8,0.8-1.4,1l2.6,4.2h-1.3l-2.5-4H42v4
	h-1.1L40.9,121.8z M43.9,126.5c0.5,0,1-0.2,1.4-0.5c0.4-0.3,0.6-0.7,0.6-1.3c0-0.6-0.2-1.1-0.5-1.4c-0.4-0.3-0.9-0.5-1.5-0.5H42v3.7
	L43.9,126.5z"/>
<path class="st0" d="M48.1,126.7c0-0.3,0-0.5,0-0.8c0-0.3,0.1-0.5,0.1-0.8c0.1-0.5,0.2-0.9,0.5-1.4c0.2-0.4,0.5-0.8,0.8-1.1
	c0.3-0.3,0.7-0.6,1.1-0.7c0.4-0.2,0.9-0.3,1.4-0.3c0.5,0,1.1,0.1,1.6,0.4c0.5,0.3,1,0.7,1.3,1.3l-0.8,0.6c-0.6-0.8-1.3-1.2-2.1-1.2
	c-0.6,0-1,0.2-1.5,0.5c-0.4,0.4-0.7,0.8-0.9,1.4c-0.2,0.6-0.3,1.3-0.3,2c0,0.7,0.1,1.4,0.3,2c0.2,0.6,0.5,1.1,1,1.4
	c0.4,0.3,0.9,0.5,1.4,0.5c1,0,1.8-0.4,2.4-1.3l0.8,0.6c-0.2,0.4-0.5,0.7-0.9,1c-0.4,0.3-0.7,0.5-1.1,0.6c-0.4,0.1-0.7,0.2-1.1,0.2
	c-0.5,0-1-0.1-1.4-0.3c-0.4-0.2-0.8-0.4-1.1-0.7c-0.3-0.3-0.6-0.7-0.8-1.1c-0.2-0.4-0.4-0.9-0.5-1.4
	C48.2,127.7,48.1,127.2,48.1,126.7L48.1,126.7z"/>
<polygon class="st0" points="56.8,121.8 62.7,121.8 62.6,122.8 57.9,122.8 57.9,126.1 62.1,126.1 62,127 57.9,127 57.9,130.4 
	62.8,130.4 62.7,131.5 56.8,131.5 "/>
<path class="st0" d="M67.6,121.8h2.1c3.4,0,5.2,1.6,5.2,4.9c0,1.4-0.4,2.5-1.2,3.4c-0.8,0.9-1.8,1.3-3.1,1.4h-3L67.6,121.8z
	 M70.3,130.4c0.3,0,0.6,0,1-0.1c0.3-0.1,0.6-0.2,0.9-0.4c0.3-0.2,0.6-0.4,0.8-0.7c0.2-0.3,0.4-0.6,0.5-1c0.1-0.4,0.2-0.8,0.2-1.3
	c0-1.3-0.4-2.3-1-3c-0.7-0.7-1.7-1-3-1h-1v7.7L70.3,130.4z"/>
<polygon class="st0" points="76.5,121.8 82.4,121.8 82.3,122.8 77.6,122.8 77.6,126.1 81.7,126.1 81.7,127 77.6,127 77.6,130.4 
	82.4,130.4 82.4,131.5 76.5,131.5 "/>
<polygon class="st0" points="87.2,121.8 88.3,121.8 88.3,126 92.6,126 92.6,121.8 93.7,121.8 93.7,131.5 92.6,131.5 92.6,127 
	88.3,127 88.3,131.5 87.2,131.5 "/>
<path class="st0" d="M98.4,121.8h1.1l3.6,9.7h-1.2l-0.9-2.6h-4l-1,2.6h-1.1L98.4,121.8z M100.5,127.9l-1.7-4.6l-1.7,4.6H100.5z"/>
<path class="st0" d="M103.9,121.8h1.1v6.2c0,0.3,0,0.5,0.1,0.8c0,0.2,0.1,0.5,0.2,0.7c0.1,0.2,0.2,0.4,0.4,0.6
	c0.2,0.2,0.4,0.3,0.6,0.4c0.3,0.1,0.6,0.2,0.9,0.2c0.4,0,0.7-0.1,1-0.2c0.3-0.1,0.5-0.2,0.7-0.4c0.2-0.2,0.3-0.4,0.4-0.6
	c0.1-0.2,0.2-0.5,0.2-0.7c0-0.1,0-0.2,0-0.4c0-0.1,0-0.3,0-0.4l0-6.2h1.1v6.2c0,0.4,0,0.7-0.1,1.1c-0.1,0.3-0.2,0.7-0.3,1
	c-0.2,0.3-0.4,0.6-0.6,0.8c-0.2,0.2-0.6,0.4-1,0.6c-0.4,0.1-0.8,0.2-1.4,0.2c-0.5,0-1-0.1-1.4-0.2c-0.4-0.1-0.7-0.3-0.9-0.6
	c-0.2-0.2-0.4-0.5-0.6-0.8c-0.2-0.3-0.3-0.7-0.3-1c0-0.2-0.1-0.3-0.1-0.5c0-0.2,0-0.4,0-0.6L103.9,121.8z"/>
<polygon class="st0" points="111.7,121.8 118,121.8 118,122.8 115.5,122.8 115.5,131.5 114.3,131.5 114.3,122.8 111.7,122.8 "/>
<polygon class="st0" points="119.3,121.8 125.2,121.8 125.2,122.8 120.4,122.8 120.4,126.1 124.6,126.1 124.5,127 120.4,127 
	120.4,130.4 125.3,130.4 125.2,131.5 119.3,131.5 "/>
<path class="st0" d="M126.8,121.8h1.1v6.2c0,0.3,0,0.5,0.1,0.8c0,0.2,0.1,0.5,0.2,0.7c0.1,0.2,0.2,0.4,0.4,0.6
	c0.2,0.2,0.4,0.3,0.6,0.4c0.3,0.1,0.6,0.2,0.9,0.2c0.4,0,0.7-0.1,1-0.2c0.3-0.1,0.5-0.2,0.7-0.4c0.2-0.2,0.3-0.4,0.4-0.6
	c0.1-0.2,0.2-0.5,0.2-0.7c0-0.1,0-0.2,0-0.4c0-0.1,0-0.3,0-0.4l0-6.2h1.1v6.2c0,0.4,0,0.7-0.1,1.1c-0.1,0.3-0.2,0.7-0.3,1
	c-0.2,0.3-0.4,0.6-0.6,0.8c-0.2,0.2-0.6,0.4-1,0.6c-0.4,0.1-0.8,0.2-1.4,0.2c-0.5,0-1-0.1-1.4-0.2c-0.4-0.1-0.7-0.3-0.9-0.6
	c-0.2-0.2-0.4-0.5-0.6-0.8c-0.2-0.3-0.3-0.7-0.3-1c0-0.2-0.1-0.3-0.1-0.5c0-0.2,0-0.4,0-0.6L126.8,121.8z"/>
<path class="st0" d="M135.3,121.8h2.8c2.2,0,3.3,1,3.3,2.9c0,0.7-0.2,1.2-0.5,1.7c-0.3,0.5-0.8,0.8-1.4,1l2.6,4.2h-1.3l-2.5-4h-1.9
	v4h-1.1L135.3,121.8z M138.3,126.5c0.5,0,1-0.2,1.4-0.5c0.4-0.3,0.6-0.7,0.6-1.3c0-0.6-0.2-1.1-0.5-1.4c-0.4-0.3-0.9-0.5-1.5-0.5
	h-1.8v3.7L138.3,126.5z"/>
</svg>
