<?xml version="1.0" encoding="utf-8"?>
<!-- Generator: Adobe Illustrator 25.0.1, SVG Export Plug-In . SVG Version: 6.00 Build 0)  -->
<svg version="1.1" id="Calque_1" xmlns="http://www.w3.org/2000/svg" xmlns:xlink="http://www.w3.org/1999/xlink" x="0px" y="0px"
	 viewBox="0 0 595.3 481.9" style="enable-background:new 0 0 595.3 481.9;" xml:space="preserve">
<style type="text/css">
	.st0{opacity:0.5;fill:#E9E9E9;}
	.st1{opacity:0.5;fill:#E2E2E2;}
	.st2{opacity:0.5;fill:#FCFCFC;}
	.st3{opacity:0.5;fill:#DBDBDA;}
	.st4{opacity:0.5;fill:#F4F4F4;}
	.st5{opacity:0.5;fill:#F1F1F0;}
	.st6{fill:#2B2B2A;}
	.st7{fill:#D22124;}
</style>
<path class="st0" d="M144.1,131.1c-0.3,0-0.8,0.1-1.3,0.4c-6.7,3-17.4,1.1-19.4,11.9l-1.9,10.8c-11.2,19.3-24,41.2-35.9,61.7
	c4.1,1.1,8.6,2.2,13.2,3.4c0.7-1.1,1.4-2.3,2.2-3.4c-4.4-1.8-8-3.3-8-3.5c0,0,0,0,0.1,0h0c0.3,0,3.6,0.8,8.8,2.1
	c14.6-23.2,28.2-45.2,31.8-52.7C140.9,146.4,148.2,131.1,144.1,131.1 M83.6,219.2c-6.4,10.9-12.5,21.3-18,30.6
	c2.1,0.2,4.6,0.8,7.6,1.9c1,0.4,2.4,0.9,4,1.4c5.9-9.2,12.5-19.7,19.2-30.2C91.2,221.4,86.8,220.1,83.6,219.2 M55.9,266.4
	c-8.2,13.9-13.4,22.8-13.4,22.8s1.7,1.6,4.6,1.6c3.1,0,7.6-1.9,12.6-10.1c1.3-2.2,3.6-5.7,6.5-10.3C62.6,269,59.2,267.7,55.9,266.4"
	/>
<path class="st1" d="M204.5,136.9c-2.4,0-2.8,3.7-6.2,8.2c-3.5,4.6-2.7,6.4-11.8,22.3c-2,3.4-5.9,9.6-11,17.4
	c2.5,0.8,5.1,1.6,7.9,2.5c1.3-2.1,2.8-4.5,4.8-7.4c8.7-12.8,5.2-8.3,6.6-10.7c1.5-2.4,6.5-9.4,9.8-11.4c3.2-2,0,0,3-4.9
	c3-4.9-2-1.2-4.3-4c-0.9-1.1-1.1-1.3-0.9-1.3c0.1,0,0.2,0.1,0.5,0.1c0.2,0.1,0.5,0.1,0.8,0.1c0.4,0,0.9-0.1,1.4-0.6
	c1.7-1.6,2.3-2.6,4.7-6.5c2.4-3.9-2.5-3.6-5-3.8L204.5,136.9z M173.8,187.3c-1,1.5-2,3-3.1,4.6c-4.2,6.9-8.9,14.3-13.7,21.9
	c2,0.5,4.2,1.1,6.7,1.7c2.1-2.8,3.8-5,5-6.6c7.1-9.3,9.5-13.4,12.5-18.3C178.7,189.5,176.2,188.4,173.8,187.3 M156.1,215.2
	c-2.4,3.7-4.7,7.5-7.1,11.3c1.8,0.5,3.6,0.9,5.4,1.4c2.9-3.8,5.5-7.3,7.8-10.3C160.2,216.9,158.1,216,156.1,215.2 M146.3,230.9
	c-0.1,0.2-0.3,0.4-0.4,0.6c1.7,0.4,3.3,0.9,4.9,1.3c0.1-0.1,0.2-0.3,0.3-0.4C149.4,231.8,147.8,231.3,146.3,230.9 M142.3,237.1
	c-3.4,5.4-6.8,10.6-9.9,15.5c0.8,0.3,1.7,0.6,2.6,0.9c3.9-5.1,7.7-10.2,11.4-15.1C145,238,143.7,237.6,142.3,237.1 M126.6,261.8
	c-1.6,2.5-3.1,4.9-4.5,7.1c0.3,0.1,0.7,0.2,1,0.4c1.7-2.2,3.4-4.5,5.2-6.8C127.7,262.2,127.1,262,126.6,261.8 M109.1,287.3
	c-1.5,1.3-3,2.1-4.2,2.5c-2.9,5.1-5.5,9.8-5.2,9.8l0.1,0c0.3-0.3,4-5,9.5-12.2L109.1,287.3z"/>
<path class="st1" d="M305.5,88.2c-2,0-7.9,5.4-10.4,8.5c-2.9,3.6-11.2,15.9-15,23c-1.9,3.6-10.3,16.6-18.9,29.8
	c1.3,0.1,2.5-0.2,2.5,0.7c0,0.4-0.3,1.1-1,2.1c-1.3,2-1.4,2.9-1.4,3.3c0,0.1,0,0.2,0,0.3c0,0.3-0.2,0.4-1.6,1.2
	c-1.7,1-3.8,3.4-5.7,5.7c1.2,0.3,3.7,0.8,7.2,1.5c1.3-1.5,2.8-3.3,5.3-6.6c7-9.1,12.8-16.3,18-24.6c5.1-8.3,3.1-6.1,9.3-15.1
	c2.8-4,3.5-4.8,3.7-4.8l0.1,0.2c0,0.1,0.1,0.2,0.2,0.2c0.2,0,0.6-0.2,1.4-1c3.4-3.3,1.9-6.2,3.4-8.7c1.5-2.4,2.2-1.3,11.7-6.9
	c9.5-5.5-7.6-6.1-8.2-8.5C306,88.3,305.8,88.2,305.5,88.2 M253.9,163.1c-1.7,2.2-3.2,4.4-4,5.5c-1.5,2.4,2-2.1-6.6,10.7
	c-5.1,7.6-7.1,11.2-10.1,16c2.3,0.7,4.6,1.4,6.8,2c0.1-0.3,0.3-0.6,0.6-1c2.2-3.6,2.8-6,7.6-13.7c-0.7-0.4-1.3-0.7-2-1.1
	c0,0,0.8,0.3,2.2,0.7c1-1.5,2.1-3.2,3.4-5.2c4.3-6.4,6.2-8.8,8-11L253.9,163.1z M230.2,199.9c-0.3,0.4-0.6,0.8-0.8,1.2
	c4,1.3,1.6,1,4.7,2.1c0.7,0.3,1.4,0.5,2,0.8c0.4-0.5,0.7-1,1-1.4C234.8,201.7,232.5,200.8,230.2,199.9 M225,207.7
	c-3.9,6.4-8.1,13.4-12.1,20.5c1.7,0.4,3.4,0.9,5.1,1.3c3.9-5.6,7.8-11.1,11.3-16c0.9-1.2,1.7-2.4,2.4-3.4
	C229.6,209.4,227.4,208.5,225,207.7 M210.2,233c-1.5,2.8-3.1,5.6-4.5,8.3c1.3,0.3,2.4,0.7,3.5,1c1.7-2.5,3.6-5.2,5.4-7.9
	C213.1,233.9,211.6,233.4,210.2,233 M198.5,255.5c-1.1,2.4-2.2,4.8-3.1,7.1c0,0,1.7-2.5,4.4-6.6C199.4,255.8,199,255.6,198.5,255.5"
	/>
<path class="st1" d="M429.8,17.1c0,0-13.3,6.1-18.1,11.1c-4.7,5-12.6,17.7-17.3,22.7c-4.7,5-4.1,11.8-10.5,14.3
	c-5.3,2-8.6,6.4-20.7,24.2c3.2,1.1,9,2.1,9,4.2c0,0.8-0.8,1.8-2.9,3c-9.5,5.6-10.2,4.5-11.7,6.9c-1.5,2.4,0,5.4-3.4,8.7
	c-0.8,0.8-1.2,1-1.4,1c-0.1,0-0.2-0.1-0.2-0.2c0-0.1-0.1-0.2-0.1-0.2c-0.2,0-0.9,0.8-3.7,4.9c-6.2,8.9-4.2,6.8-9.4,15.1
	c-5.1,8.3-10.9,15.4-18,24.6c-5.7,7.4-6.3,7.3-10.7,13.5c2,0.4,4.1,0.9,6.4,1.3c16.8-22,34.1-51.7,39.6-58.3
	c6.1-7.3,25.5-25.6,30.2-30.7c4.7-5.1,16.8-24.6,26-31.7c9.2-7,6.6-5.5,16.8-16.7C440.2,23.5,429.8,17.1,429.8,17.1 M301.2,185.7
	c-2.9,4.9-3.6,7-5.4,10c-0.3,0.4-0.5,0.8-0.6,1c0.5,0.1,1,0.3,1.5,0.4c2.7-3.2,5.6-6.7,8.8-10.6C304.1,186.3,302.7,186,301.2,185.7
	 M292.2,202c-0.5,0.8-1.2,1.7-2,2.9c0.7-0.9,1.5-1.8,2.3-2.7C292.4,202.1,292.3,202,292.2,202"/>
<path class="st1" d="M63.6,249.7c-5.5,0-7.7,2.7-8.6,4.5c8.3,2.9,19,6.6,30.4,10.6c1.5-2.2,3.2-4.5,4.9-7c-5.3-1.8-9.8-3.4-13.1-4.6
	c-1.6-0.6-3-1.1-4-1.4c-3-1.1-5.5-1.7-7.6-1.9C64.9,249.8,64.2,249.7,63.6,249.7"/>
<path class="st1" d="M94.8,259.3c-1.8,2.3-3.6,4.7-5.3,6.9c5.8,2,11.8,4.1,17.7,6.2c1.3-2.2,2.8-4.7,4.3-7.3
	C105.5,263,99.8,261.1,94.8,259.3 M122.1,268.8c-1.8,2.8-3.3,5.2-4.6,7.3c15.9,5.7,30.9,11.1,41.4,15.2c1.5-2.6,3.1-5.4,4.5-7.8
	c-12.8-4.6-27-9.6-40.3-14.3C122.7,269.1,122.4,269,122.1,268.8"/>
<path class="st1" d="M166.1,284.5c-2.2,2.8-4.1,5.3-5.7,7.5c4.9,1.9,8.7,3.6,11,4.7c12.5,6.2,24.9,12.3,27.2,15.7
	c0.5,0.2,1,0.4,1.5,0.6l8.1,7.3c2.4,2.2,4.8,3,7.1,3c5.4,0,10.5-4.4,15.5-5.6c7.1-1.7-9.4-9.9-25.9-18
	C199.4,296.8,184.3,291.1,166.1,284.5"/>
<path class="st1" d="M93.1,212.2L93.1,212.2C93,212.2,93,212.3,93.1,212.2c-0.1,0.3,3.5,1.8,7.9,3.6c5.3,2.2,11.8,4.7,14.3,5.7
	c0.7-1.1,1.4-2.1,2.1-3.2c-6.1-1.6-11.4-2.9-15.5-4C96.7,213,93.4,212.2,93.1,212.2"/>
<path class="st1" d="M124.4,220.2c-0.8,1.1-1.7,2.2-2.5,3.3c3.4,1,7.4,2.2,12,3.6c0.8-1.3,1.5-2.6,2.3-3.9
	C132.1,222.1,128.2,221.1,124.4,220.2 M149,226.5c-0.9,1.5-1.8,2.9-2.8,4.3c1.6,0.5,3.2,1,4.8,1.5c3.3,1,6.6,2.1,10.1,3.1
	c3.7,1,6.6,1.7,8.6,2.3c0.8,0.2,1.6,0.4,2.3,0.6c0.9-1.7,1.8-3.4,2.8-5.1c-6.4-1.7-13.4-3.5-20.4-5.3
	C152.6,227.5,150.8,227,149,226.5"/>
<path class="st1" d="M179,234.3c-1.2,1.7-2.3,3.4-3.4,5c6.8,1.9,10.5,3.3,14.6,4.8c1.3-1.9,2.6-3.8,4-5.8
	C189.9,237.2,184.7,235.8,179,234.3 M200.1,239.8c-1.5,2-3.1,4.1-4.7,6.2c2.1,0.8,4.5,1.6,7.6,2.6c8.5,2.7,10.2,3.4,10.7,3.7
	c2.5,0.8,4.9,1.6,7.1,2.4c2.7,0.7,5.6,1.2,7.7,1.2c0.4,0,0.7,0,1,0c0.9-0.1,1.4-0.2,1.6-0.2c0.9,0-0.4,0.6,3.8,2.1
	c1.6,0.6,2.2,1,2.2,1.4c0,0.3-0.2,0.5-0.6,0.8c2.7,0.9,4.8,1.7,6.4,2.4c17,6.8,17.5,8.8,23.1,10.2c4.3,1.1,6.9,3,8.7,3
	c0.5,0,1-0.2,1.4-0.6c1.8-1.7,5.9-4.5,1.6-6.1c-4.3-1.6-5.4-1.9-7.7-2.2l-0.2,0c-0.7,0-1.2,0.3-1.5,0.7c-0.3,0.4-0.5,0.7-0.6,0.7
	c-0.1,0-0.1-0.4,0-1.6c0.1-3.6,6.3-3.8,0.9-5.8c-4.1-1.5-2.9-2.1-3.8-2.1c-0.3,0-0.8,0.1-1.6,0.2c-0.3,0-0.7,0.1-1,0.1
	c-2.3,0-5.6-0.7-8.4-1.4c-1.9,2.9-3.1,4.6-3.1,4.6c0.6-1.6,1.3-3.2,2.1-4.9c-1.8-0.5-3.4-1-4.3-1.3c-2.7-1,2.9,0.4-11.8-4.3
	c-12.9-4.2-15.1-5.8-27.4-9.3c-1.1-0.3-2.2-0.6-3.5-1c-0.7-0.2-1.5-0.4-2.3-0.6C202.4,240.4,201.4,240.2,200.1,239.8"/>
<path class="st1" d="M191.1,182c3.3,1.9,6.9,3.8,10.8,5.6c0.4-0.6,0.8-1.2,1.1-1.8C195.9,183.6,191.1,182,191.1,182 M209.9,188
	c-0.5,1-0.9,1.9-1.4,2.7c4.5,2,9.1,4,13.9,6c0.9-1.3,1.8-2.7,2.6-3.9C219.7,191.1,214.5,189.5,209.9,188 M233.2,195.3
	c-0.9,1.4-1.9,2.9-3.1,4.6c2.3,0.9,4.6,1.8,6.9,2.7c4.4,1.7,8.8,3.3,12.9,4.9l3.1-6.4c-1.5-0.4-3.1-0.9-5-1.4
	c-2.6-0.7-5.3-1.5-8-2.3C237.8,196.7,235.5,196,233.2,195.3"/>
<path class="st1" d="M256.5,202.1c-1.9,2.3-3.6,4.3-5,5.9c9.7,3.6,17.9,6.5,23.1,8.4c1.2-2,2.3-3.9,3.5-5.8
	c-5.3-2.1-7.2-3.3-10.4-4.5C263.5,204.7,269,205.8,256.5,202.1 M284.4,213c-1.2,1.6-2.4,3.3-3.6,5.1c10,2.5,18.3,4.5,26.8,7.6
	c9.2,3.3,6.2,2.9,16.7,6c4,1.2,5.3,1.6,5.7,1.6c0.1,0,0.2,0,0.2-0.1c0-0.1-0.1-0.2-0.1-0.3c0,0,0-0.1,0-0.1c0-0.1,0.1-0.3,0.8-0.3
	c0.2,0,0.6,0,1,0.1c4.7,0.5,5.3,3.7,8,4.7c0.6,0.2,1.1,0.3,1.7,0.3c1.6,0,3.5-1,11.8-2.2c0.7-0.1,1.3-0.1,1.8-0.1
	c1.9,0,2.5,0.6,2.5,1.5c0,2-2.9,5.4-4.6,7.8c7.2,2.6,15.7,5.3,19,6c2.3,0.5,6,0.9,9,0.9c2.9,0,5.1-0.4,4.6-1.5
	c-1-2.1,10.5-11.9,3-11.9c-0.5,0-1.1,0.1-1.8,0.1c-8.2,1.2-10.2,2.2-11.8,2.2c-0.5,0-1-0.1-1.7-0.3c-2.7-1-3.3-4.3-8-4.7
	c-0.4,0-0.7-0.1-1-0.1c-0.8,0-0.8,0.2-0.8,0.4c0,0.2,0.2,0.3-0.1,0.3c-0.4,0-1.8-0.4-5.8-1.6c-10.4-3.2-7.5-2.7-16.7-6
	c-9.2-3.3-18.2-5.4-29.3-8.2c-11.1-2.8-9.2-1.5-23.4-6C287,213.8,285.6,213.4,284.4,213"/>
<path class="st1" d="M286.7,165.7l14.4,7c0.7-1.1,1.4-2.3,2.2-3.5C292.9,167,286.7,165.7,286.7,165.7 M311,170.8
	c-0.7,1-1.6,2.3-2.6,3.7c13.6,3.4,28.6,8.4,41.2,12.7l3.3-6.8c-6.7-1.9-13.3-3.7-19.3-4.9c-5.8-1.2-11.3-2.4-16.2-3.4
	C315.2,171.6,313,171.2,311,170.8"/>
<path class="st1" d="M362.9,183.4c-1.9,2.2-3.7,4.4-5.4,6.5c8.8,3,15.8,5.4,19,6.1c9.4,2,35.9,4.4,42.7,5.4c6.8,1,28.2,8.8,39.8,8.8
	l0.2,0c1.3,0,2.4,0,3.4,0c7.7,0,6.8,0.5,20.1,2.8c0.2,0,0.3,0.1,0.5,0.1c-3.4-1.1-7.2-2.3-11.4-3.6c-8-2.1-15.5-4.5-19-5
	c-6.8-1-33.3-3.4-42.7-5.4C403.8,197.6,383.9,190,362.9,183.4 M488.4,214.6c4.7,2.3,5.7,6.1,5.7,8.8c0,2-0.5,3.5-0.5,3.5
	s-1.8,0.4-4.3,0.9c6.1,1.8,12.8,3.8,16.8,4.5c0.9,0.1,1.9,0.2,3,0.2c7.3,0,18.1-2.6,18.1-2.6s1.5-4.1-0.5-7.9
	c-2.4-1.3-4.7-2.5-7.4-2.5c-0.8,0-1.7,0.1-2.7,0.4c-1.4,0.4-2.7,0.6-4.3,0.6C507.8,220.5,501.6,218.8,488.4,214.6"/>
<path class="st2" d="M110.6,128.1c-0.4,0-0.8,0.1-1.3,0.4c-6.7,3.1-17.4,1.2-19.3,11.9L88,151.2c-17.7,30.7-39.7,68.1-55.9,95.7
	c2.1,0.2,4.6,0.8,7.6,1.9c1,0.4,2.4,0.9,4,1.4c7.2-11.2,15.6-24.5,23.7-37.4c-4.4-1.8-8-3.3-8-3.5c0,0,0,0,0.1,0h0
	c0.3,0,3.6,0.8,8.8,2.1c14.6-23.2,28.2-45.2,31.8-52.7C107.3,143.4,114.6,128.1,110.6,128.1 M27.2,255.2c-10.9,18.5-18.3,31-18.3,31
	s1.7,1.6,4.6,1.6c3.1,0,7.6-1.9,12.6-10.1c2.1-3.3,6.3-9.9,11.7-18.4C33.5,257.7,29.9,256.3,27.2,255.2"/>
<path class="st2" d="M170.9,134c-2.4,0-2.8,3.7-6.2,8.1c-3.5,4.6-2.7,6.4-11.8,22.3c-4.6,7.9-19.7,30.7-35.5,53.9
	c2.3,0.6,4.6,1.2,7,1.8c4.8-6.3,8.6-11.4,10.7-14.2c11.1-14.7,10.8-16.2,19.4-29.1c8.7-12.8,5.2-8.3,6.6-10.7
	c1.5-2.4,6.5-9.4,9.8-11.4c3.3-2,0,0,3-4.9c3-4.9-2-1.2-4.3-4c-0.9-1-1.1-1.3-0.9-1.3c0.1,0,0.2,0.1,0.5,0.1
	c0.2,0.1,0.5,0.1,0.8,0.1c0.4,0,0.9-0.1,1.4-0.6c1.7-1.6,2.3-2.6,4.7-6.5c2.4-3.9-2.5-3.6-5.1-3.8L170.9,134z M115.3,221.5
	L115.3,221.5c-0.4,0.6-0.8,1.1-1.2,1.7c2.2,0.6,4.5,1.2,6.7,1.7c0.4-0.5,0.7-1,1.1-1.5c-2.2-0.6-4-1.2-5.6-1.6
	C116.3,221.9,116,221.8,115.3,221.5"/>
<path class="st3" d="M117.4,218.3L117.4,218.3c-0.7,1.1-1.4,2.1-2.1,3.2c0.7,0.3,1.1,0.4,1.1,0.4c1.5,0.4,3.4,1,5.6,1.6
	c0.9-1.1,1.7-2.3,2.5-3.3C122,219.5,119.7,218.9,117.4,218.3"/>
<path class="st2" d="M111.2,227.4c-7.5,11-14.8,21.6-20.9,30.3c1.4,0.5,2.9,1,4.4,1.5c7.6-10,15.7-20.7,22.7-29.9
	C115.3,228.7,113.2,228.1,111.2,227.4"/>
<path class="st3" d="M90.3,257.8L90.3,257.8c-1.8,2.5-3.4,4.9-4.9,7c1.3,0.5,2.7,0.9,4.1,1.4c1.7-2.3,3.5-4.6,5.3-6.9
	C93.2,258.8,91.8,258.3,90.3,257.8"/>
<path class="st2" d="M78.1,275.1c-2,3.4-12.7,21.5-12.1,21.5l0.1,0c0.5-0.4,6.8-8.6,15.5-20.1C80.5,276,79.3,275.6,78.1,275.1"/>
<path class="st2" d="M271.9,85.2c-2,0-7.9,5.4-10.4,8.5c-2.9,3.6-11.2,15.9-15,23c-3.7,7.1-33.3,51.4-38.2,60.5
	c-0.9,1.7-2.8,4.7-5.2,8.6c2.1,0.7,4.4,1.4,6.8,2.2c1.5-2.8,3.6-6.7,8.5-14c8.3-12.3,7.6-10.1,14.6-19.2c7-9.1,12.8-16.3,18-24.6
	c5.1-8.3,3.1-6.1,9.3-15.1c2.8-4,3.5-4.8,3.7-4.8c0.1,0,0.1,0.1,0.1,0.2c0,0.1,0.1,0.2,0.2,0.2c0.2,0,0.6-0.2,1.4-1
	c3.4-3.3,1.9-6.2,3.4-8.7c1.5-2.4,2.1-1.4,11.7-6.9c9.5-5.6-7.7-6.1-8.2-8.5C272.4,85.4,272.2,85.2,271.9,85.2 M202,187.7L202,187.7
	c-0.9,1.4-1.8,2.9-2.8,4.5c2.5,0.7,4.9,1.5,7.3,2.2c0.1-0.3,0.3-0.6,0.6-1c0.5-0.9,1-1.7,1.4-2.6C206.3,189.7,204.1,188.7,202,187.7
	"/>
<path class="st3" d="M203.1,185.9L203.1,185.9c-0.4,0.6-0.7,1.2-1.1,1.8c2.1,1,4.3,2.1,6.5,3.1c0.4-0.8,0.9-1.7,1.4-2.7
	C207.4,187.3,205.2,186.6,203.1,185.9"/>
<path class="st2" d="M196.3,196.8c-4.3,6.9-9.2,15-14.1,23.4c1.8,0.5,3.7,1,5.6,1.4c2.7-3.9,5.4-7.7,7.9-11.1
	c3.9-5.4,6.3-8.7,7.8-10.9C201.1,198.7,198.7,197.8,196.3,196.8 M180.1,223.8c-1.8,3.1-3.6,6.3-5.3,9.4c1.4,0.4,2.8,0.7,4.2,1.1
	c2-2.9,4.1-6,6.2-9C183.4,224.8,181.7,224.3,180.1,223.8"/>
<path class="st3" d="M174.8,233.2L174.8,233.2c-0.9,1.7-1.9,3.4-2.8,5.1c1.3,0.3,2.4,0.7,3.5,1c1.1-1.6,2.2-3.3,3.4-5
	C177.6,234,176.2,233.6,174.8,233.2"/>
<path class="st2" d="M168.3,245.5c-2.5,5-4.7,9.8-6.5,14.1c0,0,3.7-5.5,9-13.3C170,246,169.2,245.7,168.3,245.5"/>
<path class="st2" d="M396.3,14.1c0,0-13.3,6.1-18.1,11.1c-4.7,5-12.6,17.7-17.3,22.7c-4.7,5-4.1,11.8-10.4,14.3
	c-6.3,2.4-9.9,8.2-28.9,36.3c-18.9,27.9-26.5,37.6-51.5,67.8c4,0.8,8.6,1.8,13.8,2.9c16.8-22,34.2-51.7,39.7-58.3
	c6.1-7.4,25.5-25.6,30.2-30.7c4.7-5.1,16.9-24.6,26-31.7c9.2-7.1,6.6-5.5,16.7-16.7C406.6,20.6,396.3,14.1,396.3,14.1 M268.1,170
	l-7.7,16c2.4,0.8,4.9,1.6,7.6,2.4c3-3.6,6.4-7.6,9.9-11.8c0.4-0.4,0.7-0.9,1.1-1.3L268.1,170z M259.3,188.1l-6.3,12.9
	c1.3,0.4,2.4,0.7,3.5,1c2.6-3.1,5.7-6.8,9.2-11C263.5,190.1,261.4,189.1,259.3,188.1 M249.9,207.5L249.9,207.5l-0.9,1.9
	c0.4,0.1,0.7,0.2,1.1,0.4c0.4-0.5,0.9-1.1,1.4-1.7C251,207.8,250.5,207.6,249.9,207.5"/>
<path class="st3" d="M253,201.1L253,201.1l-3.1,6.4c0.5,0.2,1.1,0.4,1.6,0.6c1.4-1.6,3-3.6,5-5.9C255.5,201.8,254.3,201.5,253,201.1
	"/>
<path class="st2" d="M30,246.8c-8.2,0-9.1,6-9.1,6s2.2,0.9,6.3,2.4c2.8,1.1,6.3,2.5,10.6,4.1c5.1,2,11.3,4.4,18.1,7.1
	c1.5-2.6,3.1-5.3,4.8-8.2c-4-1.6-6.3-2.4-6.3-2.4s0.1-0.7,0.5-1.5c-4.5-1.6-8.4-2.9-11.4-4c-1.6-0.6-3-1-4-1.4
	c-3-1.1-5.5-1.7-7.6-1.9C31.3,246.8,30.6,246.8,30,246.8"/>
<path class="st2" d="M71.4,262.3c-1.9,3-3.6,5.7-5.2,8.1c3.8,1.5,7.8,3.1,11.9,4.7c1.2,0.5,2.4,0.9,3.5,1.4
	c6.1,2.4,12.4,4.9,18.8,7.4c1.3-2.1,2.9-4.9,4.9-8.3C92,270.4,80.2,265.8,71.4,262.3 M115.3,279.5c-0.1,0.2-0.3,0.5-0.4,0.7
	c-1.8,3-3.6,5.1-5.3,6.6c-0.1,0.2-0.3,0.4-0.4,0.5c19.4,7.6,39.5,15.5,57.3,22.7l8.2,7.3c2.4,2.2,4.8,3,7.1,3
	c5.4,0,10.5-4.4,15.4-5.6c1.7-0.4,2.1-1.2,1.3-2.3c-13-5.2-27.2-10.8-41.3-16.4c-1.4,1.8-2.3,2.9-2.4,3l-0.1,0c0,0,0,0,0,0
	c0-0.2,0.6-1.5,1.6-3.3C142.4,290.1,128.3,284.6,115.3,279.5"/>
<path class="st3" d="M60.8,258.2L60.8,258.2c-1.7,2.9-3.3,5.7-4.8,8.2c3.3,1.3,6.7,2.6,10.3,4c1.6-2.4,3.3-5.2,5.2-8.1
	C67.1,260.7,63.5,259.3,60.8,258.2"/>
<path class="st3" d="M109.6,286.8c-0.2,0.2-0.3,0.3-0.5,0.5l0.1,0C109.4,287.1,109.5,287,109.6,286.8"/>
<path class="st3" d="M55,254.2L55,254.2c-0.4,0.9-0.5,1.5-0.5,1.5s2.3,0.9,6.3,2.4c2.8,1.1,6.4,2.5,10.6,4.1c8.8,3.5,20.6,8,34,13.3
	c0.6-1,1.2-2,1.8-3.1c-6-2.1-11.9-4.2-17.7-6.2c-1.4-0.5-2.7-1-4.1-1.4C74,260.8,63.4,257.1,55,254.2 M117.4,276.1
	c-0.8,1.3-1.5,2.4-2.1,3.4c13,5.1,27,10.6,41.1,16.1c0.7-1.2,1.5-2.7,2.4-4.3C148.3,287.2,133.3,281.8,117.4,276.1 M160.4,291.9
	c-1.2,1.6-2.3,2.9-3.1,4c14.2,5.6,28.3,11.2,41.3,16.4c-2.3-3.4-14.8-9.5-27.2-15.7C169.2,295.5,165.3,293.9,160.4,291.9"/>
<path class="st2" d="M59.5,209.3L59.5,209.3C59.4,209.3,59.4,209.3,59.5,209.3c-0.1,0.3,3.5,1.8,7.9,3.6c6.8,2.7,15.4,6.1,15.4,6.1
	c0.3,0.1,0.6,0.2,0.9,0.3c0.7-1.1,1.3-2.2,2-3.4c-6.8-1.8-12.8-3.3-17.3-4.4C63.1,210.1,59.8,209.3,59.5,209.3"/>
<path class="st2" d="M98.8,219.2L98.8,219.2c-0.8,1.2-1.6,2.5-2.3,3.7c4.4,1.3,9.4,2.8,14.8,4.5c2,0.6,4.1,1.3,6.2,1.9
	c4.1,1.3,8.4,2.6,12.8,4c1-1.7,2-3.4,3-5.1c-4.1-1.1-8.2-2.1-12.4-3.2c-2.2-0.6-4.5-1.2-6.7-1.7C108.9,221.9,103.8,220.5,98.8,219.2
	"/>
<path class="st2" d="M150.7,232.7L150.7,232.7c-1.4,1.9-2.9,3.8-4.3,5.7c7.5,2.4,14.9,4.8,21.9,7c0.8,0.3,1.7,0.5,2.5,0.8
	c5.2,1.7,10.1,3.3,14.6,4.8c1.4-2.1,2.9-4.3,4.5-6.5c-9.5-3.1-19.4-6.2-28.8-9.1C158.1,234.7,154.6,233.8,150.7,232.7"/>
<path class="st2" d="M195.2,246.3c-1.6,2.1-3.2,4.3-4.9,6.4c3,1,5.7,1.9,8.2,2.8c1.1-2.3,2.2-4.6,3.4-7
	C199.7,247.7,197.5,247,195.2,246.3 M204.4,249.2c-1.7,2.5-3.2,4.8-4.5,6.7c4.1,1.4,7.4,2.6,9.5,3.5c17,6.8,17.5,8.8,23.1,10.2
	c4.3,1.1,6.9,3,8.7,3c0.5,0,1-0.2,1.4-0.6c1.8-1.8,5.9-4.5,1.6-6.1c-4.3-1.6-5.4-2-7.7-2.2l-0.2,0c-0.7,0-1.2,0.3-1.5,0.7
	c-0.3,0.3-0.5,0.7-0.6,0.7c-0.1,0-0.1-0.4,0-1.6c0-1.8,1.6-2.8,2.5-3.5c-4.2-1.5-9.5-3.3-15.7-5.4c-2.5-0.6-4.8-1.3-6-1.8
	c-1.1-0.4-0.8-0.4-1.1-0.6C210.7,251.3,207.6,250.3,204.4,249.2"/>
<path class="st3" d="M85.6,215.8L85.6,215.8c-0.7,1.1-1.3,2.2-2,3.4c3.2,0.9,7.6,2.2,12.8,3.7c0.8-1.2,1.6-2.5,2.3-3.7
	C94.2,218,89.8,216.9,85.6,215.8"/>
<path class="st3" d="M145.9,231.5c-1.2,1.9-2.4,3.8-3.6,5.6c1.4,0.4,2.8,0.9,4.1,1.3c1.5-1.9,2.9-3.8,4.3-5.7
	C149.2,232.3,147.5,231.9,145.9,231.5"/>
<path class="st3" d="M201.9,248.4L201.9,248.4c-1.2,2.4-2.3,4.8-3.4,7.1c0.4,0.2,0.9,0.3,1.3,0.5c1.3-1.9,2.8-4.2,4.5-6.7
	C203.6,249,202.8,248.7,201.9,248.4"/>
<path class="st3" d="M161.1,235.5L161.1,235.5c9.4,2.9,19.2,6,28.8,9.1c0.1-0.2,0.2-0.3,0.3-0.5c-4.1-1.5-7.8-2.9-14.6-4.8
	c-1.1-0.3-2.2-0.6-3.5-1c-0.7-0.2-1.5-0.4-2.3-0.6C167.7,237.2,164.8,236.4,161.1,235.5 M195.4,246l-0.2,0.3
	c2.3,0.7,4.5,1.5,6.7,2.2c0.8,0.3,1.7,0.5,2.5,0.8c3.2,1,6.3,2,9.3,3c-0.5-0.3-2.2-0.9-10.7-3.7C200,247.6,197.5,246.8,195.4,246
	 M220.8,254.6L220.8,254.6c6.2,2.1,11.6,3.9,15.7,5.4c0.4-0.3,0.6-0.6,0.6-0.8c0-0.4-0.6-0.8-2.2-1.4c-4.1-1.5-2.9-2.1-3.8-2.1
	c-0.3,0-0.7,0.1-1.6,0.2c-0.3,0-0.7,0-1,0C226.4,255.8,223.5,255.3,220.8,254.6"/>
<path class="st2" d="M157.5,179.1c1.1,0.6,2.2,1.2,3.4,1.8c0.1-0.2,0.3-0.4,0.4-0.6C158.9,179.5,157.5,179.1,157.5,179.1
	 M175.1,184.7c-0.5,0.8-1,1.6-1.5,2.5l0.2,0.1c0.5-0.8,1.1-1.7,1.6-2.5L175.1,184.7z M183.3,187.3L183.3,187.3
	c-0.7,1.2-1.4,2.2-2,3.3c4.9,2.1,10,4.2,15,6.2c2.4,1,4.8,1.9,7.2,2.8c4.7,1.8,9.2,3.5,13.5,5.1c1.4-2.1,2.8-4.1,4.1-6.1
	c-1.9-0.5-4-1.2-6.6-1.9c-2.6-0.7-5.3-1.5-8.1-2.3c-2.4-0.7-4.8-1.4-7.3-2.2C193.8,190.6,188.4,188.9,183.3,187.3"/>
<path class="st2" d="M227.6,203.5c-0.9,1.2-1.9,2.5-3,4c0.1,0,0.3,0.1,0.4,0.1C225.9,206.3,226.7,204.9,227.6,203.5 M236.1,204
	L236.1,204c-1.1,1.5-2.5,3.5-4.3,6.1c6.2,2.3,11,4,13.3,5c3.7,1.6,13.8,5.1,25.2,9c1.5-2.6,3-5.1,4.4-7.6c-7.2-1.7-7.3-1.2-19.7-5.2
	c-1.8-0.6-3.4-1.1-4.8-1.6c-0.4-0.1-0.7-0.3-1.1-0.4C241.6,206.8,239,205.3,236.1,204"/>
<path class="st2" d="M280.3,218.8c-1.6,2.3-3.3,4.7-5,7.1c16.1,5.5,33.1,11.3,37.1,13.1c7.3,3.3,21.5,7.8,26,8.8
	c2.3,0.5,6,0.9,9,0.9c2.9,0,5.1-0.4,4.6-1.5c-0.2-0.5,0.2-1.4,1-2.5c-2.6-1-5.1-1.9-7-2.8C339,238.8,293.1,223.7,280.3,218.8"/>
<path class="st3" d="M175.4,184.8L175.4,184.8c-0.5,0.8-1.1,1.6-1.6,2.5c2.4,1.1,4.9,2.2,7.5,3.3c0.6-1,1.3-2.1,2-3.3
	C180.6,186.4,177.9,185.6,175.4,184.8"/>
<path class="st3" d="M229.3,201.1c-0.5,0.8-1.1,1.6-1.7,2.4c-0.8,1.4-1.7,2.8-2.6,4.2c2.4,0.9,4.6,1.7,6.7,2.4
	c1.9-2.6,3.3-4.6,4.3-6.1c-0.6-0.3-1.3-0.5-2-0.8C230.9,202.1,233.3,202.4,229.3,201.1"/>
<path class="st3" d="M280.8,218c-0.2,0.2-0.3,0.5-0.5,0.7c12.8,5,58.7,20,65.7,23.1c2,0.9,4.4,1.8,7,2.8c1.6-2.5,4.6-5.9,4.6-7.8
	c0-0.9-0.7-1.5-2.5-1.5c-0.5,0-1.1,0-1.8,0.1c-8.2,1.2-10.2,2.2-11.8,2.2c-0.5,0-1-0.1-1.7-0.3c-2.7-1-3.3-4.3-8-4.7
	c-0.4,0-0.7-0.1-1-0.1c-0.7,0-0.8,0.1-0.8,0.3c0,0,0,0.1,0,0.1c0,0.1,0.1,0.2,0.1,0.3c0,0.1,0,0.1-0.2,0.1c-0.4,0-1.8-0.4-5.7-1.6
	c-10.4-3.2-7.5-2.7-16.7-6C299.1,222.5,290.8,220.5,280.8,218"/>
<path class="st2" d="M261.2,164.4L261.2,164.4c-0.5,0.5-0.9,1.1-1.3,1.6l8.2,4l10.9,5.3l16,7.8c0.9-1.4,1.6-2.6,2-3.5
	c0.8-1.5,2.2-3.9,4.1-6.9c-0.4-0.1-0.7-0.2-1.1-0.2c-5.8-1.2-11.3-2.4-16.2-3.4c-5.2-1.1-9.8-2.1-13.8-2.9
	C266.6,165.5,263.7,164.9,261.2,164.4"/>
<path class="st3" d="M254.1,162.9l-0.1,0.2l6,2.9c0.4-0.5,0.9-1,1.3-1.6C257.7,163.7,255.3,163.2,254.1,162.9"/>
<path class="st2" d="M312.6,178.2c-0.4,0.4-0.7,0.9-1.1,1.3c-2.1,2.5-4,4.8-5.9,7.1c17.1,3.7,28.8,6.3,40,9.2l2.1-4.4
	c-4.4-1-9.1-2-14.3-3.1L312.6,178.2z M354.9,193c-1.3,1.5-2.5,3-3.7,4.3c9.3,2.5,18.8,5.4,31.5,9.5c25.5,8.1,34.8,11.3,40.8,11.3
	c1.6,0,3-0.2,4.3-0.6c1-0.3,1.8-0.4,2.7-0.4c4.9,0,8.5,4.3,14.3,5.2c6.8,1,20.8,6.1,27.6,7.1c0.9,0.1,1.9,0.2,3,0.2
	c4.4,0,9.9-0.9,13.7-1.7c-4.1-1.2-8.1-2.3-10.8-2.7c-5.8-0.9-9.4-5.1-14.4-5.1c-0.8,0-1.7,0.1-2.7,0.4c-1.4,0.4-2.7,0.6-4.3,0.6
	c-6,0-15.3-3.2-40.8-11.3C390.9,201.7,378.1,198.2,354.9,193"/>
<path class="st3" d="M307.5,175.8c-0.1,0.2-0.3,0.4-0.4,0.6c-2.7,4-4.5,6.9-5.9,9.3c1.5,0.3,2.9,0.6,4.3,0.9
	c1.9-2.3,3.9-4.6,5.9-7.1c0.4-0.4,0.7-0.9,1.1-1.3L307.5,175.8z"/>
<path class="st3" d="M308.4,174.5c-0.3,0.4-0.6,0.9-0.9,1.3l5,2.4l20.7,10.1c5.2,1.1,10,2.1,14.3,3.1l2-4.2
	C337,182.9,322,177.9,308.4,174.5 M357.5,189.9c-0.9,1.1-1.8,2.1-2.6,3.1c23.2,5.2,36,8.7,61.4,16.8c25.5,8.1,34.8,11.3,40.8,11.3
	c1.6,0,3-0.2,4.3-0.6c1-0.3,1.8-0.4,2.7-0.4c5,0,8.5,4.3,14.4,5.1c2.8,0.4,6.7,1.5,10.8,2.7c2.6-0.5,4.3-0.9,4.3-0.9
	s0.5-1.5,0.5-3.5c0-2.7-1-6.5-5.7-8.8c-1.6-0.5-3.3-1-5.1-1.6c-0.1,0-0.3-0.1-0.5-0.1c-13.3-2.3-12.4-2.8-20.1-2.8c-1,0-2.1,0-3.4,0
	l-0.2,0c-11.6,0-33-7.8-39.8-8.8c-6.8-1-33.3-3.5-42.7-5.4C373.3,195.3,366.3,192.9,357.5,189.9"/>
<path class="st4" d="M199.3,130.5c-0.4,0-0.8,0.1-1.3,0.4c-6.7,3.1-17.4,1.1-19.3,11.9l-1.9,10.8c-4.9,8.5-10.2,17.5-15.5,26.7
	c3.1,1,8.1,2.6,13.9,4.5c6.6-10.8,11.7-19.5,13.7-23.7C196.1,145.8,203.4,130.5,199.3,130.5 M160.9,180.9L160.9,180.9
	c-8.2,14.1-16.7,28.6-24.7,42.3c3.8,1,7.6,2,11.5,3c2.6-3.8,5.1-7.5,7.6-11.3c-4-1.6-7.2-3-7.2-3.2c0,0,0,0,0.1,0h0
	c0.3,0,3.2,0.7,8,1.9c5.1-7.6,10.1-15,14.5-21.7c1-1.6,2-3.2,2.9-4.7C169.1,185.1,164.8,183,160.9,180.9"/>
<path class="st4" d="M133.9,227.1L133.9,227.1c-0.2,0.4-0.4,0.8-0.6,1.1c3.8,1,7.6,2,11.1,2.9c0.2-0.2,0.3-0.5,0.5-0.7
	C140.9,229.2,137.3,228.1,133.9,227.1"/>
<path class="st4" d="M130.2,233.3L130.2,233.3c-3.3,5.6-6.4,10.9-9.4,15.9c2.1,0.2,4.6,0.8,7.6,1.9c0.5,0.2,1.1,0.4,1.7,0.6
	c3.3-4.8,6.8-9.9,10.4-15.2C137.1,235.5,133.6,234.4,130.2,233.3"/>
<path class="st1" d="M170.8,191.9c-4.4,6.7-9.4,14.1-14.5,21.7c0.3,0.1,0.5,0.1,0.8,0.2C161.8,206.2,166.5,198.7,170.8,191.9"/>
<path class="st1" d="M155.3,214.9L155.3,214.9c-2.5,3.7-5.1,7.5-7.6,11.3c0.4,0.1,0.9,0.2,1.3,0.3c2.4-3.7,4.8-7.5,7.1-11.3
	C155.9,215.1,155.6,215,155.3,214.9"/>
<path class="st1" d="M144.8,230.4L144.8,230.4c-0.2,0.2-0.3,0.5-0.5,0.7c0.5,0.1,1,0.3,1.5,0.4c0.1-0.2,0.3-0.4,0.4-0.6
	C145.8,230.7,145.3,230.6,144.8,230.4"/>
<path class="st1" d="M140.6,236.6L140.6,236.6c-3.6,5.3-7.1,10.4-10.4,15.2c0.7,0.3,1.4,0.5,2.3,0.8c3.1-4.9,6.4-10.1,9.9-15.5
	C141.7,237,141.1,236.8,140.6,236.6"/>
<path class="st1" d="M136.2,223.2L136.2,223.2c-0.8,1.3-1.5,2.6-2.3,3.9c3.4,1,7.1,2.1,10.9,3.3c0.5,0.2,1,0.3,1.5,0.5
	c0.9-1.4,1.8-2.9,2.8-4.3c-0.4-0.1-0.9-0.2-1.3-0.3C143.8,225.2,140,224.2,136.2,223.2"/>
<path class="st5" d="M133.2,228.2L133.2,228.2c-1,1.7-2,3.5-3,5.1c3.4,1.1,6.9,2.2,10.4,3.3c1.2-1.8,2.5-3.7,3.8-5.5
	C140.8,230.2,137.1,229.2,133.2,228.2"/>
<path class="st3" d="M144.3,231.1L144.3,231.1c-1.3,1.9-2.5,3.7-3.8,5.5c0.6,0.2,1.1,0.4,1.7,0.5c1.2-1.9,2.4-3.8,3.6-5.6
	C145.4,231.4,144.9,231.2,144.3,231.1"/>
<path class="st5" d="M161.2,180.3L161.2,180.3c-0.1,0.2-0.2,0.4-0.4,0.6c3.9,2.1,8.2,4.2,12.8,6.3c0.5-0.8,1-1.7,1.5-2.5
	C169.3,182.9,164.4,181.3,161.2,180.3"/>
<path class="st4" d="M116,257.6c-1.6,2.6-3,5.2-4.4,7.5c2.4,0.9,5,1.7,7.5,2.6c1.5-2.2,3.2-4.5,4.9-7.1
	C120.8,259.5,118.1,258.5,116,257.6 M100.5,283.9L100.5,283.9c-1.8,3.1-2.8,4.8-2.8,4.8s1.7,1.6,4.6,1.6c0.8,0,1.7-0.1,2.6-0.4
	c0.6-1.1,1.3-2.3,2-3.4C104.7,285.5,102.6,284.7,100.5,283.9"/>
<path class="st1" d="M123.9,260.7L123.9,260.7c-1.8,2.5-3.4,4.9-4.9,7.1c1,0.4,2,0.7,3.1,1.1c1.4-2.2,2.9-4.5,4.5-7.1
	C125.7,261.4,124.8,261.1,123.9,260.7 M106.8,286.4L106.8,286.4c-0.6,1.1-1.3,2.3-2,3.4c1.3-0.4,2.7-1.2,4.2-2.5
	C108.4,287,107.6,286.7,106.8,286.4"/>
<path class="st1" d="M111.5,265.1L111.5,265.1c-1.5,2.6-3,5.1-4.3,7.3c3.4,1.2,6.9,2.4,10.2,3.6c1.3-2,2.8-4.5,4.6-7.3
	c-1-0.4-2.1-0.7-3.1-1.1C116.5,266.9,113.9,266,111.5,265.1"/>
<path class="st5" d="M105.4,275.6L105.4,275.6c-2,3.4-3.6,6.2-4.9,8.3c2.1,0.8,4.2,1.7,6.4,2.5c2.1-3.7,4.1-7,4.9-8.3
	C109.6,277.2,107.4,276.4,105.4,275.6"/>
<path class="st5" d="M115.2,279.4c-2,2.6-3.9,5.1-5.6,7.3c1.7-1.5,3.4-3.7,5.3-6.6C115,279.9,115.2,279.7,115.2,279.4L115.2,279.4z"
	/>
<path class="st3" d="M111.7,278.1L111.7,278.1c-0.8,1.3-2.7,4.6-4.9,8.3c0.8,0.3,1.5,0.6,2.3,0.9c0.2-0.2,0.3-0.3,0.5-0.5
	c1.7-2.2,3.6-4.7,5.6-7.3C114.1,279,112.9,278.5,111.7,278.1"/>
<path class="st3" d="M107.2,272.5L107.2,272.5c-0.6,1.1-1.3,2.1-1.8,3.1c2.1,0.8,4.2,1.6,6.3,2.5c1.2,0.5,2.4,0.9,3.5,1.4l0.1,0
	c0.6-0.9,1.3-2.1,2.1-3.4C114.1,274.9,110.6,273.7,107.2,272.5"/>
<path class="st4" d="M259.7,136.3c-2.4,0-2.8,3.7-6.2,8.2c-3.5,4.6-2.6,6.4-11.8,22.3c-2.7,4.6-8.9,14.2-16.7,26
	c2.6,0.8,5.2,1.6,7.8,2.4c4.4-7,7.7-12.4,9.1-14.9c2.5-4.5,11-17.7,19.4-30.7c-0.9-0.1-2-0.3-2.7-1.2c-0.9-1-1.1-1.3-0.9-1.3
	c0.1,0,0.2,0.1,0.5,0.1c0.2,0.1,0.5,0.1,0.8,0.1c0.4,0,0.9-0.1,1.4-0.6c1.7-1.6,2.3-2.6,4.7-6.5c2.4-3.9-2.5-3.6-5-3.8L259.7,136.3z
	 M222.3,196.7L222.3,196.7c-0.4,0.6-0.8,1.2-1.3,1.9c4,1.2,6.4,1.9,8,2.4c0.3-0.4,0.5-0.8,0.8-1.3
	C227.4,198.8,224.9,197.8,222.3,196.7"/>
<path class="st4" d="M217,204.7L217,204.7c-4.5,6.8-9.3,13.8-14.1,20.9c2.2,0.6,4.5,1.2,6.7,1.7c6.5-8.5,11.7-15.4,14.4-19
	c0.2-0.3,0.5-0.6,0.7-0.8C222.2,206.6,219.6,205.7,217,204.7"/>
<path class="st1" d="M261.2,149.5L261.2,149.5c-8.4,13-16.9,26.2-19.4,30.7c-1.4,2.5-4.8,7.9-9.1,14.9c0.2,0.1,0.3,0.1,0.5,0.2
	c3-4.8,5-8.4,10.1-16c8.6-12.8,5.1-8.3,6.6-10.7c0.7-1.1,2.2-3.3,4-5.5l-0.8-0.4c0,0,0.3,0.1,0.9,0.2c1.9-2.4,4-4.7,5.7-5.7
	c1.4-0.9,1.6-1,1.6-1.2c0-0.1,0-0.2,0-0.3c0-0.4,0.2-1.3,1.4-3.3c0.7-1.1,1-1.7,1-2.1C263.7,149.3,262.6,149.6,261.2,149.5"/>
<path class="st1" d="M229.9,199.8L229.9,199.8c-0.3,0.4-0.5,0.8-0.8,1.3l0.2,0.1c0.3-0.4,0.6-0.8,0.8-1.2L229.9,199.8z"/>
<path class="st1" d="M225,192.8L225,192.8c-0.9,1.3-1.7,2.6-2.6,3.9c2.5,1,5,2.1,7.5,3.1l0.3,0.1c1.2-1.7,2.2-3.2,3.1-4.6
	c-0.2-0.1-0.3-0.1-0.5-0.2C230.2,194.4,227.5,193.6,225,192.8"/>
<path class="st5" d="M221.1,198.6L221.1,198.6c-1.3,2-2.7,4.1-4.1,6.1c2.7,1,5.2,1.9,7.6,2.8c1.1-1.5,2.1-2.8,3-4
	c0.5-0.8,1-1.7,1.5-2.5C227.5,200.5,225.1,199.8,221.1,198.6"/>
<path class="st3" d="M229.1,201L229.1,201c-0.5,0.8-1,1.6-1.5,2.5c0.6-0.9,1.2-1.7,1.7-2.4L229.1,201z"/>
<path class="st3" d="M253.2,162.7L253.2,162.7l0.8,0.4l0.1-0.2C253.5,162.8,253.2,162.7,253.2,162.7"/>
<path class="st4" d="M200,229.8c-1.9,2.8-3.9,5.7-5.8,8.5c2.2,0.6,4.2,1.1,5.9,1.5c2.1-2.8,4.2-5.5,6.1-8.1
	C204.1,231.1,202,230.5,200,229.8 M185.4,251.1L185.4,251.1c-4.2,6.1-8,11.6-11.3,16.2c1.3,0.5,2.7,0.9,4.1,1.4
	c3.9-5.1,8-10.5,12.1-15.9C188.8,252.2,187.1,251.6,185.4,251.1"/>
<path class="st1" d="M194.2,238.3L194.2,238.3c-1.3,2-2.7,3.9-4,5.8c1.6,0.6,3.3,1.2,5.2,1.9c1.6-2.1,3.1-4.1,4.7-6.2
	C198.4,239.4,196.4,238.9,194.2,238.3"/>
<path class="st5" d="M189.9,244.6L189.9,244.6c-1.5,2.2-3,4.4-4.5,6.5c1.7,0.6,3.3,1.1,4.9,1.7c1.6-2.2,3.3-4.3,4.9-6.4
	C193.5,245.7,191.7,245.1,189.9,244.6"/>
<path class="st3" d="M190.2,244.1L190.2,244.1c-0.1,0.2-0.2,0.3-0.3,0.5c1.8,0.6,3.6,1.1,5.3,1.7l0.2-0.3
	C193.5,245.3,191.8,244.7,190.2,244.1"/>
<path class="st4" d="M166.9,277.5c-0.6,1-1.9,3.3-3.5,6c0.9,0.3,1.9,0.7,2.8,1c1.3-1.8,2.8-3.6,4.3-5.6
	C169.2,278.4,168,277.9,166.9,277.5"/>
<path class="st1" d="M163.4,283.5L163.4,283.5c-1.4,2.5-3.1,5.3-4.5,7.8c0.5,0.2,1.1,0.4,1.6,0.6c1.6-2.1,3.6-4.6,5.7-7.5
	C165.2,284.2,164.3,283.8,163.4,283.5"/>
<path class="st5" d="M156.4,295.6L156.4,295.6c-1,1.8-1.6,3.1-1.6,3.3c0,0,0,0,0,0l0.1,0c0.1-0.1,1-1.2,2.4-3
	C157,295.8,156.7,295.7,156.4,295.6"/>
<path class="st3" d="M158.8,291.3L158.8,291.3c-0.9,1.6-1.7,3-2.4,4.3c0.3,0.1,0.6,0.2,0.9,0.3c0.8-1.1,1.9-2.4,3.1-4
	C159.9,291.7,159.4,291.5,158.8,291.3"/>
<path class="st4" d="M360.7,87.6c-2,0-7.9,5.4-10.4,8.5c-2.9,3.6-11.3,15.9-15,23c-2.9,5.5-21.4,33.6-31.9,50l0.2,0
	c25-30.2,32.6-39.8,51.5-67.8c3.1-4.6,5.8-8.6,8.2-12.1c-1.1-0.4-1.9-0.8-2-1.3C361.2,87.8,361,87.6,360.7,87.6 M301.2,172.7
	L301.2,172.7L301.2,172.7c0.1,0.1,0.2,0.1,0.3,0.1L301.2,172.7z"/>
<path class="st4" d="M295,183.1L295,183.1c-1.7,2.9-4.2,6.8-7.1,11.5c0.9,0.3,1.9,0.6,2.8,0.8l5.6-11.6L295,183.1z"/>
<path class="st1" d="M363.3,89.4L363.3,89.4c-2.4,3.5-5.1,7.5-8.2,12.1c-18.9,27.9-26.5,37.6-51.5,67.8c2.3,0.5,4.8,1,7.4,1.5
	c4.4-6.2,5-6.2,10.7-13.5c7-9.1,12.8-16.3,18-24.6c5.1-8.3,3.1-6.1,9.4-15.1c2.8-4,3.5-4.9,3.7-4.9c0.1,0,0.1,0.1,0.1,0.2
	c0,0.1,0.1,0.2,0.2,0.2c0.2,0,0.6-0.2,1.4-1c3.4-3.3,1.9-6.2,3.4-8.7c1.5-2.4,2.2-1.4,11.7-6.9c2.1-1.2,2.9-2.2,2.9-3
	C372.4,91.5,366.5,90.5,363.3,89.4"/>
<path class="st1" d="M296.4,183.8L296.4,183.8l-5.6,11.6c1.5,0.5,3,0.9,4.4,1.3c0.1-0.3,0.3-0.6,0.6-1c1.8-3,2.6-5.1,5.4-10
	c-0.5-0.1-1-0.2-1.5-0.3L296.4,183.8z"/>
<path class="st1" d="M303.4,169.2L303.4,169.2c-0.8,1.2-1.5,2.4-2.2,3.5l0.3,0.1c2.3,0.5,4.6,1.1,7,1.7c1-1.5,1.8-2.7,2.6-3.7
	c-2.6-0.6-5.1-1.1-7.4-1.5L303.4,169.2z"/>
<path class="st5" d="M301.2,172.8L301.2,172.8c-1.9,3-3.3,5.4-4.1,6.9c-0.5,0.9-1.2,2-2,3.5l1.4,0.7l5.2-10.8l-0.2-0.1
	C301.4,172.8,301.3,172.8,301.2,172.8"/>
<path class="st3" d="M301.7,172.9L301.7,172.9l-5.2,10.8l3.3,1.6c0.5,0.1,1,0.2,1.5,0.3c1.4-2.3,3.2-5.3,5.9-9.3
	c0.1-0.2,0.3-0.4,0.4-0.6L301.7,172.9z"/>
<path class="st3" d="M301.5,172.8l0.2,0.1l5.9,2.9c0.3-0.5,0.6-0.9,0.9-1.3C306.1,173.9,303.7,173.3,301.5,172.8"/>
<path class="st4" d="M285.1,199.2c-2.2,3.6-4.6,7.4-7,11.5c1.3,0.5,2.8,1.1,4.5,1.7l5.7-11.9C287.2,200.1,286.2,199.6,285.1,199.2
	 M290.2,204.9c-2.8,3.3-5,5.9-6.6,7.9c0.2,0.1,0.5,0.2,0.8,0.3l0,0C286.9,209.5,288.8,206.9,290.2,204.9 M274.6,216.5L274.6,216.5
	L274.6,216.5c0.1,0,0.2,0.1,0.3,0.1L274.6,216.5z"/>
<path class="st4" d="M270.1,224.1L270.1,224.1c-3.2,5.5-6.4,11.1-9.3,16.6c1.3,0.3,2.4,0.7,3.5,1c3.4-5,7.2-10.5,10.9-15.8
	C273.5,225.3,271.8,224.7,270.1,224.1"/>
<path class="st1" d="M288.3,200.5L288.3,200.5l-5.7,11.9c0.3,0.1,0.7,0.3,1.1,0.4c1.6-1.9,3.8-4.6,6.6-7.9c0.8-1.1,1.4-2.1,2-2.9
	C290.9,201.5,289.6,201,288.3,200.5"/>
<path class="st1" d="M278.1,210.7L278.1,210.7c-1.2,1.9-2.3,3.8-3.5,5.8l0.3,0.1c1,0.2,2.1,0.5,3.4,0.8c0.9,0.2,1.7,0.4,2.6,0.6
	c1.2-1.7,2.4-3.4,3.6-5.1c-0.3-0.1-0.5-0.2-0.8-0.3c-0.4-0.1-0.7-0.3-1.1-0.4C280.8,211.7,279.3,211.2,278.1,210.7"/>
<path class="st5" d="M274.6,216.5L274.6,216.5c-1.5,2.5-3,5-4.4,7.6c1.7,0.6,3.4,1.2,5.2,1.8c1.7-2.4,3.4-4.8,5-7.1
	c-0.7-0.3-1.3-0.5-1.8-0.7c-0.9-0.4-2.1-0.9-3.7-1.5C274.7,216.5,274.7,216.5,274.6,216.5"/>
<path class="st3" d="M274.8,216.6L274.8,216.6c1.6,0.6,2.8,1.1,3.7,1.5c0.5,0.2,1.1,0.4,1.8,0.7c0.2-0.2,0.3-0.5,0.5-0.7
	c-0.9-0.2-1.7-0.4-2.6-0.6C276.9,217.1,275.8,216.8,274.8,216.6"/>
<path class="st4" d="M257.1,247.9c-1.6,3.2-3.1,6.3-4.4,9.3c0.3,0.1,0.7,0.2,1,0.3c1.5-2.3,3.6-5.3,5.9-8.7
	C258.8,248.4,258,248.1,257.1,247.9"/>
<path class="st1" d="M252.7,257.1L252.7,257.1c-0.7,1.7-1.4,3.3-2.1,4.9c0,0,1.1-1.7,3.1-4.6C253.4,257.3,253,257.2,252.7,257.1"/>
<path class="st4" d="M485.1,16.5c0,0-13.3,6.1-18.1,11.1c-4.7,5-12.6,17.7-17.3,22.8c-4.7,5-4.1,11.8-10.4,14.2
	c-6.3,2.4-9.9,8.2-28.9,36.2c-18.9,27.9-26.5,37.6-51.6,67.8c4,0.8,8.6,1.8,13.8,2.9c16.8-22,34.2-51.7,39.7-58.3
	c6.1-7.3,25.5-25.6,30.2-30.7c4.7-5,16.9-24.6,26-31.7c9.2-7.1,6.6-5.5,16.8-16.7C495.4,23,485.1,16.5,485.1,16.5 M356.8,172.4
	l-3.9,8.1c3.3,1,6.7,2,10,3c1.2-1.4,2.5-2.9,3.7-4.5c0.4-0.4,0.7-0.9,1.1-1.3L356.8,172.4z M345.5,195.8L345.5,195.8l-7.7,15.9
	c0.3,0.1,0.7,0.2,1.1,0.4c2.6-3.1,6.9-8.2,12.4-14.8C349.3,196.9,347.4,196.3,345.5,195.8"/>
<path class="st1" d="M352.9,180.4L352.9,180.4l-3.3,6.8c2.7,0.9,5.4,1.8,7.8,2.7c1.7-2.1,3.5-4.2,5.4-6.5
	C359.6,182.4,356.2,181.4,352.9,180.4"/>
<path class="st5" d="M347.6,191.4L347.6,191.4l-2.1,4.4c1.9,0.5,3.8,1,5.7,1.5c1.2-1.4,2.4-2.8,3.7-4.3
	C352.6,192.5,350.2,192,347.6,191.4"/>
<path class="st3" d="M349.7,187.2L349.7,187.2l-2,4.2c2.5,0.6,4.9,1.1,7.3,1.6c0.8-1,1.7-2.1,2.6-3.1
	C355,189,352.4,188.1,349.7,187.2"/>
<path class="st4" d="M118.8,249.2c-8.2,0-9.1,6-9.1,6s2.2,0.9,6.3,2.4c2.2,0.8,4.8,1.9,8,3.1c1.9-2.8,4-5.8,6.2-8.9
	c-0.6-0.2-1.2-0.4-1.7-0.6c-3-1.1-5.5-1.7-7.6-1.9C120.1,249.2,119.4,249.2,118.8,249.2"/>
<path class="st4" d="M135,253.5L135,253.5c-2.3,3-4.5,6-6.8,8.9c10.1,3.9,23.5,9.2,38.7,15.1c1.2,0.5,2.4,0.9,3.6,1.4
	c26.9,10.5,58.3,22.9,84.9,33.5l8.2,7.3c2.4,2.2,4.8,3,7.1,3c5.4,0,10.5-4.4,15.4-5.6c7.1-1.8-9.4-9.9-25.8-18
	c-9.8-4.8-48.6-18.7-82-30.4c-1.4-0.5-2.7-1-4.1-1.4C158.2,261.6,143.8,256.6,135,253.5"/>
<path class="st1" d="M130.1,251.8c-2.2,3.1-4.3,6.1-6.2,8.9c0.9,0.3,1.7,0.7,2.6,1c0.5,0.2,1.1,0.4,1.6,0.6c2.2-2.9,4.5-5.9,6.8-8.9
	c-0.9-0.3-1.8-0.6-2.6-0.9C131.6,252.3,130.8,252,130.1,251.8"/>
<path class="st4" d="M148.2,211.7L148.2,211.7C148.2,211.7,148.2,211.7,148.2,211.7c-0.1,0.2,3.1,1.6,7.1,3.2
	c0.3-0.5,0.6-0.9,0.9-1.3C151.5,212.4,148.6,211.7,148.2,211.7"/>
<path class="st4" d="M163.8,215.5L163.8,215.5c-0.5,0.7-1.1,1.4-1.6,2.2c5,2,9.4,3.7,9.4,3.7c2.2,0.6,5.1,1.5,8.6,2.5
	c0.7-1.2,1.4-2.4,2.1-3.6C175.4,218.5,169.1,216.8,163.8,215.5"/>
<path class="st4" d="M187.8,221.7L187.8,221.7c-0.9,1.2-1.7,2.4-2.6,3.7c4.4,1.3,9.4,2.8,14.8,4.5c2,0.6,4.1,1.3,6.2,1.9
	c1.3,0.4,2.6,0.8,3.9,1.2c0.9-1.6,1.8-3.2,2.7-4.8c-1.1-0.3-2.2-0.6-3.3-0.9c-2.2-0.6-4.5-1.2-6.7-1.7
	C197.8,224.3,192.7,222.9,187.8,221.7"/>
<path class="st4" d="M217.9,229.5L217.9,229.5c-1.1,1.6-2.3,3.2-3.4,4.8c13.9,4.3,28.9,9.1,42.5,13.5c0.8,0.3,1.7,0.5,2.5,0.8
	c17.7,5.7,32.5,10.7,38.5,13.1c17,6.8,17.5,8.8,23.1,10.2c4.3,1.1,6.9,3,8.7,3c0.5,0,1-0.2,1.4-0.6c1.9-1.8,5.9-4.6,1.6-6.1
	c-4.3-1.6-5.4-2-7.7-2.2l-0.2,0c-0.7,0-1.2,0.4-1.5,0.7c-0.3,0.3-0.5,0.7-0.6,0.7c-0.1,0-0.1-0.4,0-1.6c0.1-3.6,6.3-3.8,0.9-5.8
	c-4.1-1.5-2.9-2.1-3.8-2.1c-0.3,0-0.8,0.1-1.6,0.2c-0.3,0-0.7,0.1-1,0.1c-4.1,0-11.3-2.1-13.7-3c-2.7-1,2.9,0.4-11.9-4.3
	c-12.9-4.2-15-5.8-27.4-9.3c-1.1-0.3-2.2-0.6-3.5-1c-0.7-0.2-1.5-0.4-2.3-0.6C252,238.4,235.9,234.2,217.9,229.5"/>
<path class="st1" d="M156.2,213.6c-0.3,0.4-0.6,0.9-0.9,1.3c0.3,0.1,0.5,0.2,0.8,0.3c1.9,0.8,4,1.6,6,2.4c0.6-0.8,1.1-1.5,1.6-2.2
	c-2.5-0.6-4.7-1.2-6.7-1.7C156.8,213.7,156.5,213.6,156.2,213.6"/>
<path class="st1" d="M212.9,228.2L212.9,228.2c-0.9,1.6-1.8,3.2-2.7,4.8c1.5,0.5,2.9,0.9,4.4,1.4c1.1-1.6,2.2-3.2,3.4-4.8
	C216.3,229.1,214.6,228.6,212.9,228.2"/>
<path class="st5" d="M182.2,220.2L182.2,220.2c-0.7,1.2-1.4,2.4-2.1,3.6c1.6,0.5,3.3,1,5.1,1.5c0.9-1.2,1.7-2.4,2.6-3.7
	C185.9,221.2,184,220.7,182.2,220.2"/>
<path class="st4" d="M248.5,182.2L248.5,182.2c-0.1,0.1-0.2,0.3-0.2,0.4c3.4,1.8,7.1,3.7,11,5.6l1-2.2
	C255.1,184.3,250.9,183,248.5,182.2"/>
<path class="st4" d="M268,188.4L268,188.4c-0.8,0.9-1.5,1.8-2.2,2.7c6.2,2.8,12.8,5.5,19.3,8.1c1.1,0.4,2.2,0.9,3.3,1.3l2.4-5.1
	c-0.9-0.3-1.9-0.6-2.8-0.8C281.1,192.5,274.2,190.4,268,188.4"/>
<path class="st4" d="M296.7,197.2L296.7,197.2c-1.5,1.8-2.9,3.4-4.2,5c18.9,7.3,36.1,13.1,41.2,15.3c9.5,4.1,60.1,20.6,67.5,23.9
	c7.3,3.3,21.5,7.8,26,8.8c2.3,0.5,6,0.9,9,0.9c2.9,0,5.1-0.4,4.6-1.5c-1-2,10.5-11.9,3-11.9c-0.5,0-1.1,0-1.8,0.1
	c-8.2,1.2-10.2,2.2-11.8,2.2c-0.5,0-1-0.1-1.7-0.3c-2.7-1-3.3-4.3-8-4.8c-0.4,0-0.7-0.1-0.9-0.1c-0.8,0-0.8,0.2-0.8,0.4
	c0,0.2,0.2,0.4-0.1,0.4c-0.4,0-1.8-0.4-5.8-1.6c-10.4-3.2-7.5-2.8-16.7-6.1c-9.1-3.3-18.1-5.4-29.3-8.2c-11.2-2.9-9.2-1.5-23.4-6.1
	c-1.8-0.6-3.3-1.1-4.8-1.6c-0.4-0.1-0.7-0.3-1.1-0.4c-9-3.2-10.9-4.7-15-6.2c-4.8-1.8,3.6,0.1-19.6-6.5
	C301.1,198.5,298.9,197.8,296.7,197.2"/>
<path class="st1" d="M246.3,181.5c0.6,0.4,1.3,0.7,2,1.1c0.1-0.1,0.2-0.3,0.2-0.4C247.1,181.7,246.3,181.5,246.3,181.5"/>
<path class="st1" d="M290.8,195.4l-2.4,5.1c1.3,0.5,2.6,1,3.9,1.5c0.1,0,0.2,0.1,0.3,0.1c1.3-1.5,2.7-3.2,4.2-5
	c-0.5-0.1-1-0.3-1.5-0.4C293.7,196.3,292.3,195.9,290.8,195.4"/>
<path class="st5" d="M260.3,186L260.3,186l-1,2.2c2.1,1,4.2,2,6.4,3c0.7-0.9,1.5-1.8,2.2-2.7C265.3,187.5,262.7,186.7,260.3,186"/>
<path class="st4" d="M341.9,165.1l14.9,7.2l10.9,5.3l20.7,10.1c38.8,8.3,50.7,11.2,83,21.5c0.1,0,0.3,0.1,0.4,0.1
	c7.4,2,15.2,3.8,20.8,3.8h0.2c1.3,0,2.4,0,3.4,0c7.7,0,6.8,0.5,20.1,2.8c6,1,8.9,3.5,10.3,6.1c2.1,1.1,4.3,2.2,7,2.6
	c6.8,1,20.8,6.1,27.6,7.2c0.9,0.1,1.9,0.2,3,0.2c7.3,0,18.1-2.6,18.1-2.6s4.1-11.5-10.8-14c-13.3-2.3-12.4-2.8-20.1-2.8
	c-1,0-2.1,0-3.4,0l-0.2,0c-11.6,0-33-7.8-39.8-8.8c-6.8-1-33.3-3.5-42.7-5.4c-9.4-2-48.4-17.5-76.5-23.4c-5.8-1.2-11.3-2.4-16.2-3.4
	c-5.2-1.1-9.8-2-13.8-2.9C348.1,166.4,341.9,165.1,341.9,165.1"/>
<path class="st1" d="M471.8,209.4c4.2,1.4,8,2.6,11.4,3.6c2.1,0.4,3.7,0.9,5.1,1.6c13.2,4.2,19.5,5.9,23.9,5.9c1.6,0,3-0.2,4.3-0.6
	c0.9-0.3,1.8-0.4,2.7-0.4c2.7,0,4.9,1.2,7.4,2.5c-1.3-2.6-4.2-5.1-10.3-6.1c-13.3-2.3-12.4-2.8-20.1-2.8c-1,0-2.1,0-3.4,0h-0.2
	C487.1,213.1,479.2,211.3,471.8,209.4"/>
<path class="st3" d="M483.3,213L483.3,213c1.8,0.6,3.5,1.1,5.1,1.6C487,213.9,485.3,213.4,483.3,213"/>
<polygon class="st6" points="200,457.1 197.4,457.1 191.6,439.5 195.2,439.5 198.7,451 202.3,439.5 205.8,439.5 "/>
<path class="st6" d="M214.2,449.5c0-0.3,0-0.5-0.1-0.7c0-0.2-0.1-0.4-0.2-0.7c-0.2-0.4-0.5-0.7-0.8-1c-0.4-0.3-0.8-0.4-1.3-0.4
	c-0.5,0-1,0.1-1.3,0.4c-0.4,0.3-0.6,0.6-0.8,1c-0.1,0.2-0.2,0.4-0.2,0.7c0,0.2-0.1,0.4-0.1,0.7H214.2z M209.3,451.7
	c0,0.8,0.2,1.5,0.7,2.1c0.5,0.5,1.2,0.8,2.1,0.8c0.7,0,1.3-0.1,1.7-0.3c0.4-0.2,0.8-0.5,1.2-0.9l2,1.9c-0.3,0.3-0.7,0.6-1,0.9
	c-0.3,0.2-0.7,0.5-1.1,0.6c-0.4,0.2-0.8,0.3-1.3,0.4c-0.5,0.1-1,0.1-1.6,0.1c-0.8,0-1.5-0.1-2.2-0.3c-0.7-0.2-1.4-0.5-1.9-1.1
	c-0.6-0.5-1-1.2-1.3-2c-0.3-0.8-0.5-1.9-0.5-3.2c0-1.1,0.1-2,0.4-2.8c0.3-0.8,0.7-1.5,1.2-2.1c0.5-0.6,1.1-1,1.8-1.3
	c0.7-0.3,1.4-0.4,2.3-0.4c0.9,0,1.7,0.2,2.4,0.5c0.7,0.3,1.3,0.7,1.8,1.3c0.5,0.5,0.8,1.2,1.1,1.9c0.2,0.8,0.4,1.6,0.4,2.5v1.4
	H209.3z"/>
<path class="st6" d="M227.3,447.7c-0.2-0.2-0.5-0.4-0.7-0.6c-0.2-0.1-0.6-0.2-1-0.2c-0.2,0-0.5,0-0.7,0.1c-0.2,0.1-0.5,0.2-0.7,0.4
	c-0.2,0.2-0.4,0.4-0.5,0.7c-0.1,0.3-0.2,0.7-0.2,1.1v7.8h-3.2v-12.9h3.1v1.2c0.3-0.4,0.8-0.7,1.3-1c0.6-0.3,1.2-0.4,1.9-0.4
	c0.6,0,1.2,0.1,1.7,0.3c0.5,0.2,0.9,0.5,1.4,0.9L227.3,447.7z"/>
<path class="st6" d="M240.1,455.5c-0.6,0.6-1.2,1-1.9,1.3c-0.7,0.3-1.5,0.4-2.4,0.4c-0.6,0-1.3-0.1-2-0.3c-0.7-0.2-1.3-0.5-1.9-1
	c-0.6-0.5-1-1.2-1.4-2c-0.4-0.8-0.5-1.9-0.5-3.2c0-1.3,0.2-2.4,0.5-3.2c0.4-0.8,0.8-1.5,1.4-2c0.6-0.5,1.2-0.8,1.9-1
	c0.7-0.2,1.3-0.3,2-0.3c0.9,0,1.7,0.1,2.4,0.4c0.7,0.3,1.3,0.7,1.9,1.3L238,448c-0.3-0.4-0.7-0.6-1-0.8c-0.3-0.2-0.7-0.2-1.1-0.2
	c-0.8,0-1.4,0.3-1.8,0.8c-0.2,0.3-0.4,0.7-0.5,1.1c-0.1,0.4-0.2,1-0.2,1.7c0,1.3,0.2,2.3,0.7,2.9c0.5,0.6,1.1,0.8,1.8,0.8
	c0.4,0,0.8-0.1,1.1-0.2c0.3-0.2,0.6-0.4,1-0.8L240.1,455.5z"/>
<path class="st6" d="M249.3,450.7c0-0.7,0-1.3-0.1-1.8c-0.1-0.5-0.3-1-0.6-1.3c-0.4-0.4-0.9-0.6-1.5-0.6c-0.6,0-1.1,0.2-1.5,0.6
	c-0.3,0.3-0.5,0.8-0.6,1.3c-0.1,0.5-0.1,1.1-0.1,1.8c0,0.7,0,1.3,0.1,1.8c0.1,0.5,0.3,1,0.6,1.3c0.4,0.4,0.9,0.6,1.5,0.6
	c0.6,0,1.1-0.2,1.5-0.6c0.3-0.3,0.5-0.8,0.6-1.3C249.3,452,249.3,451.3,249.3,450.7 M252.6,450.7c0,1.2-0.1,2.1-0.3,2.9
	c-0.2,0.8-0.6,1.5-1.2,2.1c-0.4,0.4-0.9,0.8-1.6,1.1c-0.7,0.3-1.5,0.5-2.4,0.5c-1,0-1.8-0.2-2.4-0.5c-0.7-0.3-1.2-0.7-1.6-1.1
	c-0.6-0.6-1-1.3-1.2-2.1c-0.2-0.8-0.3-1.8-0.3-2.9s0.1-2.1,0.3-2.9c0.2-0.8,0.6-1.5,1.2-2.1c0.4-0.4,0.9-0.8,1.6-1.1
	c0.7-0.3,1.5-0.5,2.4-0.5c1,0,1.8,0.2,2.4,0.5c0.7,0.3,1.2,0.7,1.6,1.1c0.6,0.6,1,1.3,1.2,2.1C252.5,448.5,252.6,449.5,252.6,450.7"
	/>
<path class="st6" d="M262.6,447.7c-0.2-0.2-0.5-0.4-0.7-0.6c-0.2-0.1-0.6-0.2-1-0.2c-0.2,0-0.5,0-0.7,0.1c-0.2,0.1-0.5,0.2-0.7,0.4
	c-0.2,0.2-0.4,0.4-0.5,0.7c-0.1,0.3-0.2,0.7-0.2,1.1v7.8h-3.2v-12.9h3.1v1.2c0.3-0.4,0.8-0.7,1.3-1c0.6-0.3,1.2-0.4,1.9-0.4
	c0.6,0,1.2,0.1,1.7,0.3c0.5,0.2,0.9,0.5,1.4,0.9L262.6,447.7z"/>
<path class="st6" d="M276.3,453.1c0,0.7-0.1,1.3-0.4,1.9c-0.3,0.5-0.7,1-1.2,1.3c-0.5,0.3-1.1,0.6-1.7,0.8c-0.7,0.2-1.4,0.3-2.1,0.3
	c-0.5,0-1,0-1.5-0.1c-0.5,0-0.9-0.1-1.4-0.3c-0.5-0.1-0.9-0.3-1.3-0.6c-0.4-0.2-0.8-0.6-1.3-1l2.1-2.1c0.5,0.5,1.1,0.9,1.7,1
	c0.6,0.1,1.2,0.2,1.7,0.2c0.3,0,0.6,0,0.8-0.1c0.3-0.1,0.5-0.1,0.7-0.2c0.2-0.1,0.4-0.2,0.5-0.4c0.1-0.2,0.2-0.4,0.2-0.6
	c0-0.3-0.1-0.6-0.3-0.8c-0.2-0.2-0.6-0.3-1.1-0.4l-2-0.2c-1.2-0.1-2.1-0.4-2.8-1c-0.7-0.6-1-1.4-1-2.6c0-0.7,0.1-1.2,0.4-1.8
	c0.3-0.5,0.6-0.9,1.1-1.3c0.5-0.3,1-0.6,1.6-0.8c0.6-0.2,1.2-0.3,1.9-0.3c1,0,1.9,0.1,2.7,0.3c0.8,0.2,1.6,0.6,2.2,1.2l-2,2
	c-0.4-0.3-0.8-0.6-1.4-0.7c-0.5-0.1-1.1-0.2-1.6-0.2c-0.6,0-1.1,0.1-1.4,0.4c-0.3,0.2-0.4,0.5-0.4,0.9c0,0.1,0,0.2,0.1,0.4
	c0,0.1,0.1,0.2,0.2,0.3c0.1,0.1,0.2,0.2,0.4,0.3c0.2,0.1,0.4,0.1,0.7,0.1l2,0.2c1.3,0.1,2.2,0.5,2.9,1.2
	C276,451.1,276.3,452,276.3,453.1"/>
<path class="st6" d="M293.4,457.1v-7.5c0-1.1-0.3-1.9-0.8-2.4c-0.5-0.5-1.3-0.8-2.2-0.8c-0.9,0-1.7,0.3-2.2,0.8
	c-0.5,0.5-0.8,1.4-0.8,2.4v7.5h-1.8V445h1.8v1.3c0.4-0.5,0.9-0.9,1.5-1.1c0.6-0.2,1.2-0.4,1.9-0.4c1.3,0,2.4,0.4,3.1,1.1
	c0.8,0.8,1.3,2,1.3,3.4v7.8H293.4z"/>
<path class="st6" d="M306.4,451.5H303c-1.8,0-2.7,0.7-2.7,2.2c0,0.7,0.2,1.2,0.7,1.6c0.4,0.3,1.2,0.5,2.1,0.5c0.5,0,1,0,1.5-0.1
	c0.5-0.1,0.9-0.3,1.2-0.7c0.4-0.4,0.6-1.1,0.6-2.1V451.5z M306.4,457.1V456c-0.5,0.5-1,0.8-1.5,1c-0.5,0.2-1.2,0.3-2,0.3
	c-0.8,0-1.5-0.1-2.1-0.3c-0.5-0.2-1-0.5-1.4-0.9c-0.3-0.3-0.5-0.7-0.7-1.1c-0.2-0.4-0.2-0.9-0.2-1.4c0-1.1,0.4-1.9,1.1-2.6
	c0.7-0.6,1.8-1,3.1-1h3.7V449c0-0.9-0.2-1.6-0.7-2c-0.5-0.4-1.3-0.7-2.4-0.7c-0.8,0-1.4,0.1-1.9,0.3c-0.4,0.2-0.9,0.6-1.2,1.1
	l-1.2-1.1c0.5-0.7,1.2-1.2,1.8-1.4c0.7-0.2,1.5-0.4,2.5-0.4c1.6,0,2.9,0.3,3.7,1c0.8,0.7,1.2,1.7,1.2,3v8.3H306.4z"/>
<path class="st6" d="M315.9,457.1c-0.5,0-1-0.1-1.4-0.3c-0.4-0.2-0.7-0.4-1-0.7c-0.3-0.3-0.5-0.6-0.6-1c-0.1-0.4-0.2-0.8-0.2-1.3
	v-7.5h-1.5V445h1.5v-3.8h1.8v3.8h2.6v1.4h-2.6v7.4c0,0.6,0.1,1,0.4,1.3c0.3,0.3,0.7,0.5,1.3,0.5h0.9v1.5H315.9z"/>
<path class="st6" d="M328.4,457.1v-1.4c-0.4,0.5-0.9,0.9-1.5,1.1c-0.6,0.3-1.2,0.4-1.9,0.4c-1.3,0-2.4-0.4-3.1-1.1
	c-0.4-0.4-0.7-0.9-0.9-1.5c-0.2-0.6-0.3-1.2-0.3-1.9V445h1.8v7.5c0,1.1,0.3,1.9,0.8,2.4c0.5,0.5,1.3,0.8,2.2,0.8
	c0.9,0,1.7-0.3,2.2-0.8c0.6-0.5,0.8-1.4,0.8-2.4V445h1.8v12.2H328.4z"/>
<path class="st6" d="M341.4,447.3c-0.3-0.3-0.6-0.6-0.9-0.7c-0.3-0.1-0.7-0.2-1.2-0.2c-0.4,0-0.8,0.1-1.2,0.2
	c-0.4,0.2-0.7,0.4-0.9,0.7c-0.2,0.3-0.4,0.6-0.6,1c-0.1,0.4-0.2,0.8-0.2,1.3v7.5h-1.8V445h1.8v1.5c0.3-0.5,0.8-0.9,1.4-1.2
	c0.6-0.3,1.3-0.4,2-0.4c0.6,0,1.1,0.1,1.6,0.2c0.5,0.2,0.9,0.5,1.3,0.9L341.4,447.3z"/>
<path class="st6" d="M351.8,450.2c0-0.2,0-0.5-0.1-0.6c0-0.2,0-0.3-0.1-0.5c0-0.1-0.1-0.3-0.1-0.4c0-0.1-0.1-0.3-0.2-0.5
	c-0.2-0.6-0.6-1-1.1-1.3c-0.5-0.3-1.1-0.5-1.7-0.5c-0.6,0-1.2,0.2-1.7,0.5c-0.5,0.3-0.9,0.8-1.1,1.3c-0.1,0.3-0.2,0.6-0.3,0.9
	c0,0.3-0.1,0.6-0.1,1.1H351.8z M345.3,451.5c0,1.3,0.3,2.4,0.9,3.1c0.6,0.7,1.5,1.1,2.7,1.1c0.7,0,1.3-0.1,1.8-0.3
	c0.5-0.2,0.9-0.6,1.4-1l1.2,1.1c-0.3,0.3-0.6,0.6-0.9,0.8c-0.3,0.2-0.6,0.4-1,0.6c-0.3,0.2-0.7,0.3-1.2,0.4
	c-0.4,0.1-0.9,0.1-1.4,0.1c-0.8,0-1.5-0.1-2.2-0.4c-0.7-0.2-1.2-0.6-1.7-1.1c-0.5-0.5-0.8-1.2-1.1-1.9c-0.3-0.8-0.4-1.7-0.4-2.8
	c0-2,0.4-3.5,1.3-4.6c0.9-1.1,2.1-1.6,3.7-1.6c1.6,0,2.8,0.5,3.7,1.6c0.9,1.1,1.3,2.5,1.3,4.3v0.8H345.3z"/>
<path class="st6" d="M360.4,457.1c-1.1,0-1.9-0.3-2.4-0.9c-0.5-0.6-0.7-1.4-0.7-2.3v-14.4h1.8v14.3c0,0.6,0.1,1,0.3,1.3
	c0.2,0.3,0.7,0.4,1.3,0.4h1v1.5H360.4z"/>
<path class="st6" d="M367.7,457.1c-1.1,0-1.9-0.3-2.4-0.9c-0.5-0.6-0.7-1.4-0.7-2.3v-14.4h1.8v14.3c0,0.6,0.1,1,0.3,1.3
	c0.2,0.3,0.7,0.4,1.3,0.4h1v1.5H367.7z"/>
<path class="st6" d="M378.9,450.2c0-0.2,0-0.5,0-0.6c0-0.2,0-0.3-0.1-0.5c0-0.1-0.1-0.3-0.1-0.4c0-0.1-0.1-0.3-0.2-0.5
	c-0.2-0.6-0.6-1-1.1-1.3c-0.5-0.3-1.1-0.5-1.7-0.5c-0.6,0-1.2,0.2-1.7,0.5c-0.5,0.3-0.9,0.8-1.1,1.3c-0.1,0.3-0.2,0.6-0.3,0.9
	c0,0.3-0.1,0.6-0.1,1.1H378.9z M372.5,451.5c0,1.3,0.3,2.4,0.9,3.1c0.6,0.7,1.5,1.1,2.7,1.1c0.7,0,1.3-0.1,1.8-0.3
	c0.5-0.2,0.9-0.6,1.4-1l1.2,1.1c-0.3,0.3-0.6,0.6-0.9,0.8c-0.3,0.2-0.6,0.4-1,0.6c-0.3,0.2-0.7,0.3-1.1,0.4
	c-0.4,0.1-0.9,0.1-1.4,0.1c-0.8,0-1.5-0.1-2.2-0.4c-0.7-0.2-1.2-0.6-1.7-1.1c-0.5-0.5-0.8-1.2-1.1-1.9c-0.3-0.8-0.4-1.7-0.4-2.8
	c0-2,0.4-3.5,1.3-4.6c0.9-1.1,2.1-1.6,3.7-1.6c1.6,0,2.8,0.5,3.7,1.6c0.9,1.1,1.3,2.5,1.3,4.3v0.8H372.5z"/>
<path class="st6" d="M400.1,457.1v-7.5c0-1.1-0.3-1.9-0.8-2.4c-0.5-0.5-1.3-0.8-2.2-0.8c-0.9,0-1.6,0.3-2.2,0.8
	c-0.6,0.5-0.9,1.3-0.9,2.3v7.7h-1.8v-7.5c0-1.1-0.3-1.9-0.8-2.4c-0.5-0.5-1.3-0.8-2.2-0.8c-0.9,0-1.7,0.3-2.2,0.8
	c-0.6,0.5-0.8,1.4-0.8,2.4v7.5h-1.8V445h1.8v1.3c0.4-0.5,0.9-0.9,1.5-1.1c0.6-0.2,1.2-0.4,1.9-0.4c0.8,0,1.6,0.2,2.2,0.5
	c0.6,0.3,1.1,0.8,1.5,1.5c1-1.4,2.3-2,4-2c0.7,0,1.3,0.1,1.8,0.3c0.5,0.2,1,0.5,1.4,0.8c0.9,0.8,1.3,2,1.3,3.4v7.8H400.1z"/>
<path class="st6" d="M413.8,450.2c0-0.2,0-0.5,0-0.6c0-0.2,0-0.3-0.1-0.5c0-0.1-0.1-0.3-0.1-0.4c0-0.1-0.1-0.3-0.2-0.5
	c-0.2-0.6-0.6-1-1.1-1.3c-0.5-0.3-1.1-0.5-1.7-0.5c-0.6,0-1.2,0.2-1.7,0.5c-0.5,0.3-0.9,0.8-1.1,1.3c-0.1,0.3-0.2,0.6-0.3,0.9
	c-0.1,0.3-0.1,0.6-0.1,1.1H413.8z M407.4,451.5c0,1.3,0.3,2.4,0.9,3.1c0.6,0.7,1.5,1.1,2.7,1.1c0.7,0,1.3-0.1,1.8-0.3
	c0.5-0.2,0.9-0.6,1.4-1l1.2,1.1c-0.3,0.3-0.6,0.6-0.9,0.8c-0.3,0.2-0.6,0.4-1,0.6c-0.3,0.2-0.7,0.3-1.1,0.4
	c-0.4,0.1-0.9,0.1-1.4,0.1c-0.8,0-1.5-0.1-2.2-0.4c-0.6-0.2-1.2-0.6-1.7-1.1c-0.5-0.5-0.8-1.2-1.1-1.9c-0.3-0.8-0.4-1.7-0.4-2.8
	c0-2,0.4-3.5,1.3-4.6c0.9-1.1,2.1-1.6,3.7-1.6c1.6,0,2.8,0.5,3.7,1.6c0.9,1.1,1.3,2.5,1.3,4.3v0.8H407.4z"/>
<path class="st6" d="M427.2,457.1v-7.5c0-1.1-0.3-1.9-0.8-2.4c-0.5-0.5-1.3-0.8-2.2-0.8c-0.9,0-1.7,0.3-2.2,0.8
	c-0.5,0.5-0.8,1.4-0.8,2.4v7.5h-1.8V445h1.8v1.3c0.4-0.5,0.9-0.9,1.5-1.1c0.6-0.2,1.2-0.4,1.9-0.4c1.3,0,2.4,0.4,3.1,1.1
	c0.8,0.8,1.3,2,1.3,3.4v7.8H427.2z"/>
<path class="st6" d="M436.7,457.1c-0.5,0-1-0.1-1.4-0.3c-0.4-0.2-0.7-0.4-1-0.7c-0.3-0.3-0.4-0.6-0.6-1c-0.1-0.4-0.2-0.8-0.2-1.3
	v-7.5H432V445h1.5v-3.8h1.8v3.8h2.6v1.4h-2.6v7.4c0,0.6,0.1,1,0.4,1.3c0.3,0.3,0.7,0.5,1.3,0.5h0.9v1.5H436.7z"/>
<path class="st7" d="M159.1,457.5c0,0-0.3-0.9-0.7-2.5c-0.4-1.6-1.1-4-1.8-7c-0.8-3-1.6-6.7-2.6-10.9c-1-4.2-2-8.9-3.1-14.1
	c-1-5.2-2-10.8-3.1-16.8c-0.5-3-1-6.1-1.6-9.2c-0.5-3.1-1-6.4-1.4-9.6c-0.9-6.5-1.8-13.3-2.7-20.2c-0.7-6.9-1.5-13.9-2.2-20.9
	c-0.7-7-1.1-14-1.7-21c-0.3-3.5-0.4-6.9-0.6-10.3c-0.2-3.4-0.3-6.7-0.4-10c-0.1-3.3-0.1-6.5-0.2-9.7c-0.1-3.2-0.2-6.3-0.1-9.3
	c0-3,0.1-5.9,0.1-8.8c0.1-2.8,0.2-5.6,0.3-8.2c0.1-1.3,0.1-2.6,0.2-3.8c0.1-1.2,0.2-2.5,0.3-3.6c0.1-1.1,0.2-2.2,0.3-3.2
	c1.5-5.8,2.4-9.3,2.4-9.3l0-0.2c0.4-1.5,0.1-2.9-0.7-4.1c0-0.2,0.1-0.4,0.1-0.6c0.2-1.5,0.6-2.7,0.8-3.8c0.2-1.1,0.5-1.9,0.7-2.6
	c0.1-0.4,0.2-0.6,0.3-0.7c0.1-0.2,0.1-0.3,0.2-0.4c0.1-0.4,0.2-0.5,0.2-0.5l0.1-0.3c0.1-0.3,0.2-0.7,0.3-1c0.9-3.9-1.6-7.8-5.5-8.6
	c-3.9-0.9-7.8,1.6-8.6,5.5c0,0-0.1,0.2-0.2,0.7c-0.1,0.3-0.1,0.7-0.2,1.1c-0.1,0.4-0.2,1-0.2,1.4c-0.1,0.9-0.3,2.1-0.4,3.4
	c-0.1,1.3-0.2,2.8-0.3,4.4c-0.1,1.6-0.2,3.4-0.2,5.3c0,1.9,0,4-0.1,6.2c0,2,0,4.1,0.1,6.3c-0.1,0.2-0.1,0.4-0.2,0.6l0.1,0.1
	c0,0-10.4,41.3-13.2,52.1c-2.8,10.8-2.5,6.4-4.1,11.8c-1.5,5.4-1,6-2,10.1c-0.7,2.8-2.1,7.2-3.3,9.9c-0.3,1.2-0.6,2.4-0.9,3.6
	c-0.2-3.1-0.5-6.4-0.6-9.8c-0.3-7.8-0.7-16.2-1-24.5c-0.1-8.4-0.3-16.7-0.4-24.6c-0.1-3.9,0-7.7,0-11.3c0-3.6,0.1-7,0.1-10.1
	c0-3.1,0.1-6,0.2-8.5c0.1-2.5,0.1-4.8,0.2-6.6c0-0.7,0.1-1.4,0.1-2c2-10.1,3.2-16.4,3.2-16.4l0-0.2c0.5-2.7-1.2-5.3-3.9-5.9
	c-2.7-0.6-5.4,1.1-6.1,3.8c0,0-1,4.6-2.8,12.3c-0.3,0.7-0.5,1.4-0.6,2.2c0,0,0,0.1,0,0.3c-0.7,3.2-1.5,6.8-2.4,10.8
	c-0.9,3.8-1.8,8-2.8,12.4c-0.5,2.2-1,4.5-1.5,6.8c-0.5,2.3-1,4.7-1.5,7.1c-2,9.6-4.2,19.9-6.4,30.2c-1.1,5.1-2.2,10.3-3.2,15.3
	c-1,5.1-2.1,10-3.1,14.9c-2,9.6-3.8,18.6-5.4,26.3c-3.1,15.4-5.2,25.7-5.2,25.7l0,0.2c-0.7,4,2,7.8,5.9,8.5c3,0.5,5.8-0.8,7.4-3.2
	c0.4-3-1-0.9,0-4.1c1-3.3-1.1-2.3,0.1-5c1.2-2.8,1.6-1.5,2-5.1c0.4-3.5-2.2-3.8,0-6.8c2.2-3,4.7-24.6,6.6-31.2
	c1.9-6.6,9.5-47.9,9.7-49.1c0-0.1,0.3-1.8,0.3-1.2c0.2-1,0.2,0.4,0.4-0.6c0.2,5,0.4,10.2,0.6,15.4c0.6,8.4,1.2,16.8,1.7,24.7
	c0.3,3.9,0.7,7.7,1,11.3c0.3,3.6,0.6,7,0.9,10.2c0.3,3.1,0.7,6,0.9,8.6c0,0.2,0,0.3,0.1,0.5c-0.7,2.8-1.1,4.4-1.1,4.4l0,0.1
	c-0.6,2.5,0.4,5,2.4,6.4c0.1,0.6,0.1,0.9,0.1,0.9c0.2,1.8,1.8,3,3.6,2.9c1.8-0.2,3-1.7,3-3.4c1.5-0.8,2.6-2.2,3-4l0,0
	c0,0,1.9-8.1,4.7-20.1c1.4-6,3.1-13.1,4.9-20.6c0.9-3.8,1.8-7.7,2.8-11.6c1-3.9,2-8,2.9-12c1.5-6,2.9-11.9,4.3-17.6l0,0.3
	c0.2,3.2,0.5,6.5,0.7,9.8c0.7,6.6,1.2,13.5,1.9,20.4c0.7,6.9,1.4,14,2.1,21c0.8,7,1.6,14.1,2.3,21c0.4,3.5,0.8,6.9,1.2,10.3
	c0.4,3.4,0.8,6.7,1.1,10c0.2,2.3,0.5,4.6,0.7,6.8l0,0c0.3,3.3,1.1,5.3,1.1,8.6c0,0.4,0,0.7,0,1c0.1,0.9,0.2,1.8,0.3,2.7
	c0.1,1.4,0.3,2.8,0.4,4.1c0.9,1.6,2,3.1,1.5,4.9c-0.7,2.3,0.2,5.3,0,7.1c-0.1,1.4,0.4,4.6,0.2,6.5c0.3,3.2,0.6,6.2,0.8,9
	c0.3,4.3,0.6,8.1,0.8,11.2c0.2,3.1,0.3,5.6,0.4,7.2c0.1,1.7,0.1,2.6,0.1,2.6c0,0.6,0.1,1.3,0.3,2c1.2,4,5.4,6.2,9.3,5.1
	C158,465.7,160.3,461.6,159.1,457.5L159.1,457.5z"/>
<path class="st7" d="M175,323.1c3.5-1.8,6.1-4.8,6.6-6.8c0.5-2-0.3-3.6-2.3-6.6c-2-3-5.4-5.8-6.8-2.8c-1.3,3-3.2,7.1-2.7,7.7
	c0.6,0.6-0.5,3.7-2,4.4c-1.5,0.8-3,2-5.1,2c-2,0-4.8,3.8-4.8,3.8C164.1,325.7,171.5,324.9,175,323.1"/>
<path class="st7" d="M308.6,359.2c-0.1,1.1-0.3,2.2-0.6,3.4c-0.2,1.2-0.5,2.3-0.8,3.5c-0.3,1.2-0.6,2.2-0.9,3.2
	c-0.8,2.6-1.8,4.6-3.2,6c-0.6,0.7-1.3,1.2-2,1.6c-0.5,0.1-1.1,0.2-1.8,0.3c-5.3,1.3-5.8-4.8-5.5-7.6c0.3-2.8-0.5-1.5,0.2-2.8
	c0.7-1.3-0.7-1.5,0-2.8c0.8-1.3-0.3-2,0-4c0.2-1.5,2.7-4.7,5-6.4c0.1-0.1,0.3-0.1,0.4-0.2c1.4-0.5,3-0.5,4.6-0.1
	c1.6,0.4,3.2,1.4,4.8,3.1C308.8,357.2,308.7,358.1,308.6,359.2 M211.4,353.7c-0.3,1.8-0.7,3.8-1.2,6c-0.5,2.2-1.1,4.4-1.9,6.8
	c-0.8,2.3-1.7,4.4-2.8,6.3c-1.1,1.9-2.4,3.4-3.8,4.5c-1.4,1.1-3,1.6-4.9,1.4c-0.9-0.1-1.6-0.8-2.1-2c-0.5-1.2-0.8-2.8-0.8-4.7
	c0-1.9,0.1-4,0.5-6.3c0.3-2.3,0.9-4.5,1.6-6.7c0.7-2.2,1.6-4.2,2.6-6c1-1.8,2.2-3.3,3.6-4.3c1.3-1,2.8-1.5,4.4-1.4
	c-0.1,0.1-0.4,0,0.8,0.5l2,0.9v1.8h1.1c0.9,0-0.9,1,0,1.7c0.9,0.7,0.7-0.3,0.9,0.6C211.5,353,211.5,353.3,211.4,353.7 M159.2,360.2
	c0.2-1.4,0.4-2.9,0.8-4.5c0.3-1.6,0.8-3.1,1.3-4.6c0.5-1.5,1.1-2.8,1.8-3.8c0.7-1.1,1.4-1.8,2.2-2.3c0.8-0.5,1.6-0.4,2.4,0.1
	c0.9,0.6,1.4,1.7,1.6,3.5c0.2,1.8,0,3.7-0.6,5.7c-0.6,2-1.7,3.9-3.2,5.7c-1.6,1.8-3.7,3-6.3,3.5C159,362.7,159.1,361.6,159.2,360.2
	 M383.2,360.2c0.2-1.4,0.4-2.9,0.8-4.5c0.3-1.6,0.8-3.1,1.3-4.6c0.5-1.5,1.1-2.8,1.8-3.8c0.7-1.1,1.4-1.8,2.2-2.3
	c0.8-0.5,1.6-0.4,2.4,0.1c0.9,0.6,1.4,1.7,1.6,3.5c0.2,1.8,0,3.7-0.6,5.7c-0.6,2-1.7,3.9-3.2,5.7c-1.6,1.8-3.7,3-6.3,3.5
	C383,362.7,383,361.6,383.2,360.2 M398,382.5l-0.1,0.1c-1.9,1.4-3.8,2.4-5.8,3c-2,0.7-3.7,0.8-5,0.2c-1.3-0.5-2.4-1.4-3.2-2.7
	c-0.8-1.3-1.3-2.8-1.7-4.6c-0.3-1.8-0.5-3.6-0.6-5.5c3.3,0.2,6.2-0.4,8.8-1.9c2.6-1.5,4.8-3.5,6.5-6c1.8-2.5,3.1-5.3,4.1-8.4
	c0.9-3.1,1.4-6.2,1.6-9.3c0.1-2.9-0.3-5.3-1.2-7.3c-0.9-2-2-3.6-3.5-4.7c-1.5-1.1-3.2-1.8-5.1-1.9c-1.9-0.2-3.8,0.1-5.8,0.8
	c-2.4,0.9-4.4,2.3-6,4.2c-1.6,1.9-3,4.2-4.1,6.7c-1.1,2.6-2,5.3-2.6,8.3c-0.6,3-1.1,5.9-1.4,8.7c-0.3,2.9-0.4,5.6-0.5,8.2l0,0.2
	c-1.5,5.5-3.1,9.6-4.8,12.4c-2.1,3.6-4.4,5.1-6.8,4.6c-0.8-0.1-1.3-0.7-1.7-1.6c-0.4-1-0.7-2.1-0.8-3.5c-0.1-1.4-0.2-2.9-0.1-4.6
	c0.1-1.7,0.2-3.3,0.3-4.8c0.1-1.6,0.3-3,0.6-4.3c0.2-1.3,0.4-2.3,0.6-3c0.3-1.2,0.7-2.3,1.1-3.3c0.4-1,0.7-2,0.8-2.9
	c0.1-0.9,0-1.7-0.3-2.5c-0.3-0.8-1.1-1.6-2.3-2.4c-1.7-0.5-3.2-1-4.5-1.4c-1.3-0.5-2.5-1-3.6-1.6c-1.1-0.6-2.2-1.4-3.2-2.3
	c-1-0.9-2-2-3.1-3.3c0.2-1.1,0.2-2.1,0-3c-0.2-0.9-0.6-1.7-1.1-2.3c-0.5-0.6-1.1-1.1-1.8-1.5c-0.7-0.3-1.4-0.5-2.2-0.6
	c-0.7-0.1-1.4,0-2,0.3l-0.1-0.2c-2.5-1.2-10.2,4.2-4.7,12.1c-1,5.1-1.9,9.4-2.7,13.1c-1.2,5.2-2.2,9.4-3.2,12.6
	c-0.5,1.6-0.9,3-1.3,4.2c-0.3,0.2-0.6,0.5-0.9,0.7c-0.9,0.6-1.8,0.7-2.5,0.3c-1.4-0.7-2.3-2.4-2.8-5c-0.5-2.7-0.7-6-0.6-9.8
	c0.1-3.9,0.4-8.2,1-12.8c0.6-4.7,1.2-9.4,2-14c0.7-4.7,1.4-9.1,2.2-13.3c0.7-4.2,1.3-7.8,1.7-10.8c0.2-1.5-0.1-2.8-0.9-3.7
	c-0.8-0.9-1.8-1.5-2.9-1.8c-1.1-0.2-2.2-0.1-3.3,0.5c-1,0.6-1.7,1.6-1.9,3l0,0.1c-0.8,0.6-1.8,1.5-2.5,2.9c-1.6,2.9-2,12.7-3.6,27.3
	c0,0,0-0.1,0.1-0.2c0,0.2-0.1,0.3-0.1,0.4c-2.6-1.6-5.1-2.5-7.4-2.8c-2.3-0.2-4.5,0-6.5,0.6c-2.5,0.9-4.8,2.3-6.8,4.4
	c-2,2.1-3.7,4.5-5,7.2c-1.3,2.8-2.3,5.8-2.8,9c-0.3,1.5-0.4,3-0.5,4.4c-1.4,4.2-2.8,7.3-4,9.3c-1.5,2.3-3.1,3.4-5,3
	c-0.8-0.4-1.3-1.2-1.6-2.6c-0.3-1.4-0.3-3-0.3-5c0.1-2,0.3-4.2,0.6-6.7c0.3-2.5,0.8-5.1,1.3-7.8c0.5-2.7,1.1-5.4,1.6-8.1
	c0.6-2.7,1.1-5.3,1.6-7.7c0-0.5-0.1-1-0.1-1.4c-0.7-1.9-2.5-3-3.6-3c-1.4,0-2.4,1.9-4.2,1.9c-1.5,0-2.5,1.1-3.6,4.1
	c-0.2,0.8-0.4,1.9-0.6,3.2c-0.5,2.4-1.1,5.2-1.8,8.3c-0.7,3.1-1.6,6.4-2.6,9.7c-1,3.4-2.1,6.5-3.3,9.2c-1.2,2.7-2.5,4.9-4,6.6
	c-1.4,1.7-3,2.3-4.7,2c-0.9-0.2-1.5-1.2-1.8-3c-0.3-1.8-0.3-4.1-0.1-6.8c0.2-2.7,0.5-5.7,1-8.9c0.5-3.2,1.1-6.3,1.6-9.2
	c0.5-2.9,1.1-5.4,1.5-7.7c0.5-2.2,0.8-3.7,1-4.4c0-1.8-0.4-3.2-1.1-4.3c-0.8-1.1-1.7-1.8-2.7-2c-1.1-0.3-2.2-0.1-3.3,0.5
	c-1.1,0.6-2.1,1.6-2.9,3.2c-0.3,1.7-0.7,3.6-1.1,5.8c-0.5,2.2-0.9,4.4-1.3,6.7c-0.4,2.3-0.8,4.6-1.2,6.8c-0.4,2.2-0.7,4.2-0.8,5.8
	c-0.1,1.3-0.2,2.9-0.4,4.8c0,0.4,0,0.7-0.1,1.1c-0.7,1.7-1.5,3.4-2.4,4.9c-1.2,2.1-2.5,3.8-4.1,5.2c-1.5,1.4-3.2,2-4.9,1.9
	c-1.4-0.1-2.5-0.9-3-2.4c-0.6-1.4-0.9-3.3-0.9-5.4c0-2.2,0.2-4.6,0.6-7.4c0.4-2.7,1-5.5,1.6-8.2c0.6-2.7,1.2-5.3,1.9-7.8
	c0.6-2.5,1.2-4.6,1.6-6.3c0.5-1.5,0.3-2.8-0.4-3.9c-0.8-1.1-1.7-1.8-2.8-2.3s-2.3-0.6-3.4-0.4c-1.2,0.2-1.9,0.9-2.3,2
	c-3.4-3.1-6.7-4.8-9.8-5.1c-3.2-0.2-6.1,0.5-8.7,2.2c-2.7,1.7-5,4.2-7.1,7.5c-2.1,3.3-3.7,6.8-5,10.7c-1.3,3.8-2.1,7.8-2.4,11.8
	c0,0.6-0.1,1.2-0.1,1.8c-0.7,1.6-1.8,3.7-3.1,5.2c-1.2,1.4-1.3,2.1-1.5,2.7c-0.3,0.4-0.6,0.7-0.9,1.1c-0.2,0.1-0.4,0.3-0.7,0.4
	c-2.3,1.2-2.9,2.7-4.5,4.2c-1,0.6-1.9,1.2-3,1.6c-0.5-0.1-1.5-0.2-4.1,0.1c-4.9,0.5-6.1-6.4-6.5-12c2.7,0,5.1-0.7,7.3-1.9
	c2.6-1.5,4.8-3.5,6.5-6c1.8-2.5,3.2-5.3,4.1-8.4c0.9-3.1,1.4-6.2,1.6-9.3c0.1-2.9-0.3-5.3-1.2-7.3c-0.9-2-2-3.6-3.5-4.7
	c-1.5-1.1-3.2-1.8-5.1-1.9c-1.9-0.2-3.8,0.1-5.8,0.8c-2.4,0.9-4.4,2.3-6,4.2c-1.6,1.9-3,4.2-4.1,6.7c-1.1,2.6-2,5.3-2.6,8.3
	c-0.6,3-1.1,5.9-1.4,8.7c-0.1,0.7-0.1,1.3-0.2,2c-1.9,0.5-2.8,1.7-3,2.6c-0.2,1.1-0.5,1.2-0.4,1.8c0.1,0.4,1.7,1.3,3.1,2
	c0,2.5,0,4.7,0.1,6.5c0.2,3.9,0.9,7.2,2.1,9.9c1.2,2.7,2.9,4.8,5.1,6.3c2.1,1.5,4.7,2.3,7.5,2.4c2.9,0.2,6-0.4,9.4-1.7
	c2.5-1,4.8-2.2,6.6-3.7c1.9-1.5,3.6-3.3,5.1-5.4c0.5-0.7,0.9-1.4,1.4-2.1c0.8,1.5,1.7,2.9,2.8,4.1c2.1,2.1,4.8,3.1,8.4,3.1
	c1.6,0,3.1-0.3,4.5-1c1.4-0.7,2.8-1.5,4-2.4c1.2-0.9,2.3-1.9,3.2-2.9c0.9-1,1.6-1.9,2.2-2.5c0.4,2.2,1.1,4.1,2,5.6
	c0.9,1.5,2,2.8,3.2,3.8c1.2,1,2.4,1.7,3.7,2.2c1.3,0.5,2.6,0.7,3.8,0.7c2.7,0,5.3-1,7.6-3c1.8-1.5,3.5-3.3,5-5.3
	c0.2,0.9,0.5,1.7,0.9,2.5c0.8,1.7,1.8,3.1,3.2,4.2c1.4,1.1,3.1,1.7,5.2,1.8c2.1,0.1,4,0,5.6-0.5c1.6-0.5,3-1.2,4.3-2.2
	c1.3-1,2.5-2.2,3.6-3.5c1.1-1.4,2.1-2.8,3.2-4.4c1,2.3,2.3,4.2,3.8,5.4c1.6,1.3,3.2,2.1,4.9,2.3c1.7,0.2,3.5,0,5.3-0.8
	c1.8-0.8,3.4-2.1,4.9-3.9c1-1.2,1.9-2.5,2.8-4c0.2-0.3,0.3-0.6,0.5-0.9c1.1,1.8,2.3,3.3,3.7,4.4c1.6,1.3,3.5,2.2,5.4,2.6
	c2,0.4,4,0.4,6-0.1c2-0.5,3.9-1.4,5.8-2.8c1.8-1.4,3.5-3.1,5-5.4c0.3,1.2,0.8,2.4,1.4,3.8c0.7,1.4,1.5,2.7,2.5,3.9
	c1,1.2,2.1,2.2,3.4,3c0.9,0.6,2,1,3,1.2c6.3-0.7,11.1-2.3,19.3-26.7c0.6-2,1.2-4.2,1.9-6.5l0.1,0.1l0-0.1c0,0,0,0.1,0,0.2
	c1.1,0.9,2.4,1.6,4,2.3c1,0.5,2,0.9,2.9,1.3c-0.1,0.6-0.1,1-0.4,2.9c-0.4,2.5,0.4,4.2,0,5.1c-0.4,0.9-0.3-0.5-0.1,1.6
	c0.2,1.4,0.2,2,0.2,2.8c0,0.6-0.1,1.1-0.1,1.7c-0.1,2.2,0,4.4,0.2,6.6c0.2,2.2,0.6,6.3,2.6,9.3c0.5,0.9,1.1,1.6,1.8,2.3
	c1.4,1.3,3,2.2,4.7,2.8c1.7,0.5,3.5,0.6,5.3,0.3c1.8-0.3,3.5-1.1,5.1-2.3c2.1-1.5,3.9-3.5,5.5-6c0.5-0.7,0.9-1.4,1.3-2.2
	c1.2,2.5,2.8,4.4,4.8,5.8c2.1,1.5,4.7,2.3,7.5,2.4c1.6,0.1,3.3-0.1,5-0.4c6.9-2.1,8.4-4.6,8.2-6.5c-0.3-2,0,0-0.3-0.8
	c-0.3-0.8,2.3-2.8,2.8-5.6C403.3,380.7,401,381.3,398,382.5"/>
<path class="st7" d="M461.1,263.3c-0.1,1.5-0.2,2.9-0.5,4.1c-0.2,1.2-0.6,2.2-1,3c-1.1-0.3-2.2-1-3.1-2c-1-1-1.8-2.1-2.6-3.3
	c-0.9-1.4-1.6-2.7-2.2-4.1c-0.5-1.1-0.8-2-1.1-2.8c0.2-0.7,0.5-1.5,0.7-2.2c0.6-1.2,1.2-2.4,1.7-3.5c0.7-1.7,1.5-3.3,2.2-4.9
	c0.7-1.6,1.4-3.1,2.2-4.7c0.7-1.6,1.5-3.1,2.2-4.7c0.1,1.7,0.3,3.9,0.6,6.5c0.3,2.7,0.5,5.5,0.7,8.4c0.1,1.8,0.2,3.5,0.2,5.2
	C461.2,260.2,461.2,261.8,461.1,263.3 M375.4,235.8c0,0-0.2,0.5-0.7,1.3c-0.3,1.7-0.6,3.5-1,5.5c-0.5,2.4-1.1,4.9-1.8,7.5
	c-0.7,2.6-1.6,4.9-2.7,6.9c-1.1,2.1-2.3,3.7-3.6,4.9c-1.4,1.2-2.9,1.7-4.7,1.5c-0.9-0.1-1.6-0.9-2-2.2c-0.1-0.4-0.3-0.8-0.4-1.3
	c-0.2-0.5-0.3-1-0.5-1.5c-2.7-8.9,3.9-26.1,8.9-28.6c1.1-0.7,2.2-1,3.5-1c1.6,0.1,3.2,1,5,2.8c-0.1,0.7-0.2,1.9-0.4,3.3
	C375.2,235.3,375.3,235.5,375.4,235.8 M471.6,255c-0.1-1.9-0.2-3.7-0.4-5.3c-0.4-4.3-1.1-8.3-1.8-12.1c-0.8-3.8-1.5-7.1-2.2-9.8
	c-0.3-1.1-0.3-2.2,0-3.3c0.3-1.1,0.4-2.2,0.4-3.3c0-1.8-0.4-3.1-1.2-4c-0.5-0.5-1-0.9-1.6-1.1c-0.2-1.1-0.3-2-0.3-2.5v-5.2
	c0-3.3-0.8,0.2-2.3-3.8c-1.4-3.9,0,0-1.4-1.1c-1.4-1.1-1.4,0-2.3,0c-0.8,0-2.8-8.2-5.9,15.5c-0.9,6.9-2.5,13.6-4.3,19.8
	c-0.5,1-0.9,1.9-1.4,2.9c-1.9,3.9-3.7,7.6-5.5,11.2c-1.8,3.6-3.4,6.8-4.9,9.6c-0.5,1-0.8,2-0.9,3c-0.4,0.4-0.7,0.6-1,0.9
	c-0.2,0-0.3,0-0.5,0c-0.5-0.1-0.8-0.7-0.8-2c0-1.3,0.1-2.9,0.2-4.9c0.2-2,0.4-4.3,0.7-6.9c0.3-2.6,0.5-5.3,0.6-8
	c0.1-2.7,0.2-5.5,0-8.2c-0.1-2.7-0.5-5.2-1.1-7.5c-0.6-2.3-1.5-4.2-2.8-5.8c-1.2-1.6-2.9-2.7-5-3.2c-2-0.5-3.9-0.4-5.6,0.2
	c-1.7,0.6-3.3,1.5-4.7,2.7c-1.4,1.3-2.7,2.7-4,4.3c-1.2,1.6-2.3,3.2-3.3,4.9v-2.2c-0.1-2.2-0.5-4-1.5-5.2c-0.9-1.2-2-1.9-3.1-2
	c-1.2-0.1-2.3,0.4-3.3,1.4c-1.1,1-1.7,2.6-2,4.9c-0.3,8.3-0.5,15-0.8,20.2c-0.1,2.4-0.2,4.5-0.3,6.4c-0.6,1.8-1.3,3.5-2.1,5.1
	c-1.1,2.3-2.4,4.2-3.9,5.7c-1.5,1.5-3,2.2-4.7,2.1c-1.4-0.1-2.4-1-2.9-2.6c-0.6-1.6-0.8-3.6-0.9-6c0-2.4,0.2-5.1,0.6-8.1
	c0.4-3,0.9-6,1.5-9c0.6-3,1.2-5.8,1.8-8.6c0.6-2.7,1.1-5.1,1.5-6.9c0.4-1.7,0.3-3.1-0.4-4.3c-0.7-1.2-1.6-2-2.7-2.5
	c-0.5-0.2-1.1-0.4-1.6-0.5c-0.7-0.3-1.5,0-2.6-0.5c-1.4-0.7-6.4-2.2-10.2-2.7c-0.2,0-0.4-0.1-0.6-0.1c-0.6-0.1-1.1-0.1-1.7,0l-0.1,0
	v0c-2.4,0.1-4.6,0.9-6.6,2.5c-2.6,1.9-4.8,4.6-6.8,8.2c-2,3.6-3.6,7.5-4.8,11.7c-0.3,1.2-0.6,2.3-0.9,3.5c-0.3,0.6-0.6,1.3-0.8,2.2
	c-1.9,8.9-3.9,15.4-5.9,19.3c-2.1,3.9-4.2,5.6-6.6,5.1c-0.7-0.1-1.3-0.7-1.7-1.8s-0.7-2.3-0.8-3.9c-0.1-1.5-0.2-3.2-0.1-5
	c0.1-1.8,0.2-3.6,0.3-5.3c0.1-1.7,0.3-3.3,0.5-4.7c0.2-1.4,0.4-2.5,0.6-3.2c0.3-1.3,0.7-2.5,1.1-3.6c0.4-1.1,0.6-2.2,0.7-3.1
	c0.1-1,0-1.9-0.3-2.8c-0.3-0.9-1.1-1.8-2.2-2.6c-1.6-0.5-3-1.1-4.3-1.6c-1.2-0.5-2.4-1.1-3.5-1.8c-1.1-0.7-2.1-1.5-3.1-2.5
	c-1-1-2-2.2-3-3.6c0.2-1.2,0.2-2.3,0-3.3c-0.2-1-0.6-1.8-1-2.5c-0.5-0.7-1-1.3-1.7-1.6c-0.7-0.4-1.4-0.6-2.1-0.7
	c-1.2-0.1-2.3,0.3-3.4,1.2c-0.2,0.1-0.3,0.3-0.5,0.5c-2.9,1.6-8.1,8.1-2.9,13.2c-0.9,4.9-1.6,9.2-2.4,12.9c0,0.2-0.1,0.4-0.1,0.5
	c-3.9,17.8-9.4,21-16.4,22.7c-1.2-0.3-2-1.1-2.6-2.5c-0.7-1.7-1.2-3.9-1.3-6.5c-0.2-2.6-0.1-5.6,0.1-8.8c0.2-3.2,0.5-6.4,0.9-9.5
	c0.4-3.1,0.8-6,1.2-8.6c0.4-2.6,0.6-4.7,0.7-6.1h14c1.1-0.5,1.8-1.4,2.3-2.7c0.5-1.3,0.7-2.5,0.7-3.8c-0.1-1.3-0.4-2.4-1-3.5
	c-0.6-1-1.4-1.6-2.5-1.7h-12.2l1.6-11.5l0,0c1.6-7.3,1.4-13.1,0-16.6c-1.4-3.5-0.7-0.7-1.4-1.8c-0.7-1.1-0.7-0.4-1.6-1
	c-0.8-0.6-0.7,0.1-1-1c-0.3-1.1-4.2-6.5-5.6,0c-1.2,5.4-2.1,16.9-3.2,32.1l-0.2,0c0.1,0.2,0.1,0.3,0.2,0.5v0c-1.5,0.1-0.5,0-1.5,0.1
	c-0.7,0.1-0.8-0.7-1.2-0.8l-0.1,0c-0.2,0-0.4,0.2-0.8,0.8c-1.3,1.8-0.6,1-1.3,1.8c-0.7,0.8,1.8-0.1-0.7,0.8
	c-1.6,0.6-2.6,2.4-2.6,4.4c0.1,0.6,0.3,1.3,0.6,1.8c0.6,1.2,1.4,1.8,2.7,2c0.7-0.1,1.4-0.1,2.1,0c0.7,0.1,1.5,0.1,2.1,0l0,0.3
	c0,0.7-0.4,5.6-1.5,15.9c-0.2,2.1-0.5,3.9-0.8,5.6c0,0.2,0,0.5-0.1,0.7l-0.1,0.1c-1.4,6.8-3.4,10.4-5.4,14.4
	c-1.7,3.4-3.4,4.3-4.8,3.9c-0.2,0-0.5,0-0.7-0.1c-0.4-0.2-0.8-0.6-1-1.2l-0.1-0.1l0-0.1c-0.2-0.4-0.3-0.9-0.4-1.5
	c-0.2-1.5-0.3-3.3-0.2-5.5c0.1-2.2,0.3-4.6,0.6-7.4c0.3-2.7,0.7-5.6,1.2-8.5c0.1-0.5,0.2-1,0.3-1.4c0.5-3.6,1.7-11.1,0.6-13.2
	c-1.2-2.3-2.1-0.2-2.1-0.2s-2.1,1.5-3.3,1c-1.2-0.5-4.4,2.3-5.5,9.6c-2.1,14.5-5.4,22.1-8,26.3c-0.6,1.1-1.2,2-1.8,2.9
	c-1.4,1.8-2.9,2.6-4.5,2.2c-0.9-0.2-1.5-1.3-1.7-3.3c-0.2-2-0.3-4.5-0.1-7.5c0.2-3,0.5-6.2,1-9.8c0.5-3.6,1-6.9,1.5-10.1
	c0.5-3.2,1-6,1.5-8.4c0.4-2.4,0.7-4.1,0.9-4.9c0-2-0.4-3.5-1.1-4.7c-0.7-1.2-1.6-1.9-2.6-2.2c-1-0.3-2.1-0.1-3.2,0.5
	c-1.1,0.6-2,1.8-2.8,3.5c-0.3,1.8-0.6,3.9-1.1,6.3c-0.4,2.4-0.9,4.9-1.3,7.4c-0.4,2.5-0.8,5-1.2,7.5c-0.4,2.4-0.6,4.6-0.8,6.4
	c-0.1,1.4-0.2,3.2-0.4,5.2c-0.1,2.1-0.2,4.2-0.2,6.5c0,2.3,0.1,4.6,0.4,6.8c0.3,2.3,0.8,4.3,1.5,6.2c0.7,1.9,1.7,3.4,3,4.7
	c1.3,1.2,3,1.9,5,2c2.1,0.1,3.8-0.1,5.4-0.6c1.5-0.5,2.9-1.3,4.2-2.4c1.3-1.1,2.4-2.4,3.4-3.9c1-1.5,2-3.1,3-4.9
	c0.9,2.6,2.2,4.6,3.7,6c1.5,1.4,3.1,2.3,4.7,2.5c1.7,0.3,3.4,0,5.1-0.9c1.7-0.8,3.3-2.3,4.7-4.3c0.9-1.3,1.8-2.7,2.7-4.4
	c0.3-0.5,0.5-1,0.7-1.5c0.3,1.2,0.6,2.3,0.9,3.4c0.9,2.6,2.2,4.6,4,6c1.7,1.5,4,2.2,6.9,2.2c3.7,0,7-0.6,9.8-1.9
	c1.3-0.6,2.5-1.4,3.6-2.2l0,0c0.1-0.1,0.2-0.2,0.4-0.3c1.6-1.3,2.9-2.7,4.1-4.4c0.1-0.1,0.2-0.3,0.3-0.4c0.2-0.3,0.4-0.7,0.7-1
	c0.1-0.2,0.2-0.3,0.3-0.5c0.2-0.3,0.4-0.7,0.6-1c0.1-0.2,0.2-0.4,0.3-0.6c0.2-0.3,0.4-0.7,0.5-1c0.1-0.2,0.2-0.4,0.3-0.6
	c0.2-0.3,0.3-0.7,0.5-1c0.1-0.2,0.2-0.5,0.3-0.7c0.1-0.3,0.3-0.7,0.4-1c0.1-0.2,0.2-0.5,0.3-0.7c0.1-0.3,0.3-0.7,0.4-1
	c0.1-0.3,0.2-0.5,0.3-0.8c0.1-0.3,0.2-0.7,0.3-1c0.1-0.3,0.2-0.6,0.3-0.9c0.1-0.3,0.2-0.6,0.3-1c0.1-0.4,0.2-0.7,0.3-1.1
	c0.1-0.3,0.2-0.5,0.2-0.8c0.6-1.8,1.1-3.7,1.6-5.6c0.8-3.1,1.7-6.7,2.8-10.7c1.1,1,2.4,1.9,4,2.7c1.6,0.8,3,1.5,4.2,2.2
	c-1,4.9-1.6,9.8-1.8,14.7c-0.2,4.9,0.3,9.7,1.6,14.4c0.6,2.3,1.6,4.2,3,5.6c1.4,1.5,2.9,2.5,4.5,3c1.7,0.6,3.4,0.7,5.1,0.3
	c1.7-0.4,3.4-1.2,4.9-2.5c2-1.7,3.7-3.9,5.2-6.5c0.6-1,1.1-2,1.6-3.1c0.7,1.7,1.7,3.3,2.8,4.6c2,2.3,4.6,3.4,8,3.4
	c1.5,0,2.9-0.4,4.3-1.1c1.4-0.7,2.7-1.6,3.8-2.6c1.2-1,2.2-2.1,3.1-3.2c0.9-1.1,1.6-2,2.1-2.8c0.4,2.4,1,4.5,1.9,6.2
	c0.9,1.7,1.9,3.1,3,4.2c1.1,1.1,2.3,1.9,3.6,2.4c1.2,0.5,2.5,0.8,3.6,0.8c2.6,0,5-1.1,7.3-3.2c1-1,2-2.1,3-3.3
	c0.3,1.4,0.9,2.4,1.8,3c1,0.7,2.1,0.9,3.2,0.8c1.1-0.1,2.1-0.6,3.1-1.3c0.9-0.7,1.5-1.5,1.7-2.5c0.1-2.1,0.3-4.6,0.7-7.7
	c0.4-3,1-6.1,1.7-9.3c0.7-3.2,1.6-6.3,2.6-9.3c1-3,2.1-5.7,3.3-8.1c1.2-2.3,2.5-4.1,3.9-5.3c1.4-1.2,2.8-1.6,4.3-1.1
	c1.1,0.3,1.8,1.2,2.2,2.6c0.3,1.4,0.5,3.1,0.4,5.1c-0.1,2-0.2,4.3-0.6,6.8c-0.3,2.5-0.6,5.1-0.9,7.7c-0.3,2.6-0.4,5.2-0.5,7.8
	c-0.1,2.5,0.2,4.9,0.7,7s1.3,4,2.5,5.5c1.2,1.5,2.9,2.6,5.1,3.1c2.2,0.5,4.3,0.2,6.4-1c2-1.2,3.9-3,5.6-5.3c0.2-0.2,0.3-0.5,0.5-0.7
	c1.4,2.7,3,4.9,5,6.7c1.5,1.4,3.1,2.5,4.8,3.4c0.3,0.1,0.5,0.2,0.8,0.3c12.9,5.6,15.5-4.8,16.5-18.5c0-0.8,0.1-1.6,0.1-2.4
	C471.7,258.8,471.7,256.9,471.6,255"/>
<path class="st7" d="M493.5,372.5c-4.5-2.6-2.6-3.9-8.2-6.7c-5.1-2.5-8.9-6.8-15-10.7c6.2-2.3,14.3-4.5,15.7-5.5
	c3.7-2.6,15.8-9.3,13.3-13.1c-2.5-3.7-9.9-3.4-9.9-3.4c-1.1,0.7-6,4-13.4,6.7c-5.1,1.9-5.9,2.2-7.5,3.2c1.1-5.3,0.8-4.7,1.5-12.9
	c0.7-9,0-11.9,0-13.1c0-1.1-6-3.4-6-3.4c-1.1,1.9-5.6-0.4-5.6,9.3c0,9.7,2.2,7.8,0,14.5c-1.8,5.5-2.2,3.9-2.8,7.1
	c-11-6.8-11.3-3.4-17.3-10.5c-6.3-7.5-12.3-7.3-12.3-7.3c-0.8,6.6-4.8,9.9,0,13.7c4.8,3.7,5.6,4.1,7.8,4.5c2.2,0.4,1.1-2.6,4.5,0
	c3.4,2.6,0.7-2.7,4.8,2.7c1.7,2.2,4.3,4.8,7.1,7.1c-10.3,6.3-9.7,5.3-13.8,8.5c-4.5,3.6-6.3-1.6-6.3,5.1s-9.3,9.3,0,9
	c9.3-0.4,11.6-6,12.3-7.5c0.7-1.5,0.4-6.4,4.5-6.6c0.9,0,3.2-0.6,6.3-1.6c-0.2,10.6,1.1,9,0,12.6c-1.1,3.7-5.6,26.9-2.2,30.2
	c3.4,3.4,5.9,3.4,5.9,3.4s2.7,12.5,1.5-1.6c-1.1-14.1-1.5-16.3-1.5-16.3s-2.3-1.9,0-3.4c2.3-1.5,1.2-1.1,3-3.7
	c0.4-0.6,0.6-0.6,0.7-0.4c0.1-0.8,0.4-2.1,0.8-4.1c2.1-9.7-0.7-4.6,2.4-15.2c3.7,3,9.1,8.6,11,11.4c2.6,3.7,3.7,5.8,8.2,9.2
	c4.5,3.4,2.2,3.3,3.2,5.3c0.9,1.9,1.9,0.7,4.4,2c1.2,0.6,1.9,1.3,4.9-2.9c3-4.2,1.8-5,1.8-8C497.3,377.7,498,375.2,493.5,372.5"/>
<path class="st7" d="M207,238.4c-1.4,0.2-3,0.5-4.6,0.7c-1.6,0.2-3.4,0.5-5.2,0.7c-1.4,0.1-2.9,0.3-4.4,0.4h-1.6
	c0,0,0.2-3.9,1.1-5.6c0.9-1.7,1.9-6.6,2.3-8.1c0.4-1.5,0.4-2.9,1.1-4.3c0.7-1.2,2.8-11.5,3-12.7l0-0.1c0,0,0,0,0,0.1
	c0.1,0,0.7-1,0-1.1c-0.8-0.1-2-0.5,0.3-3.3c2.1-2.6,5.1-15.9,6-18.5c0,0.4,0.1,0.8,0.1,1.3c0.4,3.3,0.6,6.7,1.1,10.1
	c0.4,3.4,0.9,6.9,1.3,10.4c0.4,3.5,0.9,7,1.4,10.5c0.5,3.5,1,7.1,1.4,10.6c0.4,2.7,0.8,5.4,1.2,8C210.3,237.8,208.8,238.1,207,238.4
	 M228.3,293.3c-1.3-4.6-4.4-21.1-5.3-26.6c-0.3-2.3-0.7-4.6-1-7c-0.5-3.4-1-6.8-1.4-10.2l0-0.1c3.4-1.2,5.4-4.8,4.4-8.3
	c-0.8-2.8-3.1-4.7-5.8-5c-0.3-2.5-0.5-5-0.7-7.6c-0.4-7-1-14.1-1.1-21c-0.2-6.9-0.4-13.8-0.3-20.4c0-3.3,0-6.5,0-9.7
	c0.1-3.2,0.1-6.3,0.2-9.3c0-3,0.2-5.9,0.3-8.8c0.1-2.8,0.1-5.6,0.3-8.2c0.1-2.6,0.2-5.1,0.3-7.5c0-1.2,0.1-2.4,0.2-3.5
	c0.1-1.1,0.1-2.2,0.2-3.3c0-0.5,0.1-1,0.1-1.4c0.2-0.7,0.4-1.5,0.6-2.2c1-4.1,2-7.9,2.9-11.2c0.9-3.3,1.6-6.2,2.2-8.6
	c1.3-4.8,2-7.5,2-7.5l0-0.1c0-0.1,0.1-0.2,0.1-0.3c1.1-5-2-9.9-7-11c-5-1.1-9.9,2-11,7c0,0-0.6,2.8-1.7,7.6c-0.4,1.8-0.9,4-1.4,6.4
	l-0.2,0.1c-0.5,0.4-1.1,1-1.6,1.8c-0.5,0.8-0.8,1.9-0.8,3.1c-0.1,1.2-0.1,2.7-0.2,4.2c0,1.3-0.1,2.7-0.1,4.3l0,0
	c-0.9,4.2-1.9,8.6-2.9,13.4c-1,4.8-2.1,9.8-3.2,15c-2.1,10.4-4.4,21.5-6.7,32.6c-1.1,5.5-2.3,11.1-3.4,16.5
	c-1.1,5.5-2.1,10.8-3.2,16c-1.2,6.2-2.4,12.2-3.5,17.8c-1.6,0-3.3-0.1-4.8-0.2c-1.8-0.1-3.5-0.2-5.1-0.4c-1.6-0.2-3.1-0.4-4.4-0.6
	c-1-0.2-1.9-0.4-2.7-0.6c-8.4-1.4-5.5,6.6-4.8,7.1c0.7,0.6,0.8,1.4,0.9,2.4c0.1,0.9,0.6,2.1,5.9,2.5c1.9,0.1,3.8,0.1,5.1,0.2
	c0.5,0,0.9,0.1,1.3,0.2c1.2,0,2.4,0,3.7,0c1,0,2,0,3-0.1l0,0.1c-3.2,16.6-5.4,27.7-5.4,27.7c-0.6,3,1.3,5.9,4.2,6.6
	c2.1,0.5,4.1-0.2,5.4-1.7c0.7-1.2,1-1.6,1.2-2c0-0.2,0.1-0.3,0.1-0.5c0,0,0.1-0.6,0.4-1.7c0-0.2,0.1-0.4,0.1-0.6
	c0.6-3.2-0.9-3.9,0-5.4c0.9-1.5,0.9-1.9,1.3-2.8c0.4-0.9-0.8-2.1,0-3.2c0.8-1.1,1.1-1.2,1.3-2.6c0.2-1.4-0.6-1.8,0-3.3
	c0.6-1.5,0.8-3.9,0.9-4.9c0.2-0.8,1.4-5,1.8-6.1c3.1-0.1,6.1-0.3,9-0.4c1.9-0.1,3.7-0.2,5.4-0.2c1.7-0.1,3.3-0.2,4.8-0.2
	c1.6,0,3.1-0.1,4.4-0.1c1.2,9.2,2,16.2,1.8,19c-0.3,3.1,3.4,10.2,3,12.4c-0.4,2.3-0.7,4.2,0,8.4c0.3,1.7,1.1,5.6,2.1,9.9
	c0.2,4.7,0.6,8.6,1,10.8c0.5,2.9-0.2,4.9,2.1,5.5c2.3,0.5,1.5,2.2,5,2c3.4-0.2,6.7-1.2,6.5-5.9C233.8,307.2,229.8,298.1,228.3,293.3
	"/>
</svg>
