<?xml version="1.0" encoding="utf-8"?>
<!-- Generator: Adobe Illustrator 25.0.1, SVG Export Plug-In . SVG Version: 6.00 Build 0)  -->
<svg version="1.1" id="Calque_1" xmlns="http://www.w3.org/2000/svg" xmlns:xlink="http://www.w3.org/1999/xlink" x="0px" y="0px"
	 viewBox="0 0 595.3 297.3" style="enable-background:new 0 0 595.3 297.3;" xml:space="preserve">
<style type="text/css">
	.st0{fill:#E3272A;}
</style>
<g>
	<path class="st0" d="M46.7,59.8h12.7v69H46.7v-2.9c-2.6,2.4-6,3.8-10.7,3.8c-13.1,0-19.8-9.3-19.8-22.6v-6.8
		c0-14.6,7.9-22.4,19.8-22.4c4.3,0,7.9,1.1,10.7,3.5V59.8z M46.7,106.3V100c0-7.3-2.9-11.3-8.9-11.3c-6.3,0-8.9,4.4-8.9,12.4v5.2
		c0,7.2,2,12.6,8.9,12.6C45,118.9,46.7,113.5,46.7,106.3z"/>
	<path class="st0" d="M112,128.8H99.5v-4.2c-2.1,3.4-4.8,5.1-11.4,5.1c-10.1,0-18.4-5-18.4-19.7V78.8h12.8v29.3
		c0,7.9,2.8,10.6,8.1,10.6c5.9,0,8.7-3.6,8.7-10.5V78.8H112V128.8z"/>
</g>
<g>
	<path class="st0" d="M213.8,128.8h-63.9v-13.5l34.6-40.8c6.4-7.5,9.6-13.8,9.6-20.5c0-8.4-6.1-12.6-12.9-12.6
		c-7,0-12.3,4.3-12.9,12.6h-18.6c0-17.8,14.7-30,32.5-30c18.6,0,32.7,12.9,32.7,30c0,13.6-9,24.3-15.6,32.1l-21.3,25h35.7V128.8z"/>
</g>
<g>
	<path class="st0" d="M269.3,98.8h9.9v-2.9c0-5.6-1.7-7.4-8.9-7.4c-4.9,0-7.3,0.7-9.4,4l-9-6.3c3.7-6.1,9.3-8.3,19.6-8.3
		c12.9,0,20.2,3.8,20.2,18.1v32.8h-12.5v-4.4c-2,3.4-5,5.3-10.8,5.3c-10.4,0-17.6-5.5-17.6-15.7C250.8,103.4,258.8,98.8,269.3,98.8z
		 M279.2,108.2h-8.4c-5.2,0-7.5,1.7-7.5,5.6c0,3.8,2.9,5.6,7.3,5.6c5.8,0,8.6-2.5,8.6-9.3V108.2z"/>
	<path class="st0" d="M344.2,128.8h-12.5v-4.2c-2.1,3.4-4.8,5.1-11.4,5.1c-10.1,0-18.4-5-18.4-19.7V78.8h12.8v29.3
		c0,7.9,2.8,10.6,8.1,10.6c5.9,0,8.7-3.6,8.7-10.5V78.8h12.7V128.8z"/>
</g>
<g>
	<path class="st0" d="M403.5,66.6h7.6c8.5,0,14.4-4.5,14.4-13.2c0-6.9-5.2-12-12.9-12c-7.3,0-12,4.6-12.9,11.1h-18.6
		c0.8-16.9,14.7-28.5,32.5-28.5c18.9,0,32.7,13,32.7,28.5c0,11.7-7.2,18.9-14.1,22.6c8.8,4.3,15.6,12.4,15.6,24.7
		c0,16.8-11.7,30.3-33,30.3c-21.9,0-34.3-12.3-35.1-29.1h18.4c1.1,6.6,6,11.4,15.3,11.4c8.4,0,13.5-6,13.5-13.6
		c0-9.1-5.2-14.5-15.9-14.5h-7.6V66.6z"/>
	<path class="st0" d="M510,128.8h-21V47.2L474.1,57V36.7l16.9-11.4H510V128.8z"/>
</g>
<g>
	<path class="st0" d="M32.3,251.5c0,12.8-6.1,16.3-19.4,16.3v-11c5.3,0,6.7-2.4,6.7-7.1v-50.9h12.7V251.5z M19.1,179.8h13.7v12.4
		H19.1V179.8z"/>
	<path class="st0" d="M59.1,218.8H69v-2.9c0-5.6-1.7-7.4-8.9-7.4c-4.9,0-7.3,0.7-9.4,4l-9-6.3c3.7-6.1,9.3-8.3,19.6-8.3
		c12.9,0,20.2,3.8,20.2,18.1v32.8H69v-4.4c-2,3.4-5,5.3-10.8,5.3c-10.4,0-17.6-5.5-17.6-15.7C40.6,223.4,48.6,218.8,59.1,218.8z
		 M69,228.2h-8.4c-5.2,0-7.5,1.7-7.5,5.6c0,3.8,2.9,5.6,7.3,5.6c5.8,0,8.6-2.5,8.6-9.3V228.2z"/>
	<path class="st0" d="M91.7,198.8h12.5v4.2c1.9-2.5,5.9-5.1,11.5-5.1c10.1,0,18.3,4.8,18.3,19.6v31.3h-12.7v-29.3
		c0-7.8-2.8-10.6-8-10.6c-5.9,0-8.8,3.9-8.8,10.5v29.4H91.7V198.8z"/>
	<path class="st0" d="M188.8,198.8l-19,50h-12l-19.4-50h14l11.2,32.4l11.1-32.4H188.8z"/>
	<path class="st0" d="M194.9,179.8h13.8v12.4h-13.8V179.8z M195.4,198.8h12.8v50h-12.8V198.8z"/>
	<path class="st0" d="M258.6,241.2c-3.5,6.1-9.3,8.5-18.3,8.5c-15,0-22.2-9.7-22.2-22.6v-6.8c0-15.1,7.6-22.4,20.6-22.4
		c14.1,0,20.6,8.2,20.6,23.4v5.7h-28.5c0.1,6.9,2.3,11.9,9.4,11.9c5.3,0,7-1.6,8.9-4.3L258.6,241.2z M230.8,217.9h15.7
		c-0.3-6.5-2.9-9.2-7.7-9.2C233.7,208.7,231.3,212.2,230.8,217.9z"/>
	<path class="st0" d="M295.6,212.7c-1.3-1.9-3.1-3.8-6.3-3.8c-4.8,0-8,3.5-8,10.5v29.4h-12.8v-50H281v4.2c1.7-2.5,5-5.1,10.9-5.1
		c6,0,10.5,2.6,13.5,7.8L295.6,212.7z"/>
	<path class="st0" d="M377.1,248.8h-42.6v-9l23.1-27.2c4.3-5,6.4-9.2,6.4-13.7c0-5.6-4.1-8.4-8.6-8.4c-4.7,0-8.2,2.9-8.6,8.4h-12.4
		c0-11.9,9.8-20,21.7-20c12.4,0,21.8,8.6,21.8,20c0,9.1-6,16.2-10.4,21.4L353.3,237h23.8V248.8z"/>
	<path class="st0" d="M433.6,227.7c0,15.5-10.8,22-23.2,22c-12.4,0-23.2-6.5-23.2-22v-26.8c0-16.2,10.8-22,23.2-22
		c12.4,0,23.2,5.8,23.2,21.9V227.7z M410.4,190.7c-6.3,0-9.3,4-9.3,11.4v24.4c0,7.4,3,11.4,9.3,11.4c6.2,0,9.2-4,9.2-11.4v-24.4
		C419.6,194.7,416.6,190.7,410.4,190.7z"/>
	<path class="st0" d="M485.1,248.8h-42.6v-9l23.1-27.2c4.3-5,6.4-9.2,6.4-13.7c0-5.6-4.1-8.4-8.6-8.4c-4.7,0-8.2,2.9-8.6,8.4h-12.4
		c0-11.9,9.8-20,21.7-20c12.4,0,21.8,8.6,21.8,20c0,9.1-6,16.2-10.4,21.4L461.3,237h23.8V248.8z"/>
	<path class="st0" d="M527.8,248.8h-14v-54.4l-9.9,6.5v-13.5l11.3-7.6h12.6V248.8z"/>
</g>
</svg>
