<svg xmlns="http://www.w3.org/2000/svg" width="804" height="156" viewBox="0 0 201 39"><g><g><path d="M.848 30.63V4.607l5.441-2.72V30.63z"/></g><g><path d="M13.23 22.036c.196 2.838 2.285 3.902 4.257 3.902 1.498 0 2.76-.552 3.548-1.46l3.864 3.234c-1.656 2.13-4.652 3.352-7.412 3.352-5.955 0-9.739-4.22-9.739-10.764 0-6.347 3.982-10.803 9.226-10.803 5.52 0 8.713 4.889 8.713 10.803 0 .788-.039 1.34-.078 1.736zm.077-4.101h7.098c-.158-1.854-1.262-3.707-3.707-3.707-1.97 0-3.193 1.617-3.39 3.707z"/></g><g><path d="M46.9 30.63v-1.301c-1.025.907-2.405 1.735-4.376 1.735-4.417 0-8.044-3.311-8.044-11.04 0-6.19 2.918-10.527 8.044-10.527 1.813 0 3.39.709 4.376 1.616V4.607l5.44-2.72V30.63zm0-14.233c-.828-1.144-2.09-1.774-3.667-1.774-2.09 0-3.233 1.813-3.233 5.283 0 4.258 1.419 6.032 3.548 6.032 1.696 0 2.563-.71 3.352-1.734z"/></g><g><path d="M66.14 30.63v-1.38c-.985 1.025-2.72 1.814-4.653 1.814-3.864 0-7.727-2.366-7.727-7.373 0-4.573 3.706-6.861 8.398-6.861 1.893 0 3.115.395 3.982.829v-1.026c0-1.458-.985-2.642-2.957-2.642-2.484 0-3.785.355-5.677 1.38l-2.09-3.785c2.405-1.38 4.416-2.09 7.767-2.09 5.008 0 8.398 2.603 8.398 7.255V30.63zm0-8.674c-.946-.591-1.853-.868-3.785-.868-2.05 0-3.154.948-3.154 2.603 0 1.459.828 2.76 3.154 2.76 1.775 0 3.194-.907 3.785-1.892z"/></g><g><path d="M86.012 30.63v-1.38c-.947.985-2.682 1.814-4.85 1.814-5.283 0-7.649-3.627-7.649-9.464V9.93h5.441v11.198c0 3.706 1.262 4.81 3.51 4.81 2.246 0 3.548-1.104 3.548-4.692V9.93h5.441v20.7z"/></g><g><path d="M99.22 29.447v6.072l-5.44 2.72V9.932h5.44v1.3c1.025-.907 2.405-1.734 4.376-1.734 4.416 0 8.044 3.312 8.044 11.04 0 6.19-2.918 10.527-8.044 10.527-1.813 0-3.39-.71-4.376-1.617zm0-13.09v7.807c.828 1.143 2.09 1.774 3.666 1.774 2.09 0 3.234-1.814 3.234-5.283 0-4.258-1.419-6.032-3.548-6.032-1.695 0-2.563.709-3.352 1.734z"/></g><g><path d="M125.48 30.63V19.432c0-3.707-1.263-4.809-3.51-4.809s-3.547 1.102-3.547 4.691V30.63h-5.444V4.607l5.444-2.72v9.423c.945-.986 2.68-1.813 4.847-1.813 5.285 0 7.65 3.627 7.65 9.462V30.63z"/></g><g><path d="M135.968 8.235c1.695 0 3.113-1.42 3.113-3.115 0-1.695-1.418-3.115-3.113-3.115-1.697 0-3.117 1.42-3.117 3.115 0 1.695 1.42 3.115 3.117 3.115zm-2.722 22.395h5.441V9.93h-5.441z"/></g><g><path d="M153.709 30.63V19.432c0-3.707-1.262-4.809-3.509-4.809-2.248 0-3.548 1.102-3.548 4.691V30.63h-5.441V9.93h5.441v1.38c.946-.986 2.68-1.813 4.85-1.813 5.283 0 7.65 3.627 7.65 9.462V30.63z"/></g><g><path d="M165.696 22.035c.196 2.84 2.287 3.903 4.257 3.903 1.5 0 2.761-.552 3.55-1.459l3.863 3.233c-1.655 2.13-4.652 3.352-7.413 3.352-5.953 0-9.739-4.219-9.739-10.764 0-6.348 3.983-10.803 9.226-10.803 5.521 0 8.715 4.89 8.715 10.803 0 .788-.04 1.34-.079 1.735zm.078-4.1h7.096c-.156-1.854-1.26-3.707-3.704-3.707-1.972 0-3.195 1.617-3.392 3.707zm5.047-10.765h-4.612l3.43-6.309h6.898z"/></g><g><path d="M183.106 30.98v-6.567l.648-.38v6.946z"/></g><g><path d="M185.354 25.033c.239 0 .439-.219.439-.478 0-.256-.2-.475-.439-.475a.474.474 0 0 0-.465.475c0 .259.208.478.465.478zm-.341 5.946h.646v-5.003h-.646z"/></g><g><path d="M187.519 30.598v.382h-.648v-6.567l.648-.38v2.372c.256-.286.62-.533 1.087-.533.913 0 1.419.886 1.419 2.563 0 1.715-.553 2.65-1.488 2.65-.436 0-.762-.211-1.018-.487zm0-3.64v3.02c.248.306.57.515.98.515.63 0 .878-.8.878-2.048 0-1.345-.304-1.983-.915-1.983-.361 0-.687.2-.943.496z"/></g><g><path d="M191.426 28.702c.046 1.076.372 1.78.99 1.78.401 0 .687-.161 1.03-.561l.391.419c-.429.487-.867.744-1.458.744-.866 0-1.593-.82-1.593-2.602 0-1.658.64-2.61 1.621-2.61 1.022 0 1.563.97 1.563 2.573 0 .114 0 .18-.01.257zm.008-.581h1.908c-.039-.963-.334-1.65-.954-1.65-.524 0-.896.515-.954 1.65zm1.058-2.812h-.485l.82-1.524h.894z"/></g><g><path d="M196.982 26.654a1.077 1.077 0 0 0-.6-.153c-.315 0-.612.257-.792.562v3.917h-.648v-5.004h.648v.429c.2-.295.552-.533.962-.533.295 0 .467.037.61.104z"/></g><g><path d="M198.336 28.702c.045 1.076.37 1.78.99 1.78.4 0 .686-.161 1.028-.561l.392.419c-.43.487-.866.744-1.458.744-.868 0-1.593-.82-1.593-2.602 0-1.658.641-2.61 1.62-2.61 1.021 0 1.565.97 1.565 2.573 0 .114 0 .18-.01.257zm.008-.581h1.906c-.038-.963-.334-1.65-.953-1.65-.523 0-.895.515-.953 1.65zm1.057-2.812h-.483l.817-1.524h.895z"/></g></g></svg>