<?xml version="1.0" encoding="utf-8"?>
<!-- Generator: Adobe Illustrator 25.0.1, SVG Export Plug-In . SVG Version: 6.00 Build 0)  -->
<svg version="1.1" id="Calque_1" xmlns="http://www.w3.org/2000/svg" xmlns:xlink="http://www.w3.org/1999/xlink" x="0px" y="0px"
	 viewBox="0 0 600 237.2" style="enable-background:new 0 0 600 237.2;" xml:space="preserve">
<style type="text/css">
	.st0{fill:#E30613;}
	.st1{fill:#FFFFFF;}
</style>
<rect class="st0" width="600" height="237.2"/>
<path class="st1" d="M30.7,147.6V77.3L45.4,70v77.6 M97.5,124.4c0.1-1.1,0.2-2.6,0.2-4.7c0-15.9-8.6-29.1-23.5-29.1
	c-14.1,0-24.9,12-24.9,29.1c0,17.7,10.2,29.1,26.3,29.1c7.5,0,15.5-3.3,20-9l-10.4-8.7c-2.1,2.4-5.5,3.9-9.6,3.9
	c-5.3,0-11-2.9-11.5-10.5L97.5,124.4 M73.4,103.3c6.6,0,9.6,5,10,10H64.3C64.8,107.7,68.1,103.3,73.4,103.3 M169.6,147.6V70
	l-14.7,7.3v17.6c-2.7-2.4-6.9-4.4-11.8-4.4c-13.8,0-21.7,11.7-21.7,28.4c0,20.9,9.8,29.8,21.7,29.8c5.3,0,9-2.2,11.8-4.7v3.5
	 M154.9,130.2c-2.1,2.8-4.5,4.7-9,4.7c-5.7,0-9.6-4.8-9.6-16.3c0-9.4,3.1-14.3,8.7-14.3c4.3,0,7.7,1.7,9.9,4.8L154.9,130.2
	L154.9,130.2z M221.5,147.6v-37.5c0-12.5-9.1-19.6-22.7-19.6c-9,0-14.5,1.9-21,5.6l5.6,10.2c5.1-2.8,8.6-3.7,15.3-3.7
	c5.3,0,8,3.2,8,7.1v2.8c-2.3-1.2-5.6-2.2-10.7-2.2c-12.7,0-22.7,6.2-22.7,18.5c0,13.5,10.4,19.9,20.8,19.9c5.2,0,9.9-2.1,12.6-4.9
	v3.7 M206.9,131.2c-1.6,2.7-5.4,5.1-10.2,5.1c-6.3,0-8.5-3.5-8.5-7.4c0-4.5,3-7,8.5-7c5.2,0,7.7,0.8,10.2,2.3V131.2z M275.2,147.6
	V91.7h-14.7v30.5c0,9.7-3.5,12.7-9.6,12.7c-6.1,0-9.5-3-9.5-13V91.7h-14.7v31.5c0,15.7,6.4,25.5,20.6,25.5c5.8,0,10.5-2.2,13.1-4.9
	v3.7 M307.9,148.7c13.8,0,21.7-11.7,21.7-28.4c0-20.9-9.8-29.8-21.7-29.8c-5.3,0-9,2.2-11.8,4.7v-3.5h-14.7v76.4l14.7-7.4v-16.4
	C298.8,146.8,303,148.7,307.9,148.7 M305.2,104.4c5.7,0,9.6,4.8,9.6,16.3c0,9.4-3.1,14.2-8.7,14.2c-4.3,0-7.7-1.7-9.9-4.8V109
	C298.3,106.3,300.6,104.4,305.2,104.4 M381.7,147.6v-31.5c0-15.8-6.4-25.5-20.6-25.5c-5.8,0-10.5,2.2-13.1,4.9V70.1l-14.7,7.2v70.2
	H348V117c0-9.7,3.5-12.7,9.6-12.7s9.5,3,9.5,13v30.2 M395.3,87.1c4.6,0,8.4-3.8,8.4-8.4s-3.8-8.4-8.4-8.4s-8.4,3.8-8.4,8.4
	S390.7,87.1,395.3,87.1 M388,147.6h14.7V91.7H388V147.6z M457.9,147.6v-31.5c0-15.8-6.4-25.5-20.6-25.5c-5.8,0-10.5,2.2-13.1,4.9
	v-3.7h-14.7v55.9h14.7v-30.5c0-9.7,3.5-12.7,9.6-12.7s9.5,3,9.5,13v30.2 M508.9,124.4c0.1-1.1,0.2-2.6,0.2-4.7
	c0-16-8.6-29.1-23.5-29.1c-14.1,0-24.9,12-24.9,29.1c0,17.7,10.2,29.1,26.3,29.1c7.5,0,15.5-3.3,20-9l-10.4-8.7
	c-2.1,2.4-5.5,3.9-9.6,3.9c-5.3,0-11-2.9-11.5-10.5L508.9,124.4 M484.9,103.3c6.6,0,9.6,5,10,10h-19.2
	C476.3,107.7,479.6,103.3,484.9,103.3 M504.8,67.2h-18.6l-9.3,17h12.4L504.8,67.2z M522.1,147.5h1.8v-18.8h-1.8V147.5z M528.2,131.4
	c0.6,0,1.2-0.6,1.2-1.3s-0.5-1.3-1.2-1.3s-1.3,0.6-1.3,1.3S527.5,131.4,528.2,131.4 M527.2,147.5h1.8v-13.6h-1.8V147.5z
	 M536.8,147.8c2.5,0,4-2.5,4-7.2c0-4.5-1.4-6.9-3.8-6.9c-1.3,0-2.2,0.7-2.9,1.5v-6.4l-1.8,1v17.8h1.8v-1
	C534.7,147.2,535.6,147.8,536.8,147.8 M536.6,135.3c1.6,0,2.5,1.7,2.5,5.4c0,3.4-0.7,5.6-2.4,5.6c-1.1,0-2-0.6-2.7-1.4v-8.2
	C534.7,135.8,535.6,135.3,536.6,135.3 M551.5,141.3c0-0.2,0-0.4,0-0.7c0-4.3-1.5-7-4.2-7s-4.4,2.6-4.4,7.1c0,4.8,2,7,4.3,7
	c1.6,0,2.8-0.7,3.9-2l-1.1-1.1c-0.9,1.1-1.7,1.5-2.8,1.5c-1.7,0-2.6-1.9-2.7-4.8H551.5 M547.2,135.3c1.7,0,2.5,1.9,2.6,4.5h-5.2
	C544.8,136.7,545.8,135.3,547.2,135.3 M550.8,128h-2.4l-2.2,4.1h1.3L550.8,128z M560.2,134c-0.4-0.2-0.9-0.3-1.6-0.3
	c-1.1,0-2.1,0.6-2.6,1.5V134h-1.8v13.6h1.8V137c0.5-0.8,1.3-1.5,2.1-1.5c0.7,0,1.1,0.1,1.6,0.4 M570.2,141.3c0-0.2,0-0.4,0-0.7
	c0-4.3-1.5-7-4.2-7s-4.4,2.6-4.4,7.1c0,4.8,2,7,4.3,7c1.6,0,2.8-0.7,3.9-2l-1.1-1.1c-0.9,1.1-1.7,1.5-2.8,1.5
	c-1.7,0-2.6-1.9-2.7-4.8H570.2 M566,135.3c1.7,0,2.5,1.9,2.6,4.5h-5.2C563.5,136.7,564.5,135.3,566,135.3 M569.6,128h-2.4l-2.2,4.1
	h1.3L569.6,128z"/>
</svg>
