<?xml version="1.0" encoding="utf-8"?>
<!-- Generator: Adobe Illustrator 25.0.1, SVG Export Plug-In . SVG Version: 6.00 Build 0)  -->
<svg version="1.1" id="Calque_1" xmlns:ooo="http://xml.openoffice.org/svg/export"
	 xmlns="http://www.w3.org/2000/svg" xmlns:xlink="http://www.w3.org/1999/xlink" x="0px" y="0px" viewBox="0 0 595.3 595.3"
	 style="enable-background:new 0 0 595.3 595.3;" xml:space="preserve">
<style type="text/css">
	.st0{clip-path:url(#SVGID_2_);}
	.st1{fill-rule:evenodd;clip-rule:evenodd;fill:#FFFFFF;}
	.st2{fill-rule:evenodd;clip-rule:evenodd;fill:#231F20;}
	.st3{fill-rule:evenodd;clip-rule:evenodd;fill:#127BCA;}
</style>
<g>
	<g id="id2">
		<g id="bg-id2">
		</g>
		<g id="bo-id2">
		</g>
	</g>
</g>
<g>
	<g>
		<g>
			<defs>
				<rect id="SVGID_1_" y="0" width="595.3" height="595.3"/>
			</defs>
			<clipPath id="SVGID_2_">
				<use xlink:href="#SVGID_1_"  style="overflow:visible;"/>
			</clipPath>
			<g id="id1" class="st0">
				<g>
					<g>
						<g>
							<g id="id3">
								<path class="st1" d="M595.3,0H91.3v91.2H0v504.1h504.1v-91.2h91.2V0z"/>
							</g>
						</g>
						<g>
							<g id="id4">
								<path class="st2" d="M15.4,106.4h473.8v473.8H15.4V106.4z"/>
							</g>
						</g>
						<g>
							<g id="id5">
								<path class="st1" d="M85.5,459.7l21-1.6v31.1h17.6c11.1,0,21.3,3.2,22.5,16.7c0.8,10.3-5.6,17.2-11.4,18.1
									c-6.9,0-4.8,0-14.3,0c3.2,0,12.2-5.6,10.3-13.3c-1.9-7.2-8.2-7.4-14.1-7.7c-5.9-0.3-31.3-1.6-31.3-1.6L85.5,459.7z"/>
							</g>
						</g>
						<g>
							<g id="id6">
								<path class="st1" d="M57,497.4c-3.9,4.5-7.7,11.6-5.5,19.4c6.4,21.8,41.6,31.8,56.2,32.3l-1.6-25.8c0,0-23.9,3.2-35.9-9.5
									c-5.3-5.3-4.2-10.9-0.2-15.7C65.3,497.7,60,497.4,57,497.4z"/>
							</g>
						</g>
						<g>
							<g id="id7">
								<path class="st3" d="M106.4,15.4h473.8v473.8H106.4V15.4z"/>
							</g>
						</g>
						<g>
							<g id="id8">
								<path class="st1" d="M168.7,410.4c0,7.4,0.3,15.7,4.5,22.3c3.7,5.8,9.2,9.3,16.4,9.3c21.8,0,21.8-27.9,21.8-42.5
									c0-14.9,0-42.8-21.3-42.8c-18.8,0-21.3,20.2-21.3,34.5V410.4z M129.5,285.7h38.7v63.9h1c6.6-13.2,17.6-19.6,32.7-19.6
									c38.2,0,49.9,38,49.9,69.5c0,35.1-14.1,69.7-54.4,69.7c-19.2,0-28.4-7.2-38.2-23.3c-4.8,5.8-6.3,13.5-8.7,20.5h-21V285.7z"
									/>
							</g>
						</g>
						<g>
							<g id="id9">
								<path class="st1" d="M259.5,285.7h38.8v180.7h-38.8V285.7z"/>
							</g>
						</g>
						<g>
							<g id="id10">
								<path class="st1" d="M396.1,383.3c-0.8-14.5-5.6-27.9-22.6-27.9s-23.6,12.7-25,27.9H396.1z M348.7,406.1l-0.3,6.6
									c0,15.9,9,28.7,25.9,28.7c12,0,23.9-8.7,23.9-21l35.8,2.6c0,6.6-15.6,46.2-61,46.2c-40,0-66.1-27.9-66.1-67.7
									c0-39.5,23.4-71.6,65-71.6c18.9,0,38.2,8.7,49.3,23.9s13.9,34.2,13.6,52.3H348.7z"/>
							</g>
						</g>
						<g>
							<g id="id11">
								<path class="st1" d="M521.6,466.4v-23.1h-0.5c-6.3,16.9-20.1,25.9-38.4,25.9c-13.5,0-25-3.1-32.6-15.3
									c-7.4-11.6-6.6-24.2-6.6-37.1v-84.3h38.7v84.3c0,10.7,1,21,14.8,21c8.8,0,16.2-5,19.6-12.8c2.6-6.1,2.1-13.8,2.1-20.6v-71.9
									h38.7v133.9H521.6z"/>
							</g>
						</g>
						<g>
							<g id="id12">
								<path class="st1" d="M329.5,310.7H316v-35.3h-5.4v-10.6h5.4c0-4.2-0.1-9,2.1-12.5c2.9-4.3,8.2-6.3,13.2-6.3
									c1.1,0,5.1,0.1,8,0.6v10.4c-2.1-0.1-3-0.1-5.1-0.1c-4.6,0-4.6,2.7-4.6,6.7v1.1h8.5v10.6h-8.5V310.7z"/>
							</g>
						</g>
						<g>
							<g id="id13">
								<path class="st1" d="M356,263.6v8.8h0.2c1.4-5,4.2-10.3,10.3-9.8l2.2,0.2v13.6c-10.4-0.5-11.7,7.9-11.7,16.2v18.1h-13.6
									v-47.2H356z"/>
							</g>
						</g>
						<g>
							<g id="id14">
								<path class="st1" d="M399.5,288.3c-5.1,0.5-14.6,1.8-14.6,8.5c0,3.9,2.1,6.3,6,6.3c2.7,0,5.3-1.4,6.9-3.9
									c1.9-3.1,1.8-5.8,1.8-9.2V288.3z M400.8,310.7c-0.5-2.4-0.7-5-0.7-7.4c-3.9,5.6-7.9,8.3-14.9,8.3c-8.5,0-14.9-4.5-14.9-13.3
									c0-7.1,4.3-11.7,10.6-13.9c5.4-2.1,12.8-2.4,18.6-3.1v-1.1c0-1.9,0.2-4.3-1.1-6.1c-1.3-1.6-3.5-2.3-5.6-2.3
									c-4.3,0-8.2,2.3-8.2,6.7l-13-1.1c1.4-11.4,12.7-14.9,22.6-14.9c4.8,0,11.1,1.3,14.9,4.5c4.8,3.9,4.3,9,4.3,14.6v22
									c0,2.4,0.2,4.8,0.8,7.1H400.8z"/>
							</g>
						</g>
						<g>
							<g id="id15">
								<path class="st1" d="M420.2,263.5H433v8h0.1c2.9-6.1,6.7-9,13.7-9c4.5,0,8.8,1.4,11.7,5.3c2.6,3.4,2.6,9.3,2.6,13.6v29.2
									h-13.7v-25.3c0-4.8,0.7-11.9-6.4-11.9c-2.4,0-4.6,1.3-5.6,3.5c-1.4,2.6-1.6,5.3-1.6,8.4v25.3h-13.6V263.5z"/>
							</g>
						</g>
						<g>
							<g id="id16">
								<path class="st1" d="M496.6,281.5c0-4.2-2.2-8.3-7.1-8.3c-7.5,0-8.5,7.4-8.5,13.3c0,5.8,0.1,14,7.9,14
									c4.8,0,7.2-3.9,7.7-8.2l13,0.8c-1.1,11.5-9.9,18.6-21.3,18.6c-14.5,0-23-10.1-23-24.1c0-14.4,8.8-25,23.8-25
									c10.9,0,19.6,7.2,20.6,18.3L496.6,281.5z"/>
							</g>
						</g>
						<g>
							<g id="id17">
								<path class="st1" d="M543.8,281.5c-0.3-5.1-2.1-9.8-7.9-9.8c-6.3,0-8.5,4.3-9,9.8H543.8z M526.9,289.5v2.2
									c0,5.6,3.1,10.1,9.2,10.1c4.2,0,8.3-3.1,8.3-7.4l12.7,1c0,2.2-5.4,16.2-21.5,16.2c-14.1,0-23.3-9.8-23.3-23.8
									c0-13.9,8.2-25.3,22.9-25.3c6.6,0,13.3,3.2,17.2,8.5c4,5.4,5,12,4.8,18.5H526.9z"/>
							</g>
						</g>
					</g>
				</g>
			</g>
		</g>
	</g>
</g>
</svg>
