<svg enable-background="new 0 0 340.2 141.7" viewBox="0 0 340.2 141.7" xmlns="http://www.w3.org/2000/svg"><path d="m42.3 103.1v23h256.1c0-10.7 0-23 0-23" fill="#0062ae" stroke="#fff" stroke-width="3"/><path d="m77.8 24.6c0 4.7-4.3 8.5-9.7 8.5-5.2 0-9.6-3.8-9.6-8.5s4.4-8.5 9.8-8.5c5.3 0 9.5 3.8 9.5 8.5z" style="fill:#0062ae;stroke:#fff;stroke-width:3;stroke-linecap:round;stroke-linejoin:round;stroke-miterlimit:8"/><path d="m165.1 36.6-28.6-10.3 7.4-10.7 26.5 13.4z" style="fill:#0062ae;stroke:#fff;stroke-width:3;stroke-linecap:round;stroke-linejoin:round;stroke-miterlimit:8"/><path d="m42.3 24.9v77.7l256.1-.1s0-68.3 0-78.1c-62.4 8.5-77.9 7.3-127.9 7.9-31.4-.1-60.4.6-128.2-7.4z" fill="#ffd300" stroke="#fff" stroke-width="3"/><path d="m170.5 60.4c-.7-7.1-5-11.4-11.3-11.4-6.5 0-10.6 4.2-11.3 11.4z" fill="#ffcd00"/><path d="m269.5 60.4c-.7-7.1-5-11.4-11.3-11.4-6.5 0-10.6 4.2-11.3 11.4z" fill="#ffcd00"/><path d="m43.1 26v77.2l254.4-.1s0-67.8 0-77.6c-62 8.4-77.4 7.3-127.1 7.8-31.2 0-60 .7-127.3-7.3z" fill="#ffcd00"/><path d="m77.8 24.6c0 4.7-4.3 8.5-9.6 8.5-5.2 0-9.5-3.8-9.5-8.5s4.4-8.5 9.7-8.5c5.2 0 9.4 3.8 9.4 8.5zm-4.1 14.8v53.5h-15.5v-51.3z" fill="#0065b1"/><path d="m118.7 53.7c-5.2-2.7-9-3.8-12.9-3.8-4 0-6.7 2-6.7 5.1 0 2.7 1.7 4.1 6.6 5.3l6.3 1.7c6.5 1.6 8.6 3.6 10.5 5.9 2 2.4 2.9 5.4 2.9 8.9 0 10.8-9 18.2-22.5 18.2-6.5 0-13.6-2-21.3-6l4.9-10c4.2 2.6 11.5 5.9 17.5 5.9 3.9 0 7-2.6 7-5.9 0-3.6-2.6-5.4-8.1-6.4l-6.2-1.1c-3.5-.6-7.8-3.1-9.7-5.3-1.8-2.2-3-6-3-9.4 0-10.2 8.1-17 20.3-17 8.4 0 14 2.5 18.8 4.9z" fill="#0065b1"/><path d="m183.4 87.5c-7.5 4.9-13.9 7.2-23 7.2-18.7 0-29.3-10.6-29.3-27 0-9.4 2.4-15.6 8.1-20.7 5.3-4.8 10.3-7 19-7 7.5 0 13.1 2 17.3 5.5 6 4.9 8.6 11.9 8.6 22.9v3.2h-36.1v.4c0 8.1 5 12.7 13.7 12.7 5.8 0 9.8-1.7 15-5.2zm-18.3-51-28.5-10.2 7.4-10.6 26.3 13.3z" fill="#0065b1"/><path d="m206.8 39.6c1.4 2.1 2.2 4.5 2.4 7.4 2.2-2.7 5.9-5.5 8.8-6.6 1.3-.5 3.4-.8 5.1-.8 2.3 0 3.4.2 5.8 1.1l-4.3 12c-1.5-.7-2.8-1-4.5-1-3.5 0-6.6 1.4-9.5 4.4v36.9h-15.5v-34.9c0-7-.9-12.3-2.2-15.3z" fill="#0065b1"/><path d="m170.7 60.8c-.7-7.1-5-11.4-11.3-11.4-6.5 0-10.6 4.2-11.3 11.4z" fill="#ffcd00"/><path d="m282.4 87.5c-7.5 4.9-13.9 7.2-23 7.2-18.7 0-29.3-10.6-29.3-27 0-9.4 2.4-15.6 8.1-20.7 5.3-4.8 10.3-7 19-7 7.5 0 13.1 2 17.3 5.5 6 4.9 8.6 11.9 8.6 22.9v3.2h-36.1v.4c0 8.1 5 12.7 13.7 12.7 5.8 0 9.8-1.7 15-5.2z" fill="#0065b1"/><path d="m269.7 60.8c-.7-7.1-5-11.4-11.3-11.4-6.5 0-10.6 4.2-11.3 11.4z" fill="#ffcd00"/><path d="m43.1 102.1v22.8h254.4c0-10.6 0-22.8 0-22.8" fill="#0065b1"/><g fill="#fff"><path d="m62.4 119.5h-13.2v-11.8h6.2v9.3h8.1z"/><path d="m64.7 119.5v-11.8h13.9l-.4 2.5h-7.3v2h6v2.4h-6v2.4h8.2v2.5z"/><path d="m102.2 118c-1.5.9-3.4 1.4-6.6 1.4h-8.7v-11.8h8.4c1.6 0 3.8.1 5.7.7 2.7.9 3.9 2.6 3.9 5 0 1.9-.6 3.5-2.7 4.7zm-7.3-7.9h-1.9v6.8h2.1c1.7 0 3.1-.4 3.1-3.7-.1-2.7-1.5-3.1-3.3-3.1z"/><path d="m106.5 119.5v-11.8h13.9l-.4 2.5h-7.3v2h6v2.4h-6v2.4h8.2v2.5zm12.6-13.7-7.9 1.6-1.9-1.5 7.5-2.1z"/><path d="m130.5 115.3h-1.9v4.2h-6.1v-11.8h7.8c6.1 0 9.6 1 9.6 3.7 0 1.7-1.6 3.9-9.4 3.9zm-1.9-5.2v2.7h1.8c1.9 0 2.8-.3 2.8-1.5 0-1-1-1.2-2.5-1.2z"/><path d="m151.8 119.5-1.2-2.3h-5.6l-1.3 2.3h-6.4l7.7-11.8h6.4l7.2 11.8zm-3.5-6.8c-.2-.5-.4-1.2-.4-1.7-.1.4-.2 1.1-.7 1.9l-1 1.9h3.1z"/><path d="m171 119.5-2.5-3.3c-.9-1.2-1.5-1.4-2.8-1.4v4.7h-6.1v-11.8h8.2c7 0 9.3 1.4 9.3 3.4s-2.2 3.1-5 3.3c.8.1 1.8.7 2.4 1.3.8.8 2.8 3 3.6 3.9h-7.1zm-5.3-9.4v2.4h1.7c2.1 0 2.8-.5 2.8-1.3s-.9-1.1-2.8-1.1z"/><path d="m195.6 110.1h-5.5v9.3h-6.2v-9.3h-5.5v-2.5h18z"/><path d="m198.1 119.5v-11.8h13.9l-.4 2.5h-7.3v2h6v2.4h-6v2.4h8.2v2.5z"/><path d="m234 119.5-.6-4.8c-.1-.7-.2-1.4-.2-2.4-.3 1-.4 1.6-.8 2.2l-2.9 4.9h-5.2l-2.5-4.8c-.3-.7-.6-1.3-.8-2.4 0 1.1 0 1.7-.1 2.4l-.5 4.7h-6.2l2.3-11.8h7.5l2.3 4.7c.3.7.6 1.3.8 2.2.2-.9.5-1.5.9-2.4l2.4-4.5h7.3l2.2 11.8h-5.9z"/><path d="m241.6 119.5v-11.8h13.9l-.4 2.5h-7.3v2h6v2.4h-6v2.4h8.2v2.5z"/><path d="m269 119.5-4.2-4.1c-.6-.6-1.3-1.5-1.8-2.2.1.5.3 1.5.3 3v3.3h-5.8v-11.8h5.9l4.3 4.1c.7.6 1.4 1.5 2 2.3-.2-.7-.2-1.9-.2-2.7v-3.7h5.8v11.8z"/><path d="m294 110.1h-5.5v9.3h-6.2v-9.3h-5.5v-2.5h18z"/></g></svg>