<?xml version="1.0" encoding="utf-8"?>
<!-- Generator: Adobe Illustrator 25.0.1, SVG Export Plug-In . SVG Version: 6.00 Build 0)  -->
<svg version="1.1" id="Calque_1" xmlns="http://www.w3.org/2000/svg" xmlns:xlink="http://www.w3.org/1999/xlink" x="0px" y="0px"
	 viewBox="0 0 2000 1150" style="enable-background:new 0 0 2000 1150;" xml:space="preserve">
<style type="text/css">
	.st0{fill:#E1161B;}
	.st1{fill:#FFFFFF;}
</style>
<g>
	<path class="st0" d="M1252.5,1115.52h-51.81l-13.48,29.63h-19.67l59.88-129.65l57.75,129.65h-19.98L1252.5,1115.52z
		 M1245.05,1098.22l-17.95-41.48l-18.81,41.48H1245.05z"/>
	<path class="st0" d="M1313.56,1058.02v50.01c0,14.43,5.65,21.64,16.95,21.64c11.3,0,16.95-7.21,16.95-21.64v-50.01h19.96v50.45
		c0,6.98-0.86,13.01-2.58,18.07c-1.66,4.53-4.52,8.62-8.6,12.26c-6.74,5.9-15.32,8.85-25.73,8.85c-10.36,0-18.9-2.95-25.65-8.85
		c-4.14-3.64-7.07-7.72-8.78-12.26c-1.66-4.05-2.48-10.08-2.48-18.07v-50.45H1313.56z"/>
	<path class="st0" d="M1407.75,1076.81v68.34h-19.96v-68.34h-8.52v-18.79h8.52v-31.93h19.96v31.93h15.53v18.79H1407.75z"/>
	<path class="st0" d="M1431.4,1058.02h19.96v7.79c3.67-3.88,6.92-6.53,9.76-7.97c2.9-1.48,6.33-2.23,10.29-2.23
		c5.26,0,10.77,1.73,16.51,5.18l-9.14,18.43c-3.78-2.74-7.49-4.11-11.09-4.11c-10.88,0-16.33,8.29-16.33,24.87v45.18h-19.96V1058.02
		z"/>
	<path class="st0" d="M1556.39,1058.02h20.05v87.13h-20.05v-9.12c-8.22,7.75-17.07,11.63-26.53,11.63
		c-11.95,0-21.83-4.35-29.64-13.06c-7.75-8.89-11.63-19.98-11.63-33.27c0-13.06,3.88-23.94,11.63-32.65
		c7.75-8.71,17.45-13.06,29.1-13.06c10.06,0,19.08,4.17,27.06,12.52V1058.02z M1509.01,1101.32c0,8.35,2.22,15.15,6.65,20.39
		c4.55,5.31,10.29,7.96,17.21,7.96c7.4,0,13.37-2.56,17.93-7.69c4.55-5.3,6.84-12.05,6.84-20.22c0-8.17-2.28-14.9-6.84-20.21
		c-4.55-5.19-10.47-7.78-17.75-7.78c-6.86,0-12.6,2.62-17.21,7.87C1511.28,1086.95,1509.01,1093.51,1509.01,1101.32z"/>
	<path class="st0" d="M1596.2,1058.02h20.05v8.06c6.97-6.97,14.84-10.47,23.6-10.47c10.05,0,17.89,3.19,23.51,9.57
		c4.85,5.44,7.27,14.29,7.27,26.58v53.4h-20.05v-48.66c0-8.59-1.18-14.52-3.55-17.8c-2.3-3.34-6.5-5.02-12.6-5.02
		c-6.63,0-11.33,2.21-14.11,6.63c-2.72,4.35-4.08,11.95-4.08,22.81v42.04h-20.05V1058.02z"/>
	<path class="st0" d="M1740.62,1072.87l-16.51,8.86c-2.61-5.37-5.83-8.06-9.67-8.06c-1.84,0-3.4,0.62-4.71,1.84
		c-1.3,1.23-1.95,2.79-1.95,4.69c0,3.34,3.84,6.65,11.54,9.93c10.59,4.6,17.71,8.82,21.39,12.71c3.67,3.87,5.5,9.09,5.5,15.65
		c0,8.4-3.08,15.44-9.23,21.11c-5.98,5.37-13.19,8.05-21.65,8.05c-14.5,0-24.76-7.13-30.79-21.38l17.04-7.96
		c2.36,4.17,4.17,6.83,5.41,7.96c2.43,2.27,5.32,3.4,8.7,3.4c6.75,0,10.11-3.09,10.11-9.3c0-3.58-2.61-6.92-7.81-10.01
		c-2.02-1.02-4.03-2-6.04-2.95c-2.01-0.96-4.05-1.94-6.12-2.95c-5.8-2.87-9.88-5.73-12.25-8.59c-3.02-3.64-4.52-8.32-4.52-14.04
		c0-7.58,2.57-13.84,7.72-18.79c5.27-4.95,11.65-7.42,19.17-7.42C1727.01,1055.61,1735.23,1061.36,1740.62,1072.87z"/>
</g>
<g>
	<path class="st1" d="M287.72,565.37v215.6c23.35-24.29,49.84-36.45,79.43-36.45c34.09,0,62.46,12.78,85.13,38.3
		c22.65,25.33,34.01,56.92,34.01,94.77c0,39.06-11.42,71.35-34.26,96.86c-22.66,25.35-51.3,38.02-85.92,38.02
		c-29.25,0-55.38-11.29-78.39-33.86v26.58h-58.4V565.37H287.72z M426.59,880.21c0-24.31-6.56-44.12-19.73-59.39
		c-13.33-15.61-30.03-23.43-50.09-23.43c-21.47,0-38.93,7.56-52.44,22.65c-13.32,14.94-20,34.38-20,58.33
		c0,24.67,6.58,44.36,19.74,59.13c13.15,15.1,30.47,22.64,51.92,22.64c20.26,0,37.03-7.54,50.36-22.64
		C419.84,922.21,426.59,903.11,426.59,880.21z"/>
	<path class="st1" d="M591.04,565.37v439.83h-58.38V565.37H591.04z"/>
	<path class="st1" d="M835.99,751.58h58.66v253.62h-58.66v-26.58c-24.05,22.57-49.95,33.86-77.64,33.86
		c-34.94,0-63.83-12.67-86.69-38.02c-22.67-25.86-33.98-58.14-33.98-96.86c0-38.02,11.31-69.71,33.98-95.05
		c22.68-25.34,51.07-38.02,85.16-38.02c29.41,0,55.79,12.16,79.17,36.45V751.58z M697.35,877.59c0,24.32,6.51,44.1,19.49,59.37
		c13.33,15.45,30.11,23.16,50.36,23.16c21.63,0,39.12-7.45,52.42-22.38c13.33-15.44,20-35.07,20-58.85c0-23.77-6.68-43.38-20-58.86
		c-13.31-15.09-30.61-22.65-51.92-22.65c-20.07,0-36.85,7.63-50.36,22.92C704.03,835.74,697.35,854.85,697.35,877.59z"/>
	<path class="st1" d="M952.95,751.58h58.65v23.42c20.42-20.31,43.42-30.47,69.04-30.47c29.42,0,52.34,9.3,68.79,27.87
		c14.16,15.78,21.27,41.57,21.27,77.33v155.47h-58.65V863.7c0-24.96-3.47-42.21-10.4-51.74c-6.74-9.7-19.02-14.57-36.85-14.57
		c-19.38,0-33.14,6.42-41.26,19.24c-7.98,12.66-11.95,34.76-11.95,66.31v122.26h-58.65V751.58z"/>
	<path class="st1" d="M1425.78,762.5v77.85c-13.32-16.3-25.29-27.51-35.81-33.59c-10.41-6.26-22.59-9.38-36.62-9.38
		c-21.97,0-40.22,7.72-54.77,23.18c-14.53,15.45-21.78,34.81-21.78,58.05c0,23.8,7,43.34,21.01,58.62
		c14.19,15.26,32.26,22.89,54.26,22.89c14.02,0,26.36-3.02,37.11-9.11c10.36-5.91,22.58-17.35,36.6-34.36v77.34
		c-23.72,12.32-47.42,18.49-71.12,18.49c-39.13,0-71.82-12.67-98.11-38.02c-26.31-25.52-39.47-57.18-39.47-95.03
		c0-37.84,13.32-69.81,39.96-95.84c26.65-26.04,59.35-39.06,98.13-39.06C1380.08,744.52,1403.63,750.51,1425.78,762.5z"/>
	<path class="st1" d="M1480.71,530.21h58.4v242.46c20.75-18.77,43.68-28.14,68.78-28.14c28.55,0,51.37,9.3,68.53,27.87
		c14.52,16.14,21.8,41.92,21.8,77.33v155.47h-58.42v-150c0-20.32-3.57-35.02-10.77-44.14c-7.2-9.11-18.72-13.68-34.64-13.68
		c-20.41,0-34.79,6.35-43.08,19.01c-8.15,12.84-12.21,34.9-12.21,66.15v122.64h-58.4V530.21z"/>
	<path class="st1" d="M1987.01,892.16h-181.17c1.55,20.85,8.28,37.43,20.24,49.75c11.94,12.15,27.26,18.22,45.94,18.22
		c14.54,0,26.56-3.47,36.08-10.38c9.34-6.97,19.98-19.81,31.94-38.56l49.32,27.6c-7.61,13.02-15.69,24.16-24.17,33.45
		c-8.46,9.3-17.57,16.94-27.24,22.94c-9.69,5.98-20.17,10.37-31.41,13.14c-11.23,2.77-23.42,4.17-36.63,4.17
		c-37.68,0-67.98-12.13-90.82-36.45c-22.83-24.49-34.27-56.94-34.27-97.41c0-40.08,11.09-72.56,33.24-97.37
		c22.33-24.48,51.92-36.73,88.77-36.73c37.21,0,66.62,11.9,88.27,35.68c21.49,23.6,32.17,56.34,32.17,98.16L1987.01,892.16z
		 M1927.05,844.27c-8.12-31.26-27.8-46.89-58.9-46.89c-7.11,0-13.79,1.08-20.02,3.24c-6.23,2.19-11.89,5.31-17,9.39
		c-5.1,4.08-9.46,8.98-13.11,14.71c-3.63,5.74-6.39,12.24-8.31,19.55H1927.05z"/>
</g>
<g>
	<path class="st1" d="M127.07,337.73v269.18H40.84V337.73H10.32v-73.99h30.52V131.26c0-43.22,8.14-73.76,24.42-91.61
		C87.64,14.76,120.2,2.3,162.94,2.3c15.26,0,34.46,4.11,57.61,12.33v81.04l-8.78-4.23c-18.57-8.69-33.83-13.04-45.78-13.04
		c-15.26,0-25.57,5.05-30.91,15.15c-5.34,9.86-8.01,28.89-8.01,57.08v113.1h93.48v73.99H127.07z"/>
	<path class="st1" d="M230.58,432.86c0-49.56,17.9-91.72,53.7-126.49c35.8-34.76,79.43-52.15,130.88-52.15
		c51.69,0,95.55,17.5,131.59,52.5c35.57,35,53.35,77.99,53.35,128.95c0,51.44-17.91,94.55-53.7,129.31
		c-36.04,34.53-80.26,51.79-132.66,51.79c-51.93,0-95.44-17.62-130.53-52.85C248.12,529.17,230.58,485.48,230.58,432.86z
		 M312.38,434.27c0,34.3,9.25,61.43,27.74,81.39c18.97,20.2,43.98,30.3,75.04,30.3c31.3,0,56.31-9.98,75.04-29.95
		c18.73-19.96,28.1-46.63,28.1-79.98c0-33.35-9.37-60.01-28.1-79.98c-18.97-20.2-43.98-30.3-75.04-30.3
		c-30.59,0-55.37,10.1-74.33,30.3C321.86,376.25,312.38,402.32,312.38,434.27z"/>
	<path class="st1" d="M721.5,263.74v196.95c0,56.85,23.47,85.27,70.43,85.27c46.95,0,70.43-28.42,70.43-85.27V263.74h82.96v198.72
		c0,27.48-3.57,51.21-10.69,71.17c-6.89,17.85-18.81,33.95-35.77,48.27c-28.02,23.25-63.67,34.88-106.93,34.88
		c-43.02,0-78.54-11.63-106.56-34.88c-17.21-14.33-29.38-30.42-36.5-48.27c-6.88-15.97-10.33-39.69-10.33-71.17V263.74H721.5z"/>
</g>
<g>
	<path class="st1" d="M300.61,99.45v126.33h-18.22V99.45H300.61z"/>
	<path class="st1" d="M377.7,152.92h18.3v72.85h-18.3v-7.63c-7.51,6.48-15.58,9.72-24.22,9.72c-10.91,0-19.92-3.64-27.05-10.92
		c-7.08-7.43-10.61-16.7-10.61-27.83c0-10.92,3.54-20.02,10.61-27.3c7.07-7.28,15.93-10.92,26.56-10.92
		c9.18,0,17.41,3.49,24.71,10.47V152.92z M334.45,189.12c0,6.98,2.02,12.67,6.08,17.05c4.16,4.44,9.39,6.66,15.71,6.66
		c6.75,0,12.2-2.14,16.36-6.43c4.16-4.44,6.24-10.07,6.24-16.9c0-6.83-2.08-12.46-6.24-16.9c-4.16-4.34-9.56-6.51-16.2-6.51
		c-6.27,0-11.5,2.19-15.72,6.58C336.53,177.11,334.45,182.59,334.45,189.12z"/>
</g>
<g>
	<path class="st0" d="M519.15,186.71h16.1v19.21h-16.1v19.85h-22.87v-19.85h-74.39l97.26-130.5V186.71z M496.28,186.71v-46.85
		l-34.94,46.85H496.28z"/>
	<path class="st0" d="M575.99,160.79v-18.03c9.68,0,16.19-1,19.53-2.99c5.95-3.5,8.93-9.12,8.93-16.86c0-5.98-2.16-10.84-6.48-14.59
		c-4.25-3.81-9.78-5.71-16.59-5.71c-6.35,0-11.25,1.42-14.72,4.26c-3.34,2.9-5.83,7.8-7.46,14.68h-22.77
		c2.35-13.17,7.2-22.82,14.52-28.96c7.33-6.13,17.57-9.2,30.72-9.2c13.28,0,24.11,3.63,32.48,10.88
		c8.37,7.19,12.56,16.46,12.56,27.82c0,12.81-5.5,22.77-16.49,29.9c12.56,6.83,18.85,17.91,18.85,33.26
		c0,12.56-4.58,22.83-13.74,30.81c-9.16,7.98-20.9,11.97-35.23,11.97c-18.26,0-31.8-6.19-40.63-18.58
		c-3.67-5.2-5.99-12.38-6.97-21.57h22.08c1.18,6.77,4.04,11.95,8.59,15.54c4.54,3.59,10.48,5.39,17.81,5.39
		c7.39,0,13.51-2.27,18.35-6.8c4.84-4.65,7.26-10.54,7.26-17.67c0-9.42-3.63-16.13-10.89-20.12
		C591.46,161.94,584.89,160.79,575.99,160.79z"/>
	<path class="st0" d="M679.77,141.04h-39.94c0.34,4.23,1.83,7.59,4.46,10.09c2.63,2.46,6.01,3.7,10.13,3.7
		c3.21,0,5.85-0.7,7.95-2.11c2.06-1.41,4.41-4.01,7.04-7.82l10.87,5.6c-1.68,2.64-3.45,4.91-5.32,6.79
		c-1.87,1.88-3.87,3.43-6.01,4.65c-2.13,1.22-4.44,2.1-6.92,2.67c-2.48,0.56-5.17,0.85-8.07,0.85c-8.32,0-14.99-2.46-20.02-7.4
		c-5.04-4.97-7.55-11.55-7.55-19.76c0-8.14,2.44-14.72,7.32-19.76c4.92-4.97,11.44-7.45,19.57-7.45c8.2,0,14.69,2.41,19.46,7.24
		c4.73,4.79,7.09,11.43,7.09,19.92L679.77,141.04z M666.55,131.32c-1.8-6.34-6.12-9.51-12.99-9.51c-1.57,0-3.03,0.22-4.41,0.66
		c-1.38,0.44-2.62,1.08-3.75,1.9c-1.12,0.83-2.09,1.82-2.89,2.98c-0.8,1.16-1.41,2.49-1.83,3.97H666.55z"/>
</g>
<g>
	<path class="st1" d="M1074.71,180.94v500.58h-84.77V180.94H1074.71z"/>
	<path class="st1" d="M1449.61,535.35H1192.6c2.2,26.95,11.78,48.39,28.72,64.33c16.94,15.72,38.66,23.58,65.18,23.58
		c20.62,0,37.67-4.49,51.17-13.48c13.25-8.98,28.35-25.6,45.3-49.85l69.96,35.7c-10.8,16.84-22.22,31.27-34.24,43.28
		c-12.03,12.01-24.91,21.89-38.65,29.64c-13.75,7.75-28.6,13.42-44.56,17.01c-15.96,3.59-33.26,5.39-51.92,5.39
		c-53.51,0-96.47-15.72-128.87-47.15c-32.4-31.67-48.6-73.65-48.6-125.97c0-51.87,15.71-93.85,47.13-125.96
		c31.67-31.66,73.65-47.49,125.94-47.49c52.77,0,94.5,15.38,125.18,46.14c30.45,30.54,45.67,72.87,45.67,126.98L1449.61,535.35z
		 M1364.56,473.38c-11.54-40.42-39.4-60.63-83.58-60.63c-10.07,0-19.52,1.4-28.35,4.21c-8.84,2.81-16.88,6.85-24.12,12.12
		c-7.24,5.28-13.44,11.62-18.6,19.03c-5.15,7.41-9.08,15.83-11.79,25.26H1364.56z M1403.58,191.81l-134.02,111.14l-45.3-25.6
		l101.26-122.6L1403.58,191.81z"/>
	<path class="st1" d="M1806.48,535.35h-257.02c2.21,26.95,11.78,48.39,28.73,64.33c16.94,15.72,38.66,23.58,65.17,23.58
		c20.62,0,37.68-4.49,51.18-13.48c13.25-8.98,28.35-25.6,45.29-49.85l69.96,35.7c-10.81,16.84-22.22,31.27-34.24,43.28
		c-12.03,12.01-24.92,21.89-38.66,29.64c-13.75,7.75-28.6,13.42-44.55,17.01c-15.96,3.59-33.27,5.39-51.92,5.39
		c-53.52,0-96.47-15.72-128.87-47.15c-32.41-31.67-48.61-73.65-48.61-125.97c0-51.87,15.71-93.85,47.13-125.96
		c31.67-31.66,73.64-47.49,125.93-47.49c52.77,0,94.5,15.38,125.19,46.14c30.44,30.54,45.66,72.87,45.66,126.98L1806.48,535.35z
		 M1721.42,473.38c-11.54-40.42-39.4-60.63-83.59-60.63c-10.07,0-19.51,1.4-28.35,4.21c-8.83,2.81-16.88,6.85-24.12,12.12
		c-7.24,5.28-13.43,11.62-18.59,19.03c-5.16,7.41-9.09,15.83-11.78,25.26H1721.42z"/>
</g>
</svg>
