<?xml version="1.0" encoding="utf-8"?>
<!-- Generator: Adobe Illustrator 25.0.1, SVG Export Plug-In . SVG Version: 6.00 Build 0)  -->
<svg version="1.1" id="Calque_1" xmlns="http://www.w3.org/2000/svg" xmlns:xlink="http://www.w3.org/1999/xlink" x="0px" y="0px"
	 viewBox="0 0 439.4 127.6" style="enable-background:new 0 0 439.4 127.6;" xml:space="preserve">
<style type="text/css">
	.st0{fill:#E4131A;}
	.st1{fill:#FFFFFF;}
</style>
<rect x="4" y="72.2" transform="matrix(0.9997 -2.617753e-02 2.617753e-02 0.9997 -2.3849 5.789)" class="st0" width="431.8" height="43.7"/>
<g>
	<path class="st1" d="M48.7,99.3l2.7-0.1l0-0.8c0-1.5-0.5-2-2.4-1.9c-1.3,0-2,0.2-2.5,1.1L43.9,96c0.9-1.7,2.4-2.3,5.2-2.4
		c3.5-0.1,5.4,0.9,5.5,4.7l0.2,8.8l-3.4,0.1l0-1.2c-0.5,0.9-1.3,1.5-2.9,1.5c-2.8,0.1-4.8-1.4-4.8-4.1
		C43.8,100.6,45.9,99.3,48.7,99.3z M51.4,101.7l-2.3,0.1c-1.4,0-2,0.5-2,1.6c0,1,0.8,1.5,2,1.5c1.6,0,2.3-0.7,2.2-2.6L51.4,101.7z"
		/>
	<path class="st1" d="M69,106.8l-3.4,0.1l0-1.1c-0.5,0.9-1.3,1.4-3,1.4c-2.7,0.1-5-1.2-5.1-5.2l-0.2-8.4l3.4-0.1l0.2,7.9
		c0.1,2.1,0.8,2.8,2.2,2.8c1.6,0,2.3-1,2.3-2.9l-0.2-7.9l3.4-0.1L69,106.8z"/>
	<path class="st1" d="M85.8,92.9l3.4-0.1l0.3,13.1c0.1,4.5-2.4,5.6-5.8,5.7c-2.5,0.1-4.1-0.5-5.3-2.3l2.3-1.7
		c0.6,0.8,1.4,1.2,2.7,1.1c2-0.1,2.8-0.7,2.7-2.7l0-0.4c-0.7,0.6-1.6,1-2.8,1c-3.5,0.1-5.4-2.4-5.5-5.9l0-1.8
		c-0.1-3.9,2-6.1,5.2-6.1c1.2,0,2.2,0.3,2.9,0.9L85.8,92.9z M86,100.6l0-1.7c-0.1-2.1-0.8-3.3-2.5-3.3c-1.7,0-2.4,1.2-2.3,3.4l0,1.4
		c0.1,1.9,0.6,3.4,2.5,3.3C85.5,103.7,86.1,102.4,86,100.6z"/>
	<path class="st1" d="M99.3,96.3c-0.4-0.5-0.9-1-1.7-1c-1.3,0-2.1,1-2.1,2.9l0.2,7.9l-3.4,0.1L92,92.8l3.4-0.1l0,1.1
		c0.4-0.7,1.3-1.4,2.9-1.4c1.6,0,2.8,0.6,3.7,2L99.3,96.3z"/>
	<path class="st1" d="M107.3,97.7l2.7-0.1l0-0.8c0-1.5-0.5-2-2.4-1.9c-1.3,0-2,0.2-2.5,1.1l-2.5-1.6c0.9-1.7,2.4-2.3,5.2-2.4
		c3.5-0.1,5.4,0.9,5.5,4.7l0.2,8.8l-3.4,0.1l0-1.2c-0.5,0.9-1.3,1.5-2.9,1.5c-2.8,0.1-4.8-1.4-4.8-4.1
		C102.3,99.1,104.4,97.8,107.3,97.7z M110,100.2l-2.3,0.1c-1.4,0-2,0.5-2,1.6c0,1,0.8,1.5,2,1.5c1.6,0,2.3-0.7,2.2-2.6L110,100.2z"
		/>
	<path class="st1" d="M115.9,92.1l3.4-0.1l0,1.1c0.5-0.7,1.5-1.4,3-1.4c2.7-0.1,4.9,1.2,5,5.1l0.2,8.4l-3.4,0.1l-0.2-7.9
		c-0.1-2.1-0.8-2.8-2.2-2.8c-1.6,0-2.3,1.1-2.3,2.9l0.2,7.9l-3.4,0.1L115.9,92.1z"/>
	<path class="st1" d="M137.5,86.5l3.4-0.1l0.5,18.5L138,105l0-0.8c-0.7,0.7-1.6,1.1-2.8,1.1c-3.5,0.1-5.4-2.4-5.5-5.9l0-1.8
		c-0.1-3.9,2-6.1,5.2-6.1c1.2,0,2.1,0.2,2.9,0.9L137.5,86.5z M137.9,99l0-1.7c-0.1-2-0.9-3-2.5-3c-1.7,0-2.4,1.2-2.3,3.4l0,1.4
		c0.1,1.9,0.6,3.4,2.5,3.3C137.5,102.3,137.9,100.9,137.9,99z"/>
	<path class="st1" d="M155,96.5l2.7-0.1l0-0.8c0-1.5-0.5-2-2.4-1.9c-1.3,0-2,0.2-2.5,1.1l-2.5-1.6c0.9-1.7,2.4-2.3,5.2-2.4
		c3.5-0.1,5.4,0.9,5.5,4.7l0.2,8.8l-3.4,0.1l0-1.2c-0.5,0.9-1.3,1.5-2.9,1.5c-2.8,0.1-4.8-1.4-4.8-4.1C150,97.9,152.2,96.6,155,96.5
		z M157.7,98.9l-2.3,0.1c-1.4,0-2,0.5-2,1.6c0,1,0.8,1.5,2,1.5c1.6,0,2.3-0.7,2.2-2.6L157.7,98.9z"/>
	<path class="st1" d="M163.7,85.8l3.7-0.1l0.1,3.3l-3.7,0.1L163.7,85.8z M164,90.9l3.4-0.1l0.4,13.4l-3.4,0.1L164,90.9z"/>
	<path class="st1" d="M177.9,94.3c-0.4-0.5-0.9-1-1.7-1c-1.3,0-2.1,1-2.1,2.9l0.2,7.9l-3.4,0.1l-0.4-13.4l3.4-0.1l0,1.1
		c0.4-0.7,1.3-1.4,2.9-1.4c1.6,0,2.8,0.6,3.7,2L177.9,94.3z"/>
	<path class="st1" d="M184.6,105l-3.6,3.2l-0.2-8.5l3.6-0.1L184.6,105z"/>
	<path class="st1" d="M194,85l3.7-0.1l0.1,3.3l-3.7,0.1L194,85z M194.3,90.1l3.4-0.1l0.4,13.4l-3.4,0.1L194.3,90.1z"/>
	<path class="st1" d="M200.9,89.9l3.4-0.1l0,1.1c0.5-0.7,1.5-1.4,3-1.4c2.7-0.1,4.9,1.2,5,5.1l0.2,8.4l-3.4,0.1l-0.2-7.9
		c-0.1-2.1-0.8-2.8-2.2-2.8c-1.6,0-2.3,1.1-2.3,2.9l0.2,7.9l-3.4,0.1L200.9,89.9z"/>
	<path class="st1" d="M215,89.6l3.4-0.1l0,1.1c0.5-0.7,1.5-1.4,3-1.4c2.7-0.1,4.9,1.2,5,5.1l0.2,8.4l-3.4,0.1l-0.2-7.9
		c-0.1-2.1-0.8-2.8-2.2-2.8c-1.6,0-2.3,1.1-2.3,2.9l0.2,7.9l-3.4,0.1L215,89.6z"/>
	<path class="st1" d="M240.4,96.4c0.1,3.7-1.6,6.2-5.6,6.3c-3.9,0.1-5.9-2.3-6-6l0-1.6c-0.1-4,2-6.2,5.6-6.3c3.7-0.1,5.8,1.9,6,6
		L240.4,96.4z M237,96.4l0-1.4c-0.1-2.1-0.8-3.3-2.5-3.3c-1.7,0-2.4,1.2-2.3,3.4l0,1.4c0.1,1.9,0.6,3.4,2.5,3.3
		C236.5,99.7,237,98.3,237,96.4z"/>
	<path class="st1" d="M254.3,88.5l-4.7,13.5l-3.2,0.1l-5.6-13.3l3.8-0.1l3.2,8.6l2.8-8.8L254.3,88.5z"/>
	<path class="st1" d="M260,93.7l2.7-0.1l0-0.8c0-1.5-0.5-2-2.4-1.9c-1.3,0-2,0.2-2.5,1.1l-2.5-1.6c0.9-1.7,2.4-2.3,5.2-2.4
		c3.5-0.1,5.4,0.9,5.5,4.7l0.2,8.8l-3.4,0.1l0-1.2c-0.5,0.9-1.3,1.5-2.9,1.5c-2.8,0.1-4.8-1.4-4.8-4.1
		C255.1,95.1,257.2,93.8,260,93.7z M262.7,96.2l-2.3,0.1c-1.4,0-2,0.5-2,1.6c0,1,0.8,1.5,2,1.5c1.6,0,2.3-0.7,2.2-2.6L262.7,96.2z"
		/>
	<path class="st1" d="M268.6,88.1l3.4-0.1l0,1.1c0.5-0.7,1.5-1.4,3-1.4c2.7-0.1,4.9,1.2,5,5.1l0.2,8.4l-3.4,0.1l-0.2-7.9
		c-0.1-2.1-0.8-2.8-2.2-2.8c-1.6,0-2.3,1.1-2.3,2.9l0.2,7.9l-3.4,0.1L268.6,88.1z"/>
	<path class="st1" d="M281.7,87.8l1.7,0l-0.1-3l3.4-0.1l0.1,3l2.6-0.1l0.1,2.9l-2.6,0.1l0.1,5.6c0,1.3,0.3,1.9,1.6,1.9l1.1,0l0.1,3
		l-1.4,0c-3.2,0.1-4.6-0.8-4.7-4.3l-0.2-6.1l-1.7,0L281.7,87.8z"/>
	<path class="st1" d="M309,98.5c-0.9,1.7-2.4,2.3-4.8,2.4c-4,0.1-6-2.4-6.1-5.9l0-1.8c-0.1-4.1,1.9-6.1,5.4-6.2
		c3.8-0.1,5.6,2.1,5.7,6.1l0,1.5l-7.6,0.2c0.1,1.9,0.7,3.2,2.6,3.1c1.4,0,1.9-0.5,2.4-1.2L309,98.5z M301.3,92.4l4.2-0.1
		c-0.1-1.7-0.8-2.4-2.1-2.4C302.1,89.9,301.4,90.9,301.3,92.4z"/>
	<path class="st1" d="M310.3,87.1l1.7,0l-0.1-3l3.4-0.1l0.1,3l2.6-0.1l0.1,2.9l-2.6,0.1l0.1,5.6c0,1.3,0.3,1.9,1.6,1.9l1.1,0l0.1,3
		l-1.4,0c-3.2,0.1-4.6-0.8-4.7-4.3l-0.2-6.1l-1.7,0L310.3,87.1z"/>
	<path class="st1" d="M334.5,81.3l3.4-0.1l0.5,18.5l-3.4,0.1l0-0.8c-0.7,0.7-1.6,1.1-2.8,1.1c-3.5,0.1-5.4-2.4-5.5-5.9l0-1.8
		c-0.1-3.9,2-6.1,5.2-6.1c1.2,0,2.1,0.2,2.9,0.9L334.5,81.3z M334.8,93.8l0-1.7c-0.1-2-0.9-3-2.5-3c-1.7,0-2.4,1.2-2.3,3.4l0,1.4
		c0.1,1.9,0.6,3.4,2.5,3.3C334.4,97.2,334.8,95.7,334.8,93.8z"/>
	<path class="st1" d="M340.9,81.2l3.7-0.1l0.1,3.3l-3.7,0.1L340.9,81.2z M341.2,86.2l3.4-0.1l0.4,13.4l-3.4,0.1L341.2,86.2z"/>
	<path class="st1" d="M355.4,85.9l3.4-0.1l0.3,13.1c0.1,4.5-2.4,5.6-5.8,5.7c-2.5,0.1-4.1-0.5-5.3-2.3l2.3-1.7
		c0.6,0.8,1.4,1.2,2.7,1.1c2-0.1,2.8-0.7,2.7-2.7l0-0.4c-0.7,0.6-1.6,1-2.8,1c-3.5,0.1-5.4-2.4-5.5-5.9l0-1.8
		c-0.1-3.9,2-6.1,5.2-6.1c1.2,0,2.2,0.3,2.9,0.9L355.4,85.9z M355.6,93.5l0-1.7c-0.1-2.1-0.8-3.3-2.5-3.3c-1.7,0-2.4,1.2-2.3,3.4
		l0,1.4c0.1,1.9,0.6,3.4,2.5,3.3C355.2,96.6,355.7,95.3,355.6,93.5z"/>
	<path class="st1" d="M361.7,80.6l3.7-0.1l0.1,3.3l-3.7,0.1L361.7,80.6z M362,85.7l3.4-0.1l0.4,13.4l-3.4,0.1L362,85.7z"/>
	<path class="st1" d="M367.6,85.6l1.7,0l-0.1-3l3.4-0.1l0.1,3l2.6-0.1l0.1,2.9l-2.6,0.1l0.1,5.6c0,1.3,0.3,1.9,1.6,1.9l1.1,0l0.1,3
		l-1.4,0c-3.2,0.1-4.6-0.8-4.7-4.3l-0.2-6.1l-1.7,0L367.6,85.6z"/>
	<path class="st1" d="M381.9,90.5l2.7-0.1l0-0.8c0-1.5-0.5-2-2.4-1.9c-1.3,0-2,0.2-2.5,1.1l-2.5-1.6c0.9-1.7,2.4-2.3,5.2-2.4
		c3.5-0.1,5.4,0.9,5.5,4.7l0.2,8.8l-3.4,0.1l0-1.2c-0.5,0.9-1.3,1.5-2.9,1.5c-2.8,0.1-4.8-1.4-4.8-4.1
		C377,91.9,379.1,90.6,381.9,90.5z M384.6,93l-2.3,0.1c-1.4,0-2,0.5-2,1.6c0,1,0.8,1.5,2,1.5c1.6,0,2.3-0.7,2.2-2.6L384.6,93z"/>
	<path class="st1" d="M390.4,79.9l3.4-0.1l0.4,13.4c0,1.4,0.5,2.1,1.9,2.1l0.1,3c-3.6,0.1-5.3-0.8-5.4-4.2L390.4,79.9z"/>
</g>
<rect x="46.6" y="8" transform="matrix(1 -8.725173e-03 8.725173e-03 1 -0.3102 1.9202)" class="st0" width="346.7" height="57"/>
<g>
	<g>
		<path class="st1" d="M359.6,15.9l6.8-0.1l0.1,6.1l-6.8,0.1L359.6,15.9z M359.9,25.2l6.3-0.1l0.2,24.6l-6.3,0.1L359.9,25.2z"/>
	</g>
	<g>
		<path class="st1" d="M346.2,25.3l0-1.3c-0.1-6.3,2.4-8,8.3-8.1l1.8,0l0,5.5l-1.2,0c-2.3,0-2.8,1.1-2.8,3.5l0,0.3l4,0l0,5.3l-4,0
			l0.2,19.2l-6.2,0.1l-0.2-19.2l-3.1,0l0-5.3L346.2,25.3z"/>
	</g>
	<g>
		<path class="st1" d="M340.2,46.2c-1.7,3-4.5,4.2-8.9,4.3c-7.4,0.1-10.9-4.7-11-11l0-3.3c-0.1-7.4,3.6-11,10-11.1
			c6.9-0.1,10.2,3.9,10.2,11.4l0,2.8l-14,0.1c0.1,3.4,1.2,5.8,4.7,5.8c2.6,0,3.4-0.8,4.4-2.1L340.2,46.2z M326.4,34.9l7.7-0.1
			c-0.2-3.2-1.5-4.5-3.8-4.5C327.8,30.4,326.7,32.1,326.4,34.9z M329.9,14.4l7-0.1l-4.4,7.8l-6,0.1L329.9,14.4z"/>
	</g>
	<g>
		<path class="st1" d="M309.6,16.3l6.2-0.1l0.3,33.9l-6.2,0.1l0-1.4c-1.3,1.2-2.9,1.9-5.2,1.9c-6.4,0.1-9.8-4.5-9.8-11l0-3.3
			c-0.1-7.2,3.8-11,9.6-11.1c2.1,0,3.9,0.5,5.3,1.7L309.6,16.3z M309.8,39.2l0-3.1c0-3.6-1.5-5.5-4.4-5.5c-3.1,0-4.4,2.2-4.3,6.1
			l0,2.6c0,3.5,1,6.2,4.4,6.1C309,45.3,309.9,42.7,309.8,39.2z"/>
	</g>
	<g>
		<path class="st1" d="M278.7,46.7c-1.7,3-4.5,4.2-8.9,4.3c-7.4,0.1-10.9-4.7-11-11l0-3.3c-0.1-7.4,3.6-11,10-11.1
			c6.9-0.1,10.2,3.9,10.2,11.4l0,2.8l-14,0.1c0.1,3.4,1.2,5.8,4.7,5.8c2.6,0,3.4-0.8,4.4-2.1L278.7,46.7z M264.9,35.4l7.7-0.1
			c-0.2-3.2-1.5-4.5-3.8-4.5C266.3,30.9,265.1,32.6,264.9,35.4z"/>
	</g>
	<g>
		<path class="st1" d="M245.4,16.9l6.3-0.1l0.2,24.6c0,2.7,0.8,3.9,3.5,3.8l0,5.4c-6.6,0.1-9.7-1.6-9.8-7.8L245.4,16.9z"/>
	</g>
	<g>
		<path class="st1" d="M221,31.7l-10.7,0.1l0-5.3l18.8-0.2l0,4.4l-10.5,15l11-0.1l0,5.3l-19.2,0.2l0-4.4L221,31.7z"/>
	</g>
	<g>
		<path class="st1" d="M206.5,47.4c-1.7,3-4.5,4.2-8.9,4.3c-7.4,0.1-10.9-4.7-11-11l0-3.3c-0.1-7.4,3.6-11,10-11.1
			c6.9-0.1,10.2,3.9,10.2,11.4l0,2.8l-14,0.1c0.1,3.4,1.2,5.8,4.7,5.8c2.6,0,3.4-0.8,4.4-2.1L206.5,47.4z M192.8,36l7.7-0.1
			c-0.2-3.2-1.5-4.5-3.8-4.5C194.2,31.5,193,33.2,192.8,36z"/>
	</g>
	<g>
		<path class="st1" d="M185.5,26.7l-9.1,24.6l-5.9,0.1l-9.7-24.5l6.9-0.1l5.6,15.9l5.3-16L185.5,26.7z"/>
	</g>
	<g>
		<path class="st1" d="M159.4,47.8c-1.7,3-4.5,4.2-8.9,4.3c-7.4,0.1-10.9-4.7-11-11l0-3.3c-0.1-7.4,3.6-11,10-11.1
			c6.9-0.1,10.2,3.9,10.2,11.4l0,2.8l-14,0.1c0.1,3.4,1.2,5.8,4.7,5.8c2.6,0,3.4-0.8,4.4-2.1L159.4,47.8z M145.7,36.5l7.7-0.1
			c-0.2-3.2-1.5-4.5-3.8-4.5C147.1,31.9,145.9,33.7,145.7,36.5z"/>
	</g>
	<g>
		<path class="st1" d="M126.2,17.9l6.3-0.1l0.2,24.6c0,2.7,0.8,3.9,3.5,3.8l0,5.4c-6.6,0.1-9.7-1.6-9.8-7.8L126.2,17.9z"/>
	</g>
	<g>
		<path class="st1" d="M121.6,48.1c-1.7,3-4.5,4.2-8.9,4.3c-7.4,0.1-10.9-4.7-11-11l0-3.3c-0.1-7.4,3.6-11,10-11.1
			c6.9-0.1,10.2,3.9,10.2,11.4l0,2.8l-14,0.1c0.1,3.4,1.2,5.8,4.7,5.8c2.6,0,3.4-0.8,4.4-2.1L121.6,48.1z M107.8,36.8l7.7-0.1
			c-0.2-3.2-1.5-4.5-3.8-4.5C109.2,32.3,108.1,34,107.8,36.8z"/>
	</g>
	<g>
		<path class="st1" d="M92.2,52.1L86,38.8l-5.5,0l0.1,13.3l-6.9,0.1l-0.3-33.9l12.1-0.1c7.8-0.1,12.7,3.4,12.8,10.3
			c0,4.6-2,7.6-5.7,9.1L99.8,52L92.2,52.1z M85.1,33.1c4.1,0,6.4-0.9,6.4-4.5c0-3.5-2.4-4.5-6.5-4.5l-4.6,0l0.1,8.9L85.1,33.1z"/>
	</g>
</g>
</svg>
